<svg id="Layer_1" x="0px" y="0px"
	 viewBox="0 0 200 27" style="enable-background:new 0 0 200 27;" xml:space="preserve">
	 <defs>
	 <clipPath id="svgPath">
	<path d="M7.5,14.9c-1.3-1.3-3.2-2.3-4.2-2.7c-0.5-0.2-0.7-0.3-0.7-0.4c0-0.4,1.6-0.4,1.8-0.4c0.4,0,5.5,0,5.5,2.8
		c0,0.8-0.5,1.4-1.2,1.4C8.4,15.5,7.9,15.3,7.5,14.9z M9.1,23.7c-1.4,0-4.5-2-4.5-3.4c0-0.5,0.3-1,0.6-1c0.2,0,0.3,0.2,0.5,0.5
		c0.3,0.5,1,0.7,1.8,0.7c0.5,0,1.1-0.1,1.7-0.4c4.9-2.4,11.6-8.7,13.9-11.8c0.6-0.7,0.9-1.1,1.1-1.1c0.1,0,0.1,0.1,0.1,0.1
		c0,0.3-1.9,7.1-13.2,15.1C10.4,22.9,10.1,23.7,9.1,23.7z M10.3,9.6C8.7,7.8,7.2,6.9,6.2,6.5C5.8,6.3,5.6,6.2,5.6,6.1
		c0-0.2,0.3-0.3,0.9-0.3c3.9,0.1,6.2,1.2,6.2,3c0,0.8-0.5,1.5-1.2,1.5C11.2,10.3,10.7,10.1,10.3,9.6z M19.2,6.9
		c-0.8-1.2-1.8-2.1-2.6-2.4c-0.3-0.1-0.4-0.3-0.4-0.4c0-0.1,0.2-0.2,0.6-0.2c1.7,0,4.3,1,4.3,2.5c0,0.6-0.4,1.2-0.9,1.2
		C19.8,7.6,19.4,7.4,19.2,6.9z M21.8,5.2C20.9,4,20,3.3,19,2.8c-0.3-0.2-0.4-0.3-0.4-0.4c0-0.1,0.2-0.2,0.5-0.2
		c1.2,0,4.4,0.6,4.4,2.5c0,0.6-0.4,1.2-0.9,1.2C22.4,5.8,22.1,5.6,21.8,5.2z"/>
	
		</clipPath>
		</defs>
</svg>
