<?xml version="1.0" encoding="utf-8"?>
<!-- Generator: Adobe Illustrator 22.0.1, SVG Export Plug-In . SVG Version: 6.00 Build 0)  -->
<svg version="1.1" id="Layer_1" xmlns="http://www.w3.org/2000/svg" xmlns:xlink="http://www.w3.org/1999/xlink" x="0px" y="0px"
	 viewBox="0 0 420.5 65.5" style="enable-background:new 0 0 420.5 65.5;" xml:space="preserve">
<style type="text/css">
	.st0{fill:#FFFFFF;}
	.st1{fill:#57A0EC;}
</style>
<g id="title_1_">
	<g id="Group_8_1_">
		<g id="Head____Clouds">
			<g>
				<path class="st0" d="M23,3.8v1.4h1.6c1.1,0,1.8,0.1,2.1,0.4c0.3,0.3,0.5,0.7,0.6,1.3c0.2,1.7,0.3,3.9,0.3,6.4v4.4
					c-2.2,0.1-5,0.2-8.5,0.2c-4.1,0-7.5-0.1-10.2-0.2v-5.1c0-3.2,0.1-5.2,0.2-6c0.1-0.5,0.3-0.9,0.6-1.1s1.2-0.3,2.6-0.3h1V3.8
					C11.3,3.9,9.2,4,7,4C4.9,4,2.6,3.9,0.1,3.8v1.4h1.7C3.2,5.2,4,5.5,4.3,6s0.4,2.8,0.4,6.7v13.5c0,4.3-0.1,6.8-0.4,7.3
					C4,34,3,34.3,1.5,34.3H0.1v1.4c3.3-0.1,5.8-0.2,7.5-0.2c1.8,0,3.7,0.1,5.6,0.2v-1.4h-1.5c-0.8,0-1.4-0.1-1.8-0.3
					c-0.4-0.2-0.6-0.4-0.7-0.7c0-0.2-0.1-1.3-0.2-3.4c-0.1-1.5-0.1-2.7-0.1-3.8v-6.3c2.4-0.1,5.9-0.2,10.6-0.2c3.3,0,6,0.1,8.1,0.2
					v5.8c0,3-0.1,5.2-0.2,6.7c-0.1,0.7-0.3,1.2-0.6,1.5c-0.3,0.3-1.1,0.4-2.2,0.4H23v1.4c2.2-0.1,4.5-0.2,7-0.2
					c2.2,0,4.3,0.1,6.4,0.2v-1.4h-1.7c-1.4,0-2.2-0.3-2.5-0.8s-0.4-3.1-0.4-7.7V13.4c0-3.6,0-5.7,0.1-6.4c0.1-0.7,0.3-1.1,0.6-1.4
					s1.1-0.4,2.2-0.4h1.7V3.8C34,3.9,31.7,4,29.5,4C27.4,3.9,25.2,3.9,23,3.8z M58.5,14c-1.7,0-3.6,0.5-5.4,1.5
					c-1.9,1-3.1,2.2-3.8,3.4c-1,1.8-1.6,4-1.6,6.5c0,3.3,0.9,5.9,2.8,7.8c1.9,1.9,4.3,2.9,7.3,2.9c1.4,0,2.7-0.2,4.1-0.5
					c1.3-0.4,2.6-0.9,3.8-1.6l0.7-1.9L66,31.8c-1,0.7-2,1.2-3.1,1.5c-1,0.3-2.1,0.5-3.1,0.5c-2.3,0-4.2-0.8-5.6-2.3
					c-1.4-1.5-2.2-3.8-2.3-6.7h5.6c2.8,0,5.1-0.1,6.7-0.2c0.9-0.1,1.8-0.2,2.8-0.5v-1.3c0-2.8-0.8-5-2.3-6.5
					C63.3,14.8,61.2,14,58.5,14z M63,23.2c-1,0.1-2.1,0.2-3.3,0.2c-2.8,0-5.4-0.1-7.7-0.2c0-2.6,0.5-4.5,1.5-5.7s2.3-1.8,4-1.8
					c1.1,0,2,0.2,2.8,0.7s1.4,1.1,1.7,1.8c0.5,1.2,0.8,2.4,0.8,3.7v1.3H63z M96.7,33.6c-0.1-0.4-0.2-2.6-0.3-6.7
					c0-4.3-0.2-6.9-0.3-8c-0.3-1.4-1-2.6-2.3-3.5s-2.9-1.4-5-1.4c-0.9,0-1.8,0.1-2.7,0.4c-0.8,0.2-1.8,0.7-2.9,1.3l-2.4,1.4v1.5v1.5
					l1.3,0.3c0.4-1,0.8-2,1.2-3.1c0.5-0.4,1.1-0.6,1.7-0.8s1.3-0.3,2-0.3c1.9,0,3.3,0.6,4.4,1.8c0.8,0.9,1.2,2.4,1.3,4.3
					c-4.9,0.9-8,1.6-9.3,2.1C82,25,81,25.8,80.3,27c-0.7,1.1-1.1,2.4-1.1,4s0.5,2.9,1.5,3.8c1,0.9,2.5,1.4,4.4,1.4
					c0.7,0,1.3-0.1,1.7-0.2c0.4-0.1,0.8-0.3,1.2-0.7l4.6-3.5c0,0.7,0,1.3,0,1.9v2c1.4-0.1,2.5-0.2,3.4-0.2c0.7,0,1.9,0.1,3.6,0.2
					v-1.5h-1.7C97.3,34.2,96.9,34,96.7,33.6z M92.7,29.8c-0.9,1.2-1.9,2.2-2.9,2.8s-2.1,0.9-3.2,0.9c-1,0-1.8-0.3-2.5-1
					c-0.6-0.7-1-1.5-1-2.7c0-1.6,0.6-2.9,1.7-3.6c1.1-0.8,3.8-1.6,7.9-2.5v1.1V29.8z M133,33.4c-0.1-0.3-0.2-1.7-0.2-4.2V15.8v-1.9
					l0.1-6c0.1-2.2,0.2-4,0.3-5.5l-0.4-0.3c-2.3,0.9-4.8,1.5-7.5,1.6V5h1.9c0.7,0,1.2,0.1,1.4,0.4c0.2,0.2,0.3,0.8,0.3,1.8v8.1
					c-1-0.5-1.9-0.8-2.8-1s-1.8-0.3-2.6-0.3c-1.3,0-2.6,0.4-4.1,1.1c-1.9,1-3.3,1.8-4.3,2.4c-0.9,0.6-1.7,1.7-2.4,3.1
					c-0.7,1.4-1,3.1-1,5.1c0,3.2,0.9,5.7,2.6,7.6s3.8,2.8,6.3,2.8c1,0,2.1-0.2,3.4-0.6c2-1.8,3.6-3.1,4.9-4.1
					c-0.1,1.9-0.1,3.3-0.2,4.3c1.6-0.1,2.6-0.2,2.8-0.2c1.4,0,3,0.1,4.9,0.2v-1.3l-1.6-0.2C133.8,34.1,133.2,33.8,133,33.4z
					 M128.9,24.7c0,2.3-0.2,3.9-0.7,5s-1.2,1.9-2.2,2.6s-2.1,1-3.3,1c-2,0-3.6-0.8-5-2.4c-1.4-1.6-2-3.8-2-6.6s0.6-4.8,1.8-6.3
					c1.2-1.4,2.8-2.1,4.7-2.1c1.2,0,2.4,0.3,3.5,0.8c1.1,0.6,2.2,1.4,3.2,2.5V24.7z M256.6,33.2c-2,0.5-3.9,0.7-5.9,0.7
					c-2.5,0-4.9-0.7-7.2-2s-4-3.1-5.3-5.4c-1.2-2.3-1.9-4.8-1.9-7.7c0-4.1,1.2-7.4,3.6-9.8c2.4-2.5,5.7-3.7,9.7-3.7
					c1.6,0,3.1,0.2,4.6,0.7c1.5,0.4,2.9,1.1,4.2,2l0.2,4h1.5c0.1-2.9,0.5-5.2,1.2-6.8c-0.9-0.2-2-0.4-3.4-0.7c-2.8-0.7-5.3-1-7.4-1
					c-4,0-7.4,0.7-10.2,2.1s-4.9,3.3-6.4,5.8s-2.3,5.3-2.3,8.5s0.7,6,2.2,8.5s3.6,4.5,6.4,5.9c2.8,1.4,6,2.1,9.7,2.1
					c1.8,0,3.6-0.2,5.3-0.7c1.8-0.4,3.5-1.1,5.3-2c0.3-0.7,0.6-1.4,0.9-2.1L261,31C259.5,32.1,258,32.8,256.6,33.2z M280.3,33.6
					c-0.2-0.6-0.3-3.2-0.3-7.8V14.3c0-3.5,0.1-7.5,0.4-11.9L280,2.1c-1.9,0.9-4.3,1.5-7.5,1.7v1.3h1.8c0.8,0,1.3,0.1,1.5,0.4
					c0.2,0.2,0.2,0.6,0.2,1.3l0.1,2.9V14v11.5c0,4.7-0.1,7.4-0.3,8c-0.1,0.4-0.6,0.6-1.5,0.7l-1.9,0.2v1.3c2.7-0.1,4.8-0.2,6.5-0.2
					c1.5,0,3,0.1,4.7,0.2v-1.3l-1.9-0.2C280.9,34.1,280.4,33.9,280.3,33.6z M307,14c-2.2,0-4.2,0.5-5.9,1.4c-1.7,0.9-3.1,2.2-4,3.9
					c-1,1.7-1.4,3.5-1.4,5.6c0,3.5,0.9,6.2,2.8,8.2s4.3,3,7.3,3c3.1,0,5.8-1,8-2.9c2.5-2.2,3.7-5.1,3.7-8.8c0-3.1-1-5.7-2.9-7.5
					C312.7,15,310.2,14,307,14z M311.6,32.5c-1.1,1.4-2.6,2.1-4.4,2.1c-2.4,0-4.2-1.1-5.5-3.3s-1.9-4.8-1.9-7.9
					c0-1.6,0.3-3.1,0.9-4.4c0.4-1,1.1-1.8,2.1-2.4c0.9-0.6,2-0.9,3.2-0.9c1.3,0,2.5,0.4,3.6,1.1c1.1,0.8,1.9,2,2.6,3.6
					c0.7,1.7,1,3.6,1,5.9C313.3,29,312.7,31.1,311.6,32.5z M351.4,33.7c-0.2-0.3-0.3-1.6-0.3-3.7c0-3.9,0.1-8.4,0.3-13.5l0.1-2.1
					c0-0.3-0.1-0.4-0.4-0.4c-0.1,0-0.3,0-0.4,0.1c-1.2,0.5-2.3,0.8-3.4,1.1c-1.1,0.2-2.4,0.4-3.9,0.6V17h1.8c1.2,0,1.9,0.2,2,0.5
					c0.2,0.4,0.2,2.8,0.2,7.2c0,2.6-0.1,4.2-0.3,4.7c-0.4,0.9-1.1,1.8-2.3,2.7c-1.2,0.9-2.4,1.3-3.8,1.3c-1,0-1.9-0.3-2.6-0.8
					s-1.2-1.1-1.4-1.9c-0.2-0.8-0.3-2.5-0.3-5.2s0.1-5.7,0.3-8.8l0.2-2.3c0-0.4-0.1-0.6-0.4-0.6l-1.9,0.7c-1.7,0.6-3.6,0.9-5.6,1.1
					V17h2c0.8,0,1.3,0.1,1.4,0.4s0.2,1.7,0.2,4.2l-0.1,3.6c0,1.3-0.1,2.5-0.1,3.5c0,2,0.2,3.4,0.7,4.3c0.4,0.9,1.1,1.6,2.1,2.2
					c1,0.6,2.1,0.9,3.5,0.9c1.6,0,2.9-0.2,4-0.7s2.1-1.2,3.1-2.4l1.3-1.4l-0.2,4c1-0.1,1.9-0.2,2.9-0.2c1.3,0,2.9,0.1,4.8,0.2v-1.3
					h-1.3C352.4,34.4,351.7,34.2,351.4,33.7z M388.3,33.4c-0.1-0.3-0.2-1.7-0.2-4.2V15.8v-1.9l0.1-6c0.1-2.2,0.2-4,0.3-5.5l-0.4-0.3
					c-2.3,0.9-4.8,1.5-7.5,1.6V5h1.9c0.7,0,1.2,0.1,1.4,0.4c0.2,0.2,0.3,0.8,0.3,1.8v8.1c-1-0.5-1.9-0.8-2.8-1s-1.8-0.3-2.6-0.3
					c-1.3,0-2.6,0.4-4.1,1.1c-1.9,1-3.3,1.8-4.3,2.4c-0.9,0.6-1.7,1.7-2.4,3.1c-0.7,1.4-1,3.1-1,5.1c0,3.2,0.9,5.7,2.6,7.6
					s3.8,2.8,6.3,2.8c1,0,2.1-0.2,3.4-0.6c2-1.8,3.6-3.1,4.9-4.1c-0.1,1.9-0.1,3.3-0.2,4.3c1.6-0.1,2.6-0.2,2.8-0.2
					c1.4,0,3,0.1,4.9,0.2v-1.3l-1.6-0.2C389.2,34.1,388.5,33.8,388.3,33.4z M384.3,24.7c0,2.3-0.2,3.9-0.7,5s-1.2,1.9-2.2,2.6
					s-2.1,1-3.3,1c-2,0-3.6-0.8-5-2.4c-1.4-1.6-2-3.8-2-6.6s0.6-4.8,1.8-6.3c1.2-1.4,2.8-2.1,4.7-2.1c1.2,0,2.4,0.3,3.5,0.8
					c1.1,0.6,2.2,1.4,3.2,2.5V24.7z M419.7,26.1c-0.4-0.8-1-1.3-1.7-1.7s-2.1-0.8-4.3-1.2c-2.9-0.6-4.7-1.1-5.3-1.7
					c-0.6-0.5-1-1.3-1-2.3s0.4-1.9,1.2-2.6s1.9-1,3.3-1c1,0,2,0.2,2.9,0.7c0.9,0.4,1.5,0.9,1.9,1.5c0.3,0.4,0.4,1.3,0.4,2.6h1.3
					c0.1-2.4,0.2-4.1,0.3-5.1c-2.1-0.8-4.2-1.3-6.3-1.3c-2.7,0-4.7,0.6-6.1,1.9c-1.4,1.2-2.2,2.9-2.2,4.9c0,1.1,0.2,2,0.7,2.7
					s1.2,1.3,2.2,1.8c1,0.4,2.9,1,5.9,1.6c1.6,0.3,2.7,0.8,3.3,1.3c0.6,0.6,0.9,1.3,0.9,2.2c0,1.2-0.5,2.1-1.5,3
					c-1,0.8-2.2,1.2-3.8,1.2c-1.2,0-2.4-0.2-3.5-0.7s-1.9-0.9-2.3-1.4c-0.2-0.3-0.3-1-0.3-2.2v-1.5h-1.4v1.1c0,0.8-0.1,1.9-0.2,3.4
					c0,0.6-0.1,1-0.2,1.2l-0.1,0.3c0,0.2,0.2,0.4,0.6,0.5c2.3,0.6,4.4,0.9,6.2,0.9c2.9,0,5.2-0.7,6.9-2.2c1.7-1.5,2.6-3.2,2.6-5.2
					C420.3,27.8,420.1,26.9,419.7,26.1z"/>
			</g>
		</g>
		<g id="Group_6_1_">
			<g id="in">
				<g>
					<path class="st0" d="M160.5,4c0.2,0,0.4-0.1,0.6-0.2c0.2-0.2,0.2-0.4,0.2-0.6s-0.1-0.4-0.2-0.6c-0.2-0.2-0.4-0.2-0.6-0.2
						c-0.2,0-0.4,0.1-0.6,0.2c-0.2,0.2-0.2,0.4-0.2,0.6s0.1,0.4,0.2,0.6C160,4,160.2,4,160.5,4z M161.3,12.1
						c-0.1-0.1-0.1-0.2-0.1-0.4c0-0.5-0.1-1-0.1-1.6c0-0.7,0-1.7,0.1-3.2c0-0.4,0-0.8,0.1-1.2L161,5.6c-0.4,0.2-0.8,0.3-1.1,0.4
						s-0.7,0.2-1.3,0.2v0.4h0.5c0.3,0,0.4,0,0.5,0.1s0.1,0.2,0.1,0.3c0,0.4,0,1,0,1.8c0,1.1,0,2,0,2.6c0,0.4,0,0.6-0.1,0.7
						c-0.1,0.1-0.2,0.1-0.4,0.1l-0.6,0.1v0.4c0.6,0,1.2-0.1,1.7-0.1c0.6,0,1.2,0,1.9,0.1v-0.4l-0.5-0.1
						C161.5,12.2,161.4,12.2,161.3,12.1z M173.8,12.4c-0.3,0-0.4-0.1-0.5-0.2s-0.1-0.6-0.1-1.4V8.5c0-0.7-0.1-1.3-0.2-1.6
						c-0.2-0.3-0.4-0.6-0.8-0.8c-0.4-0.2-0.8-0.3-1.4-0.3c-0.3,0-0.6,0.1-1,0.2c-0.1,0.1-0.3,0.1-0.4,0.3l-1.1,1v-1V6
						c0-0.1,0-0.2-0.1-0.2h-0.1c-0.4,0.2-0.8,0.3-1.1,0.4s-0.7,0.1-1.1,0.2v0.4h0.5c0.3,0,0.5,0,0.6,0.1s0.1,0.2,0.1,0.3
						c0,0.5,0,1.1,0,2c0,1.9,0,2.9-0.1,3.1c-0.1,0.2-0.3,0.3-0.6,0.3h-0.5V13c0.7,0,1.2-0.1,1.8-0.1c0.5,0,1.1,0,2,0.1v-0.4H169
						c-0.3,0-0.5-0.1-0.6-0.2c-0.1-0.1-0.1-0.2-0.1-0.4c0-0.8,0-1.6,0-2.5c0-0.8,0-1.3,0.1-1.5c0.1-0.3,0.3-0.6,0.6-0.8
						s0.7-0.4,1.2-0.4c0.4,0,0.7,0.1,1,0.3s0.5,0.4,0.6,0.7s0.2,0.7,0.2,1.4c0,1.6,0,2.9-0.1,3.9c0.4,0,0.8-0.1,1.2-0.1
						s0.8,0,1.3,0.1v-0.4h-0.6L173.8,12.4L173.8,12.4z"/>
				</g>
			</g>
			<g id="The">
				<g>
					<path class="st0" d="M158.8,17.4c0.1,1.2,0.2,2,0.2,2.7v1.5h0.8l0.2-1.7c0.1-0.7,0.2-1.1,0.4-1.2c0.2-0.1,1.4-0.1,3.5-0.1h1.3
						c0.1,1.2,0.1,2.5,0.1,4V30c0,1.6,0,2.9-0.1,3.9c0,0.4-0.1,0.7-0.3,0.9s-0.5,0.2-1.1,0.2h-1.1v0.8c1.5-0.1,2.8-0.1,3.8-0.1
						s2.3,0,3.8,0.1V35h-1c-0.8,0-1.3-0.1-1.5-0.4c-0.1-0.3-0.2-1.8-0.2-4.5v-7.3c0-1.4,0-2.8,0.1-4.1h1c1.2,0,2.3,0,3.2,0.1
						c0.3,0,0.5,0.1,0.6,0.2c0.1,0.1,0.2,0.5,0.2,1l0.1,1.7h0.8c0-1.3,0.1-2.7,0.3-4.2l-7.1,0.1C166.1,17.5,163.4,17.5,158.8,17.4z
						 M193.1,34.7c-0.1-0.1-0.2-0.3-0.2-0.5c-0.1-0.5-0.1-1.2-0.1-2l0.1-3.8c0-1.4-0.1-2.4-0.4-3c-0.3-0.6-0.8-1.1-1.4-1.5
						c-0.7-0.4-1.5-0.6-2.5-0.6c-0.5,0-1,0.1-1.4,0.2c-0.4,0.1-0.8,0.4-1.2,0.8l-1.7,1.5v-3.4c0-0.6,0-1.5,0.1-2.7l0.1-2.3v-0.5
						c0-0.2-0.1-0.3-0.2-0.3l-1,0.4c-0.8,0.2-1.9,0.4-3.2,0.6v0.8h0.9c0.6,0,1,0.1,1,0.3c0.1,0.3,0.2,1.6,0.2,3.8V31
						c0,1.6,0,2.7-0.1,3.1c0,0.3-0.1,0.5-0.3,0.6c-0.1,0.1-0.4,0.2-0.9,0.2l-0.8,0.1v0.7c1.4-0.1,2.5-0.1,3.3-0.1s1.9,0,3.2,0.1V35
						l-1.1-0.1c-0.6-0.1-0.9-0.2-1-0.4s-0.1-1.3-0.1-3.4v-2.2c0-1.2,0.1-1.9,0.2-2.3c0.2-0.4,0.6-0.8,1.2-1.2
						c0.6-0.3,1.2-0.5,1.9-0.5s1.3,0.1,1.7,0.4c0.5,0.3,0.8,0.7,0.9,1.2c0.2,0.5,0.3,1.4,0.3,2.8c0,2.1-0.1,4.2-0.2,6.4
						c0.7-0.1,1.3-0.1,2-0.1c0.8,0,1.6,0,2.4,0.1V35l-1-0.1C193.5,34.9,193.2,34.8,193.1,34.7z M210.4,29.4c0.5,0,1-0.1,1.6-0.3
						v-0.8c0-1.6-0.4-2.9-1.3-3.7c-0.9-0.9-2.1-1.3-3.6-1.3c-1,0-2,0.3-3.1,0.9c-1.1,0.6-1.8,1.2-2.2,1.9c-0.6,1.1-0.9,2.3-0.9,3.7
						c0,1.9,0.5,3.4,1.6,4.5s2.5,1.7,4.2,1.7c0.8,0,1.6-0.1,2.3-0.3c0.8-0.2,1.5-0.5,2.2-0.9l0.4-1.1l-0.2-0.2
						c-0.6,0.4-1.2,0.7-1.8,0.9s-1.2,0.3-1.8,0.3c-1.3,0-2.4-0.4-3.2-1.3s-1.2-2.2-1.3-3.9h3.2C208.2,29.5,209.5,29.5,210.4,29.4z
						 M204.3,25.3c0.6-0.7,1.3-1.1,2.3-1.1c0.6,0,1.2,0.1,1.6,0.4c0.5,0.3,0.8,0.6,1,1c0.3,0.7,0.4,1.4,0.4,2.2v0.7
						c-0.6,0.1-1.2,0.1-1.9,0.1c-1.6,0-3.1,0-4.4-0.1C203.4,27.1,203.7,26,204.3,25.3z"/>
				</g>
			</g>
		</g>
	</g>
	<g id="ヘッド_x2022_イン_x2022_ザ_x2022_クラウドズ">
		<g>
			<path class="st1" d="M13.6,57.8c-0.7-0.3-1.4-0.9-2.3-1.6c-1-0.9-2.6-1.9-3.5-2.6c-0.5-0.3-0.9-0.5-1.4-0.5s-1,0.2-1.4,0.7
				c-0.7,0.7-1.6,1.6-2.3,2.3c-0.2,0.2-0.3,0.2-0.5,0.2c-0.3,0-0.7-0.2-0.9-0.5c0-0.2-0.2-0.2-0.2-0.2c-0.2,0-0.3,0.3-0.3,0.7
				c0,1,1.7,1.7,2.3,1.7c0.3,0,0.5-0.2,0.9-0.5c0.5-0.9,1-2.1,1.6-2.8c0.3-0.3,0.5-0.5,0.9-0.5c0.5,0,0.9,0.3,4.2,3.5
				c2.1,1.9,2.9,2.8,3.6,2.8c0.5,0,0.9-0.3,0.9-0.9v-0.2C14.7,58.2,14.2,58,13.6,57.8z M24.7,53.8c-0.5,0-0.7,0.5-0.7,0.5
				c0,0.2,0.2,0.2,0.3,0.2c0.3,0,0.5,0.3,0.5,0.7c0,0.9-1.6,5.2-5.4,7.1c-0.5,0.2-0.7,0.3-0.7,0.5c0,0,0,0,0.2,0s0.3,0,0.7-0.2
				c3.1-1.2,5.2-3.1,6.6-6.4c0.2-0.2,0.3-0.3,0.3-0.7v-0.2C26.6,54.9,25.4,53.8,24.7,53.8z M20.4,58.2c0.3,0,0.7-0.5,0.7-1
				c0-1.2-1.9-2.4-2.4-2.4c-0.2,0-0.2,0-0.2,0.2s0,0.2,0.2,0.3c0.3,0.5,0.7,1.2,0.9,2.1C19.7,57.8,20,58.2,20.4,58.2z M21.8,56.6
				c0.2,0.5,0.3,0.9,0.7,0.9c0.3,0,0.7-0.5,0.7-1c0-1.2-1.9-2.4-2.3-2.4c0,0-0.2,0-0.2,0.2c0,0,0,0.2,0.2,0.5
				C21.3,54.9,21.6,55.6,21.8,56.6z M37.7,50c-0.2,0-0.3,0-0.3,0.2c0,0,0,0.2,0.3,0.2c0.7,0.2,1.2,0.7,1.7,1.4
				c0.2,0.2,0.3,0.3,0.5,0.3c0.3,0,0.5-0.3,0.5-0.7C40.5,50.2,38.4,50,37.7,50z M34.1,54.4c0-0.9,0-1.6,0.2-2.3c0-0.7,0.3-1,0.3-1.4
				c0-0.7-1.6-1.2-2.1-1.2c-0.7,0-0.9,0.5-0.9,0.5s0.2,0.2,0.5,0.2c0.7,0,0.9,1.2,0.9,4.3c0,2.1,0,4.2-0.2,5c0,0.5-0.2,0.7-0.2,1.2
				c0,0.3,0.2,2.1,1,2.1s0.9-1,0.9-1.4v-0.2c0-1.6-0.2-3.8-0.2-5.7c0-0.3,0-0.5,0-0.9c1.6,0.5,2.6,1.7,3.3,2.8
				c0.3,0.3,0.5,0.5,0.9,0.5c0.5,0,0.9-0.5,0.9-1C39.3,56.4,39.1,54.9,34.1,54.4z M36.1,51.8c0.5,0.2,1.2,0.7,1.7,1.4
				c0.2,0.2,0.3,0.3,0.5,0.3c0.3,0,0.5-0.3,0.5-0.7c0-1-1.7-1.4-2.6-1.4c-0.3,0-0.5,0-0.5,0.2C35.8,51.6,36,51.6,36.1,51.8z
				 M45.8,56.1c-0.9,0-1.6,0.7-1.6,1.6s0.7,1.6,1.6,1.6s1.6-0.7,1.6-1.6C47.2,56.8,46.7,56.1,45.8,56.1z M59.4,49.5
				c-0.3,0-0.9,0.2-0.9,0.3s0.2,0.2,0.3,0.2c0.2,0,0.5,0.2,0.5,0.5c0,0.9-4,5.4-8.1,7.8c-0.5,0.2-0.7,0.3-0.7,0.5c0,0,0,0,0.2,0
				c0.3,0,3.5-1,6.4-3.3l0,0c0,0,0.2,0.2,0.2,1.6c0,0.9,0,1.7-0.2,2.6c0,0.3-0.2,0.7-0.2,1c0,0.2,0.2,2.1,1,2.1
				c0.3,0,0.9-0.5,0.9-1.4c0,0,0,0,0-0.2c0-0.7-0.2-1.9-0.2-2.9s0-2.1,0.2-2.4c0-0.2,0.2-0.5,0.2-0.7c0-0.3-0.2-0.7-0.7-1
				c0.9-0.9,1.6-1.4,2.4-2.4c0.3-0.3,0.9-0.5,0.9-0.9C61.6,50.7,60.4,49.5,59.4,49.5z M76.7,52.5c-2.3,2.9-7.4,7.1-9.2,7.1
				c-0.5,0-0.9-0.2-1.2-0.5c-0.2-0.2-0.3-0.2-0.3-0.2c-0.2,0-0.3,0.5-0.3,0.7c0,0.9,1.9,2.1,2.8,2.1c0.5,0,0.7-0.3,1.2-0.7
				c6.6-4.3,7.8-8.7,7.8-9l0,0C77.2,51.9,77,52.1,76.7,52.5z M68.2,54.5c0.2,0.3,0.5,0.5,0.9,0.5c0.5,0,0.9-0.5,0.9-1
				c0-1.9-3.6-2.3-4.2-2.3c-0.3,0-0.5,0-0.5,0.2c0,0,0.2,0.2,0.3,0.3C66.3,52.5,67.5,53.5,68.2,54.5z M82.9,56.1
				c-0.9,0-1.6,0.7-1.6,1.6s0.7,1.6,1.6,1.6s1.6-0.7,1.6-1.6C84.5,56.8,83.8,56.1,82.9,56.1z M98.8,50.6c0.5,0.2,1,0.7,1.6,1.4
				c0.2,0.3,0.3,0.3,0.5,0.3c0.3,0,0.5-0.3,0.5-0.7c0-1-1.7-1.6-2.6-1.6c-0.2,0-0.3,0-0.3,0.2C98.7,50.4,98.7,50.6,98.8,50.6z
				 M100,52.8c-0.5,0-0.7,0.2-1.2,0.3c-0.3,0-0.5,0-0.9,0c0-0.3,0-0.9,0-1.2c0-0.5,0.3-0.9,0.3-1.2c0-0.7-1.6-1.2-2.1-1.2
				c-0.7,0-0.9,0.3-0.9,0.5s0.2,0.2,0.3,0.2c0.3,0,0.7,0.3,0.9,0.9c0,0.5,0,1.4,0,2.3c-0.9,0.2-1.7,0.2-2.6,0.3c0-0.3,0-0.9,0-1.2
				s0.2-0.7,0.2-0.9c0-0.7-1.6-1-1.9-1c-0.9,0-0.9,0.5-0.9,0.5s0,0.2,0.2,0.2l0,0l0,0c0.9,0,0.9,0.7,1,2.6c-2.1,0.3-2.1,0.3-2.4,0.3
				c-0.5,0-1.2-0.2-1.6-0.3c-0.2-0.2-0.3-0.2-0.3-0.2s-0.2,0-0.2,0.5c0,0.9,1.9,1.6,2.4,1.6c0.3,0,0.7-0.2,1.2-0.3
				c0.3-0.2,0.7-0.2,1-0.3c0,0.5,0,0.9,0,1.2c0,0.3-0.2,0.3-0.2,0.7v0.2c0,0.9,0.3,1.4,0.9,1.4c0.3,0,0.7,0,0.7-1.6
				c0-0.3,0-0.5,0-0.7c0-0.5,0-1-0.2-1.4c0.9-0.2,1.6-0.2,2.6-0.3c0,0.9,0,1.7-0.2,2.3c-0.5,2.6-2.4,4.8-4.3,5.9
				c-0.5,0.2-0.7,0.3-0.7,0.5c0,0,0,0,0.2,0c0.3,0,6.4-1.6,6.4-8c0-0.2,0-0.5,0-0.7c0.2,0,0.3,0,0.3,0c1,0,1.4,0,2.8,0.2
				c0.2,0,0.2,0,0.3,0c0.7,0,0.9-0.3,0.9-0.7c0-0.2,0-0.3-0.2-0.3C101.9,53.3,100.6,52.8,100,52.8z M100.4,49.2
				c-0.2,0-0.3,0-0.3,0.2c0,0,0,0.2,0.2,0.2c0.5,0.3,1.2,0.7,1.6,1.4c0.2,0.2,0.3,0.3,0.5,0.3c0.3,0,0.5-0.3,0.5-0.7
				C103,49.3,100.7,49.2,100.4,49.2z M108,56.1c-0.9,0-1.6,0.7-1.6,1.6s0.7,1.6,1.6,1.6s1.6-0.7,1.6-1.6
				C109.4,56.8,108.7,56.1,108,56.1z M122.6,51.1c-0.3,0-0.5,0.3-1,0.3c-0.9,0.2-1.7,0.3-1.9,0.3c0.2-0.2,0.3-0.5,0.5-0.7
				s0.2-0.2,0.2-0.3c0-0.5-1.2-1.2-1.9-1.2c-0.5,0-0.9,0.3-0.9,0.3s0,0.2,0.2,0.2c0.3,0,0.7,0.2,0.7,0.5c0,0.5-2.1,4.7-4.5,6.6
				c-0.3,0.3-0.5,0.5-0.5,0.5l0,0c0.5,0,3.3-1.7,5.7-5.2c0.2,0.2,0.5,0.3,0.7,0.3l0,0c0.7-0.2,1.4-0.3,2.1-0.5c0,0,0,0,0.2,0h0.2
				c0,0-3.3,7.3-9,9.7c-0.5,0.2-0.7,0.3-0.7,0.3s0,0,0.2,0s0.3,0,0.7-0.2c5-1.4,7.6-4.5,10.2-9c0.2-0.3,0.9-0.7,0.9-1
				C124.5,51.9,123.1,51.1,122.6,51.1z M131.7,52.1c0.9,0,3.6-0.5,4.3-0.7c0.5-0.2,0.7-0.5,0.7-0.7c0-0.7-1.4-0.7-1.6-0.7
				c-0.2,0-0.2,0-0.3,0c-0.3,0.2-0.5,0.3-0.9,0.3c-1.2,0.3-2.1,0.3-2.4,0.3c-0.5,0-1-0.2-1.6-0.5c-0.2-0.2-0.2-0.2-0.2-0.2
				c-0.2,0-0.2,0.3-0.2,0.3C129.5,51.1,130.3,52.1,131.7,52.1z M136.4,52.8c-0.3,0-0.7,0.3-1,0.5c-1.4,0.2-3.8,0.5-4.8,0.7
				c-0.2,0-0.5,0-0.9,0c-0.5,0-0.9,0-1.2-0.3c-0.2-0.2-0.2-0.2-0.2-0.2c-0.2,0-0.2,0.5-0.2,0.5c0,0.9,1.6,1.6,2.3,1.6
				c0.2,0,0.5,0,0.7-0.2c0.9-0.2,3.1-1,4.7-1.2l0,0c0.3,0,0.3,0,0.3,0s-2.3,5.9-6.9,8c-0.3,0.2-0.5,0.3-0.5,0.3s0,0,0.2,0
				c0.7,0,6.1-1.4,8.8-7.4c0.2-0.5,1-0.9,1-1.2C138.5,53.5,136.6,52.8,136.4,52.8z M151.3,51.9c-0.3,0-0.7,0.3-1,0.3
				c-0.5,0-1,0.2-1.6,0.2c0-0.3,0-0.7,0-1c0-0.5,0.3-1,0.3-1.4c0-0.2-0.2-0.5-0.5-0.5c-0.3-0.2-0.9-0.3-1.4-0.3c-0.7,0-1,0.5-1,0.5
				s0.2,0.2,0.3,0.2c0.9,0,0.9,0.7,0.9,1.6c0,0.5,0,0.9,0,1.2l-1.2,0.2c-0.2,0-0.2,0-0.3,0c-0.2,0-0.5,0-0.7,0
				c-0.3-0.3-1.2-0.9-1.9-0.9c-0.5,0-0.7,0.3-0.7,0.5s0.2,0.2,0.3,0.2c1.2,0.2,1.2,2.4,1.2,2.8c0,0.2,0,0.3,0,0.5s-0.2,0.5-0.2,0.7
				c0,0,0.2,1.7,1,1.7c0.7,0,0.9-0.7,0.9-1s0-1.2-0.2-1.9c0-0.5-0.2-1-0.2-1.4c0.3,0.2,0.5,0.2,0.7,0.2s0.3,0,0.5,0
				c1-0.2,3.8-0.5,4.3-0.5c0.2,0,0.2,0,0.2,0.2c0,0.5-1.7,6.6-6.4,9.2c-0.3,0.2-0.5,0.3-0.5,0.5c0,0,0,0,0.2,0s5.9-1.4,8.5-8.7
				c0.2-0.5,0.7-0.9,0.7-1.2C153.2,52.6,151.6,51.9,151.3,51.9z M160.5,54.4c0-0.9,0-1.6,0.2-2.3c0-0.7,0.3-1,0.3-1.4
				c0-0.7-1.6-1.2-2.1-1.2c-0.7,0-0.9,0.5-0.9,0.5s0.2,0.2,0.5,0.2c0.7,0,0.9,1.2,0.9,4.3c0,2.1,0,4.2-0.2,5c0,0.5-0.2,0.7-0.2,1.2
				c0,0.3,0.2,2.1,1,2.1c0.9,0,0.9-1,0.9-1.4v-0.2c0-1.6-0.2-3.8-0.2-5.7c0-0.3,0-0.5,0-0.9c1.6,0.5,2.6,1.7,3.3,2.8
				c0.3,0.3,0.5,0.5,0.9,0.5c0.5,0,0.9-0.5,0.9-1C165.7,56.4,165.3,54.9,160.5,54.4z M162.5,51.8c0.5,0.2,1.2,0.7,1.7,1.4
				c0.2,0.2,0.3,0.3,0.5,0.3c0.3,0,0.5-0.3,0.5-0.7c0-1-1.7-1.4-2.6-1.4c-0.3,0-0.5,0-0.5,0.2C162.2,51.6,162.4,51.6,162.5,51.8z
				 M164.1,50c-0.2,0-0.3,0-0.3,0.2c0,0,0,0.2,0.3,0.2c0.7,0.2,1.2,0.7,1.7,1.4c0.2,0.2,0.3,0.3,0.5,0.3c0.3,0,0.5-0.3,0.5-0.7
				C166.7,50.2,164.6,50,164.1,50z M177.1,56.4c0.9-1,1.6-2.1,2.3-3.1c0.2-0.3,0.9-0.5,0.9-0.9c0-0.5-1.6-1.2-2.1-1.2
				s-0.5,0.3-0.9,0.3c-1.2,0.2-2.4,0.5-3.3,0.5c-0.2,0-0.5,0-0.7,0c-0.5,0-0.9-0.2-1.2-0.3c-0.2-0.2-0.2-0.2-0.2-0.2
				c-0.2,0-0.3,0.3-0.3,0.5c0,0.7,1.4,1.6,2.1,1.6c0.3,0,0.5-0.2,0.9-0.2c0.7-0.3,1.7-0.9,2.8-1l0,0c0.2,0,0.2,0,0.2,0.2
				s-3.1,6.2-8,8.8c-0.5,0.2-0.7,0.3-0.7,0.5c0,0,0,0,0.2,0c0.3,0,4-0.7,7.6-5c1.7,1.4,2.4,2.8,3.1,4c0.2,0.5,0.5,0.7,0.9,0.7
				c0.5,0,0.9-0.5,0.9-1.2c0-0.2,0-0.3,0-0.5C181.2,58.5,179,57.1,177.1,56.4z M179.5,50c-0.2,0-0.3,0-0.3,0.2c0,0,0,0.2,0.2,0.2
				c0.5,0.2,1,0.7,1.6,1.6c0.2,0.3,0.3,0.3,0.5,0.3c0.3,0,0.5-0.3,0.5-0.7C181.9,50.6,180.2,50,179.5,50z M180.9,49
				c-0.2,0-0.3,0-0.3,0.2c0,0,0,0.2,0.3,0.2c0.5,0.3,1.2,0.7,1.6,1.4c0.2,0.2,0.3,0.3,0.5,0.3c0.3,0,0.5-0.3,0.5-0.7
				C183.5,49.2,181.1,49,180.9,49z"/>
		</g>
	</g>
</g>
</svg>
