<?xml version="1.0" encoding="utf-8"?>
<!-- Generator: Adobe Illustrator 22.0.1, SVG Export Plug-In . SVG Version: 6.00 Build 0)  -->
<svg version="1.1" id="svg2811" xmlns:svg="http://www.w3.org/2000/svg"
	 xmlns="http://www.w3.org/2000/svg" xmlns:xlink="http://www.w3.org/1999/xlink" x="0px" y="0px" viewBox="0 0 588.189 451.807"
	 enable-background="new 0 0 588.189 451.807" xml:space="preserve">
<path id="path26390" fill="#FFFFFF" d="M474.581,289.743c0.397,4.52,3.965,8.543,7.929,10.049c4.559,1.507,9.712,0.496,13.082-2.517
	c3.171-2.519,4.559-7.038,4.162-11.558L474.581,289.743z M404.209,81.129l32.708,14.073l3.965,19.11l-9.516-3.529
	c-12.686-4.52-17.047-8.543-23.786-2.022c-1.387,1.507-1.983,2.519-3.371,4.025V81.129z M390.136,170.093
	c5.549,1.01,11.101,1.507,16.056,3.033c0.397,0.991,0,2.001-0.596,3.013l-3.963,7.533c-3.57-3.509-7.929-8.545-11.497-12.568
	V170.093z M364.961,155.522c3.568-0.495,6.542-1.01,10.11-1.507v-24.638l0.397-0.496l9.514-2.517v-10.546
	c-3.965,0.991-5.946,1.507-10.507,2.001v-9.553c-3.369,0.494-6.54,1.01-9.514,2.001V155.522z M361.393,189.698
	c0.594,1.507,0.991,3.527,0,4.539c-2.378,3.013-5.551,2.001-8.523,3.013v-9.059C355.841,187.199,360.005,187.695,361.393,189.698
	 M335.226,237.966l0.594-0.496l38.258,8.029l-10.704,9.555c-3.369-1.012-5.946-3.509-8.92-5.035l-18.038-11.062L335.226,237.966z
	 M305.692,210.312v-22.618l9.911,5.036v21.606c0,2.519-0.991,4.025-3.965,4.52c-2.577,0.516-3.965,0-4.559-1.01
	C305.692,215.842,305.692,214.852,305.692,210.312 M323.135,104.241c5.549,12.568,0.594,26.643-8.523,35.186
	c-9.516,9.555-21.013,15.085-34.69,12.568c-7.929-2.003-16.058-8.545-18.039-17.088c-3.965-15.065,5.155-27.634,15.065-36.196
	c6.542-4.004,13.082-8.029,20.615-8.543C308.664,89.156,318.774,94.191,323.135,104.241 M234.726,278.681
	c10.11-11.062,27.157-14.075,41.826-10.05c3.965,1.507,8.523,3.527,9.911,8.047c2.181,5.532-1.981,10.546-6.54,14.075
	c-6.542,4.004-12.885,7.533-21.013,8.049c-9.514,0.495-21.606,0.495-27.157-9.059C229.175,285.718,232.346,281.694,234.726,278.681
	 M218.67,204.783v-0.496c7.136,1.507,14.669,4.023,21.209,7.036v15.087C232.743,219.371,225.806,212.335,218.67,204.783
	 M425.222,308.335c17.641,4.025,36.274,11.558,54.314,16.591v35.186l-268.399-27.137c0-1.507,1.585-1.01,1.585-1.01
	c7.533-1.507,15.065-1.507,22.598-2.519c36.673-4.023,73.344-8.027,110.611-12.566c18.436-2.003,38.06-3.509,56.694-6.026
	C410.157,309.842,417.69,309.842,425.222,308.335 M87.046,307.345c1.983,4.004,5.551,8.029,10.507,8.543
	c4.559,0.496,9.118-1.507,12.488-5.034c1.587-2.022,2.577-5.035,1.587-7.038c-8.129-2.021-16.058-3.013-24.185-5.014
	C86.055,301.795,86.055,304.332,87.046,307.345 M87.442,390.779l-53.72,6.542V34.881h73.344l-9.514,254.862
	c-0.991,1.507,0.397,3.508,2.577,4.023c1.387,0.496,3.965-0.516,5.352-2.517l46.781-256.368h269.986l12.488,54.275l-29.535-12.052
	c-3.965,1.012-6.542,1.507-10.507,3.013V97.72c-24.779-9.555-48.368-21.627-72.947-28.665c-24.185-7.531-49.358,1.012-66.804,20.101
	c-5.549,6.046-10.704,11.577-13.678,18.614l-7.531-3.529c-12.093-5.53-19.03-9.039-31.717-10.05
	c-20.615-1.507-41.232,12.072-50.152,31.18c-1.981,5.512-5.153,10.051-5.153,16.572l0.594,0.516
	c9.119-2.022,17.643-4.539,25.572-6.542c1.981-5.53,5.153-11.06,10.108-14.569c4.955-3.529,11.101-4.539,17.049-2.517
	c2.576,1.01,4.559,3.013,5.153,5.53c0.993,4.52-1.981,8.543-4.559,11.556l-48.368,55.801l-5.549,7.533l-0.397,9.059l85.039-20.119
	V171.6l-38.258,8.563l0.397-1.526c15.659-22.102,49.358-41.212,32.311-71.362l-2.577-2.517c5.549,2.003,11.497,6.026,16.056,8.029
	c-1.587,6.54-3.568,11.576-3.568,18.612c-0.397,17.584,7.533,35.186,23.589,42.222c6.145,1.507,11.101,4.52,17.643,3.509
	c14.075-3.013,28.743-6.523,43.213-10.546c21.211-14.589,34.69-38.713,30.725-64.84c-1.585-10.069-4.955-15.581-12.488-21.627
	l55.703,23.133l0.594,45.235l9.911-2.517v-25.136c0.596-2.001,1.983-2.517,2.974-3.508c1.585-0.516,3.171,0.494,4.162,0.991
	c0.992,1.01,1.586,2.022,1.586,3.033v23.114c2.974-0.496,5.946-1.507,9.514-2.519c0-10.546,0.397-21.606-1.585-30.15l21.012,8.049
	l9.713,36.176c0,0.516-0.594,1.507-0.991,1.507c-7.533-3.013-13.678-6.523-21.607-9.039c-8.523,1.507-16.65,3.509-25.176,5.53
	c-30.725,7.038-59.269,13.559-89.994,21.111c-43.215,10.565-87.022,20.101-130.632,30.666c-15.265,3.509-30.727,7.036-45.396,11.062
	c-0.991,2.001-0.395,5.035-0.395,7.036c1.982,2.003,5.549,2.519,6.937,4.025c-3.965,5.53-7.533,12.566-4.955,19.583
	c1.387,3.529,3.568,7.058,6.542,9.061c7.533-1.012,15.065-2.003,22.002-4.025c1.587-1.507,3.568-4.004,3.568-6.026l-6.54-2.517
	c-2.38,2.517-4.561,6.026-8.525,6.026c-2.378,0-4.955-2.003-5.946-4.52c-1.587-2.497-1.587-7.038,0-10.049
	c1.387-1.508,2.378-3.013,3.965-3.509c2.577-0.516,5.549-0.516,7.136,1.507c3.371-2.022,5.352-3.033,8.523-5.035
	c-0.991-3.013-3.568-3.508-5.153-5.53c4.162,0.494,7.136,2.022,10.505,3.013l1.19,2.022v23.112
	c10.902-2.001,17.443-3.529,26.563-5.035v-5.51c-5.551,1.012-9.119,1.507-15.065,3.013v-6.542l13.479-2.517v-7.533
	c-4.361,0.496-8.92,2.022-13.479,2.519c-0.596-2.022,0-4.025,0-6.048c4.559-1.485,10.505-2.001,15.462-3.507v-9.555
	c2.576-1.01,5.153,0,7.136,1.01l0.594,2.003v31.161c4.361-0.991,6.939-1.485,10.903-2.001v-18.098
	c5.549,5.035,10.704,10.049,15.66,15.085c4.559-0.516,7.929-1.507,12.488-2.519v-37.187c2.181,0.496,4.162,0.991,5.549,1.507v8.545
	c5.155-0.516,6.542-1.012,10.706-2.003v25.631c4.955-0.516,6.343-0.516,11.496-1.507v-26.662l9.516-2.497l0.594-10.565
	c1.983,1.01,2.38,1.526,4.955,3.013v24.144c0,3.509,2.974,7.038,5.948,7.533c4.559,1.012,8.127,0,12.686-0.494
	c3.371-0.516,12.091-1.012,14.471-6.542c4.162-5.532,3.568-19.11,2.974-36.692l9.117,4.023v33.185
	c4.559-0.516,9.514-1.012,14.075-2.538v-10.03c4.955,2.497,9.117,4.52,14.669,7.533c5.549-1.012,11.497-2.519,16.453-3.529
	l-14.471-9.555c4.559-3.013,7.533-7.533,7.533-12.566c-0.594-5.016-5.549-9.536-10.11-11.062c0-0.496,0-0.991,0.596-0.991
	c4.559,1.507,9.911,2.001,15.065,4.023c4.559,3.509,8.523,7.533,12.488,12.072v16.077c6.145-1.012,9.514-1.508,14.669-2.519v-15.581
	c5.549-10.049,11.497-20.615,18.038-30.17c9.516,2.519,18.039,7.038,27.159,10.051c4.955,17.602,8.127,35.7,13.082,53.798
	c0,1.507-1.587,1.012-2.577,1.012l-34.69-14.075c-5.946-2.022-10.507,0.494-18.038,1.507l-274.546,50.765
	c0,3.509-0.395,4.52-0.395,7.552c2.378,2.003,7.533,1.487,7.533,6.522c0,16.076,0,26.147,0.395,45.732l20.22-2.003
	c0.991-3.509,0-7.533,0.397-11.556c4.162-0.496,8.523-1.012,12.686-1.506c6.542-1.012,12.488-1.507,19.03-3.013v-14.571
	c-4.955,0-9.514,1.487-14.073,1.487c-5.948,1.507-11.497,1.507-17.643,2.519v-11.062c11.101-2.497,22.598-3.509,34.293-6.026
	v-17.088l0.397-0.494c6.145,2.001,11.695,3.508,17.643,5.014c1.585,0.496,0.594,2.003,0.594,2.519
	c-8.723,7.533-14.669,19.089-10.704,30.17c2.577,8.027,10.704,13.559,18.237,15.579c24.976-3.527,49.161-6.046,73.74-10.565
	c7.533-4.52,14.075-12.566,14.669-22.121c0-12.052-10.507-21.607-20.22-26.641l-19.028-6.522c4.955-1.032,9.117-1.526,13.676-2.538
	c10.903-2.497,15.065,3.529,22.598,7.554c10.903,6.024,22.004,11.556,32.114,18.612l0.594,0.496
	c-9.713,9.555-21.211,19.108-30.725,29.14l0.991,0.514c10.507-1.01,22.002-2.517,32.708-4.52l16.056-14.589
	c5.549,2.022,13.082,7.036,18.633,10.049l34.094-5.014l-34.69-22.123l45.79-41.726l43.215,14.569
	c2.972,10.565,4.559,22.143,8.127,32.688c0.991,3.508,1.387,8.047,3.965,10.565c1.982,0.991,5.549,0,4.955-3.033L463.48,34.881
	h91.581v331.773c-34.293-2.022-49.954-3.013-55.306-3.509v-51.797c-1.982-8.543-19.624-10.546-20.615,3.529
	c-11.101-4.023-22.202-7.533-33.302-12.072c-6.542-2.517-13.082-6.522-20.021-5.53l-56.891,7.552
	c-62.839,8.027-124.09,15.065-186.928,23.628c-14.669,2.003-29.14,2.003-43.213,6.026c-10.507,4.023-21.211,14.569-20.617,26.641
	c0,8.545,3.965,16.592,11.101,22.123c0.397,0.991-0.594,1.507-0.991,1.507l-22.201,3.013v-56.813
	c-2.577-4.004-7.136-2.497-10.507-3.508c-2.576,1.01-7.136,0.495-8.127,4.023V390.779z M555.061,416.926H33.128v-12.568
	l116.16-17.088c-9.514-3.529-22.002-9.059-24.183-21.627v-5.034c0.991-8.545,8.127-16.572,16.056-20.101
	c7.136-3.013,14.669-2.517,22.796-3.509c3.965,0.496,7.929,0.496,11.894,0.993l379.209,38.217V416.926z"/>
</svg>
