<?xml version="1.0" encoding="utf-8"?>
<!-- Generator: Adobe Illustrator 22.0.1, SVG Export Plug-In . SVG Version: 6.00 Build 0)  -->
<svg version="1.1"
	 id="svg3737" xmlns:cc="http://creativecommons.org/ns#" xmlns:dc="http://purl.org/dc/elements/1.1/" xmlns:rdf="http://www.w3.org/1999/02/22-rdf-syntax-ns#" xmlns:svg="http://www.w3.org/2000/svg"
	 xmlns="http://www.w3.org/2000/svg" xmlns:xlink="http://www.w3.org/1999/xlink" x="0px" y="0px" viewBox="0 0 300 151.399"
	 enable-background="new 0 0 300 151.399" xml:space="preserve">
<g id="layer1" transform="translate(-371.00262,-585.66723)">
	<g id="g3512" transform="matrix(3.1341529,0,0,-3.1341529,229.85552,3103.7082)">
		<g>
			<defs>
				<rect id="SVGID_1_" x="-642.766" y="-889.746" width="1887.895" height="2638.612"/>
			</defs>
			<clipPath id="SVGID_2_">
				<use xlink:href="#SVGID_1_"  overflow="visible"/>
			</clipPath>
			<g id="g3514" clip-path="url(#SVGID_2_)">
				<g id="g3596" transform="translate(67.8135,773.9242)">
					<path id="path3598" fill="#FFFFFF" d="M-1.914,10.848h0.95c1.065,0,2.276-0.114,2.276-1.39c0-1.197-1.177-1.363-2.309-1.363
						h-0.917V10.848z M-5.002,5.878h4.89c2.076,0,4.516,0.591,4.516,3.393c0,1.428-0.796,2.27-2.341,2.585v0.036
						c1.294,0.438,2.043,1.258,2.043,2.739c0,2.017-1.613,2.972-3.77,2.972h-5.338C-5.002,17.603-5.002,5.878-5.002,5.878z
						 M-1.914,15.388h0.898c1.036,0,2.03-0.102,2.03-1.181c0-0.986-1.048-1.24-2.06-1.24h-0.868V15.388z"/>
				</g>
			</g>
		</g>
	</g>
	<g id="g3600" transform="matrix(3.1341529,0,0,-3.1341529,485.67009,678.90127)">
		<path id="path3602" fill="#FFFFFF" d="M-1.914,10.848h-2.91l1.5,4.586h0.031L-1.914,10.848z M-9.595,6.13h3.144l0.917,2.503h4.35
			l0.866-2.503h3.391l-4.471,11.725H-5.19C-5.19,17.855-9.595,6.13-9.595,6.13z"/>
	</g>
	<g id="g3604" transform="matrix(3.1341529,0,0,-3.1341529,503.21133,656.93964)">
		<path id="path3606" fill="#FFFFFF" d="M-1.914,10.848H2.03l3.926-7.963h0.03L5.94,10.848h2.826V-0.877H4.925L0.861,7.137H0.832
			l0.094-8.014h-2.84L-1.914,10.848z"/>
	</g>
	<g id="g3608" transform="matrix(3.1341529,0,0,-3.1341529,229.85552,3103.7082)">
		<g>
			<defs>
				<rect id="SVGID_3_" x="-642.766" y="-889.746" width="1887.895" height="2638.612"/>
			</defs>
			<clipPath id="SVGID_4_">
				<use xlink:href="#SVGID_3_"  overflow="visible"/>
			</clipPath>
			<g id="g3610" clip-path="url(#SVGID_4_)">
				<g id="g3616" transform="translate(102.7516,778.3622)">
					<path id="path3618" fill="#FFFFFF" d="M-1.914,10.848h1.199c2.259,0,3.605-1.209,3.605-3.545c0-2.337-1.296-3.55-3.605-3.55
						l-1.199,0V10.848z M-5.008,1.44h4.226c3.956,0,6.864,1.53,6.864,5.911c0,4.54-2.824,5.814-6.864,5.814h-4.226
						C-5.008,13.165-5.008,1.44-5.008,1.44z"/>
				</g>
			</g>
		</g>
	</g>
	<g id="g3620" transform="matrix(3.1341529,0,0,-3.1341529,598.86098,678.90127)">
		<path id="path3622" fill="#FFFFFF" d="M-1.914,10.848h-2.915l1.499,4.586h0.032L-1.914,10.848z M-9.601,6.13h3.143l0.914,2.503
			h4.358l0.862-2.503H3.07l-4.471,11.725h-3.794C-5.195,17.855-9.601,6.13-9.601,6.13z"/>
	</g>
	<path id="path3624" fill="#FFFFFF" d="M609.971,622.941h9.697v36.748h-9.697V622.941z"/>
	<g id="g3626" transform="matrix(3.1341529,0,0,-3.1341529,432.71452,701.68561)">
		<path id="path3628" fill="#FFFFFF" d="M-1.914,10.848h3.978l3.963-7.965h0.04l-0.054,7.965h2.855V-0.877H4.986L0.89,7.134H0.858
			l0.101-8.011h-2.873L-1.914,10.848z"/>
	</g>
	<g id="g3630" transform="matrix(3.1341529,0,0,-3.1341529,492.80781,723.64381)">
		<path id="path3632" fill="#FFFFFF" d="M-1.914,10.848h-2.94l1.509,4.588h0.032L-1.914,10.848z M-9.678,6.129h3.179l0.919,2.5
			h4.401l0.872-2.5h3.433l-4.522,11.725h-3.829L-9.678,6.129z"/>
	</g>
	<g id="g3634" transform="matrix(3.1341529,0,0,-3.1341529,510.55747,701.68561)">
		<path id="path3636" fill="#FFFFFF" d="M-1.914,10.848h4.926l2.033-7.795h0.032l2.151,7.795h4.735V-0.877H8.906l0.05,9.001H8.921
			L6.39-0.877H3.515L1.111,8.124H1.079l0.063-9.001h-3.056L-1.914,10.848z"/>
	</g>
	<g id="g3646" transform="matrix(3.1341529,0,0,-3.1341529,589.35321,737.60083)">
		<path id="path3648" fill="#FFFFFF" d="M-1.914,10.848c-0.894-0.214-1.884-0.471-3.482-0.471c-3.127,0-6.738,1.58-6.738,6.017
			c0,4.078,2.855,6.118,6.719,6.118c1.195,0,2.352-0.272,3.477-0.608l-0.251-2.535c-1.006,0.549-1.982,0.823-3.053,0.823
			c-2.219,0-3.665-1.615-3.665-3.798c0-2.305,1.626-3.701,3.913-3.701c1.024,0,2.066,0.273,2.923,0.607L-1.914,10.848z"/>
	</g>
	<g id="g3650" transform="matrix(3.1341529,0,0,-3.1341529,600.96808,720.06681)">
		<path id="path3652" fill="#FFFFFF" d="M-1.914,10.848c0,2.036,0.752,3.75,2.656,3.75c1.897,0,2.653-1.714,2.653-3.75
			c0-1.93-0.756-3.75-2.653-3.75C-1.162,7.098-1.914,8.918-1.914,10.848 M-5.144,10.848c0-3.729,2.047-6.065,5.886-6.065
			c3.824,0,5.876,2.336,5.876,6.065c0,3.761-2.015,6.07-5.876,6.07C-3.128,16.918-5.144,14.609-5.144,10.848"/>
	</g>
</g>
</svg>
