<?xml version="1.0" encoding="utf-8"?>
<!-- Generator: Adobe Illustrator 22.0.1, SVG Export Plug-In . SVG Version: 6.00 Build 0)  -->
<svg version="1.1"
	 id="svg11519" inkscape:version="0.91 r13725" sodipodi:docname="Disney.svg" xmlns:cc="http://creativecommons.org/ns#" xmlns:dc="http://purl.org/dc/elements/1.1/" xmlns:inkscape="http://www.inkscape.org/namespaces/inkscape" xmlns:rdf="http://www.w3.org/1999/02/22-rdf-syntax-ns#" xmlns:sodipodi="http://sodipodi.sourceforge.net/DTD/sodipodi-0.dtd" xmlns:svg="http://www.w3.org/2000/svg"
	 xmlns="http://www.w3.org/2000/svg" xmlns:xlink="http://www.w3.org/1999/xlink" x="0px" y="0px" viewBox="0 0 2148 413.752"
	 enable-background="new 0 0 2148 413.752" xml:space="preserve">
<sodipodi:namedview  bordercolor="#666666" borderopacity="1" gridtolerance="10" guidetolerance="10" id="namedview4708" inkscape:current-layer="svg11519" inkscape:cx="542.65617" inkscape:cy="114.78412" inkscape:pageopacity="0" inkscape:pageshadow="2" inkscape:window-height="705" inkscape:window-maximized="1" inkscape:window-width="1366" inkscape:window-x="-8" inkscape:window-y="-8" inkscape:zoom="0.35355339" objecttolerance="10" pagecolor="#ffffff" showgrid="false">
	</sodipodi:namedview>
<path id="path11521" inkscape:connector-curvature="0" fill="#FFFFFF" d="M1438.239,179.928
	c-16.904,3.901-61.547,6.068-61.547,6.068l-5.49,17.626c0,0,22.105-1.878,38.286-0.289c0,0,5.201-0.433,5.779,5.779
	c0.289,6.357-0.433,13.003-0.433,13.003s-0.433,3.901-5.779,4.912c-6.212,1.011-48.11,2.889-48.11,2.889l-6.79,22.827
	c0,0-2.456,5.201,3.178,3.756c5.201-1.445,49.122-9.824,54.901-8.669c6.068,1.445,13.003,9.824,10.98,17.337
	c-2.312,9.102-46.232,37.13-72.816,35.252c0,0-14.014,0.867-25.717-18.059c-11.269-18.059,3.901-52.011,3.901-52.011
	s-6.79-15.892-1.734-21.671c0,0,2.89-2.456,11.558-3.178l10.836-22.249c0,0-12.28,0.722-19.504-8.235
	c-6.646-8.669-7.224-12.425-2.023-14.736c5.49-2.889,56.345-11.991,91.308-10.836c0,0,12.28-1.445,23.116,19.793
	c0,0,4.912,8.669-3.756,10.691 M1306.478,265.458c-4.334,10.547-16.326,21.671-30.773,14.881
	c-14.736-6.935-37.997-54.323-37.997-54.323s-8.668-17.626-10.402-17.048c0,0-1.878-3.467-2.889,15.892
	c-1.445,19.215,0.289,56.634-7.657,62.558c-7.224,5.779-15.892,3.323-20.804-3.467c-4.045-6.79-5.779-23.116-3.467-51.578
	c2.601-28.462,9.102-58.801,17.337-68.192c8.668-9.535,15.603-2.601,18.204,0c0,0,11.125,10.113,29.906,40.02l3.178,5.49
	c0,0,17.048,28.462,18.782,28.317c0,0,1.445,1.445,2.601,0.289c1.734-0.433,1.156-9.68,1.156-9.68s-3.178-30.773-19.071-82.784
	c0,0-2.312-6.646-0.722-13.003c1.445-5.779,7.657-2.889,7.657-2.889s23.983,11.558,35.685,50.566
	c11.558,39.008,3.756,74.405-0.578,84.951 M1188.875,165.336c-2.312,4.045-3.323,9.68-13.292,11.269c0,0-96.798,6.79-101.566,13.581
	c0,0-3.178,4.045,2.023,5.057c5.49,1.156,27.45,4.045,37.853,4.623c11.269,0,49.122,0.289,62.991,17.337
	c0,0,7.946,8.091,7.657,26.439c-0.289,18.782-3.612,25.428-10.98,32.218c-7.657,6.357-73.249,35.83-115.58-9.246
	c0,0-19.36-21.671,6.79-38.141c0,0,18.782-11.558,66.892,1.878c0,0,14.448,5.201,13.87,10.547
	c-0.867,5.779-11.991,11.558-28.173,11.269c-15.603-0.433-27.161-7.946-24.85-6.646c2.167,0.722-16.904-9.246-22.827-2.456
	c-5.779,6.357-4.334,10.113,1.445,14.014c14.448,8.38,71.226,5.346,88.13-13.581c0,0,6.79-7.657-3.467-13.87
	c-10.113-5.779-39.586-9.391-51-9.824c-10.836-0.578-51.433,0-57.501-10.547c0,0-5.779-7.513,0.578-28.028
	c6.646-21.671,53.889-30.051,74.405-31.785c0,0,56.345-2.312,66.892,9.246c0,0,1.445,2.601-0.289,6.501 M1029.085,292.33
	c-6.79,5.057-21.238,2.89-25.428-2.89c-4.045-5.057-5.49-24.994-4.768-56.345c1.011-32.073,1.445-71.371,8.669-77.728
	c7.224-6.212,11.558-0.722,14.447,3.467c2.89,4.334,6.646,9.102,7.224,19.071c0.867,10.113,3.323,62.124,3.323,62.124
	s3.178,47.388-3.323,52.3 M1043.533,123.294c-19.938,6.79-33.518,4.623-45.076-0.433c-5.057,9.102-8.091,11.847-11.847,12.425
	c-5.779,0.578-10.836-8.669-11.558-11.558c-1.156-2.167-3.901-6.068-0.578-14.881c-11.269-10.113-12.136-23.694-10.113-32.796
	c2.601-10.691,21.671-50.855,79.461-55.623c0,0,28.317-2.023,33.229,13.003h0.867c0,0,27.45,0,26.872,24.561
	c0,24.561-30.34,55.19-61.258,65.736 M1069.249,53.368c-18.204,2.89-46.232,27.161-59.668,47.243
	c20.66,3.756,56.779,2.312,72.96-30.34C1082.541,70.272,1090.198,49.756,1069.249,53.368 M989.355,69.26
	c-5.779,9.391-6.068,15.025-3.323,18.782c6.79-10.113,18.782-26.006,36.841-38.43C1009.003,51.056,997.301,56.835,989.355,69.26
	 M1481.582,291.319c-13.292,32.651-24.561,65.736-31.062,115.291c0,0-1.445,9.68-9.391,6.501
	c-7.946-2.889-20.949-15.892-23.838-34.241c-2.89-23.983,7.802-64.436,29.617-110.957c-6.357-10.113-10.836-25.139-7.224-46.232
	c0,0,5.779-39.008,44.787-74.26c0,0,4.623-3.901,7.224-2.601c3.178,1.445,1.878,13.87-0.722,20.227
	c-2.312,6.068-19.649,36.119-19.649,36.119s-10.836,20.515-7.802,36.552c20.516-31.496,67.181-95.354,96.076-75.127
	c18.348,13.003,18.348,54.901,4.623,79.172c-10.836,19.215-41.464,58.946-82.351,49.699 M1541.972,193.22
	c-10.691,11.558-29.762,33.518-44.787,63.28c15.892-1.734,31.351-10.547,36.119-15.025c7.657-6.79,25.283-25.139,22.538-49.411
	C1555.842,192.064,1554.108,179.35,1541.972,193.22 M894.723,308.367c-51.144,15.603-99.399,8.38-125.693,1.445
	c-0.722,10.691-1.878,15.17-3.612,16.904c-2.023,2.312-18.782,11.847-28.028-1.734c-4.045-6.501-6.068-18.204-7.224-28.895
	c-59.235-26.872-86.685-66.459-87.552-67.903c-1.445-1.445-14.881-15.459-1.445-32.796c12.569-15.603,54.178-31.351,91.453-37.564
	c1.445-31.785,4.912-56.345,9.391-67.181c5.346-13.003,12.136-1.445,18.204,7.224c4.912,6.501,7.946,34.385,8.235,56.634
	c24.272-1.156,39.008,0.578,66.025,5.779c35.541,6.068,59.235,24.272,57.357,44.787c-1.734,20.227-20.227,28.606-27.45,29.184
	c-7.224,0.578-18.782-4.768-18.782-4.768c-8.091-3.756-0.722-7.224,8.668-11.269c10.402-5.057,8.091-10.113,8.091-10.113
	c-3.756-11.558-49.844-19.215-95.643-19.215c0,25.283,1.011,67.181,1.734,91.597c32.073,6.068,56.056,4.768,56.056,4.768
	s117.025-3.323,120.348-78.017c3.612-74.838-117.025-146.498-205.877-169.036c-88.708-23.26-138.985-6.79-143.319-4.623
	c-4.768,2.312-0.433,3.178-0.433,3.178s4.768,0.722,13.436,3.612s1.734,7.224,1.734,7.224c-15.17,5.201-32.073,2.167-35.396-4.768
	c-3.323-6.79,2.167-13.003,8.669-22.105c6.068-9.391,13.003-9.102,13.003-9.102c109.801-38.286,243.874,30.34,243.874,30.34
	c125.404,63.28,146.787,137.685,144.475,166.58c-2.023,28.462-13.003,76.572-90.297,99.977 M653.45,205.067
	c-12.425,5.779-3.756,15.025-3.756,15.025c23.405,24.994,52.011,40.742,79.461,50.566c3.178-43.343,2.889-58.801,2.889-80.617
	C689.569,192.931,665.008,199.866,653.45,205.067"/>
</svg>
