<?xml version="1.0" encoding="utf-8"?>
<!-- Generator: Adobe Illustrator 22.0.1, SVG Export Plug-In . SVG Version: 6.00 Build 0)  -->
<svg version="1.1"
	 id="Layer_1" inkscape:version="0.48.4 r9939" sodipodi:docname="europa-corp.svg" xmlns:cc="http://creativecommons.org/ns#" xmlns:dc="http://purl.org/dc/elements/1.1/" xmlns:inkscape="http://www.inkscape.org/namespaces/inkscape" xmlns:rdf="http://www.w3.org/1999/02/22-rdf-syntax-ns#" xmlns:sodipodi="http://sodipodi.sourceforge.net/DTD/sodipodi-0.dtd" xmlns:svg="http://www.w3.org/2000/svg"
	 xmlns="http://www.w3.org/2000/svg" xmlns:xlink="http://www.w3.org/1999/xlink" x="0px" y="0px" viewBox="0 0 160.474 84.57"
	 enable-background="new 0 0 160.474 84.57" xml:space="preserve">
<sodipodi:namedview  bordercolor="#666666" borderopacity="1" fit-margin-bottom="1" fit-margin-left="1" fit-margin-right="1" fit-margin-top="1" gridtolerance="10" guidetolerance="10" id="namedview63" inkscape:current-layer="Layer_1" inkscape:cx="61.546225" inkscape:cy="84.567009" inkscape:pageopacity="0" inkscape:pageshadow="2" inkscape:window-height="1017" inkscape:window-maximized="1" inkscape:window-width="1920" inkscape:window-x="-8" inkscape:window-y="-8" inkscape:zoom="1.6856283" objecttolerance="10" pagecolor="#ffffff" showgrid="false">
	</sodipodi:namedview>
<path id="path7" inkscape:connector-curvature="0" fill="#FFFFFF" d="M117.47,6.918c1.925-1.457,4.943-2.233,7.891-2.454
	C122.358,4.172,118.276,4.922,117.47,6.918L117.47,6.918z M119.997,5.948c1.446-0.256,2.892-0.476,4.357-0.531
	c1.464-0.055,2.893-0.183,4.32-0.512c-1.913,0.003-3.789-0.126-5.804,0.128C121.16,5.249,120.616,5.628,119.997,5.948
	C119.997,5.948,119.997,5.948,119.997,5.948z M121.828,6.406c2.142-0.878,5.949-0.458,6.719-1.117
	c-0.086,0.184-0.171,0.367-0.257,0.549C126.31,6.244,124.06,6.315,121.828,6.406C121.828,6.406,121.828,6.406,121.828,6.406z
	 M127.759,3.165c-1.844,0.004-4.061,0.284-6.225,0.75C123.664,3.957,125.74,3.717,127.759,3.165L127.759,3.165z M115.145,4.703
	c2.535-1.045,4.396-1.863,5.62-2.782C119.179,2.293,115.476,4.458,115.145,4.703L115.145,4.703z M116.043,3.934
	c-3.094,1.734-5.812,3.895-7.652,6.097c1.066-1.055,2.181-1.995,3.204-2.691c1.495-1.02,2.647-1.971,3.551-2.636
	C115.432,4.401,115.786,4.115,116.043,3.934C116.043,3.934,116.043,3.934,116.043,3.934z M107.841,14.571
	c0.472-0.803,0.99-1.613,1.685-2.453c1.527-1.564,3.082-3.118,4.833-4.613c0.308-0.182,0.617-0.337,0.879-0.348
	C112.566,9.526,110.198,12.046,107.841,14.571C107.841,14.571,107.841,14.571,107.841,14.571z M114.431,6.223
	c-0.896,0.33-1.821,0.9-2.636,1.593c-0.813,0.691-1.566,1.542-2.325,2.49c-0.66,0.82-1.378,1.203-2.215,2.636
	c-0.54,0.923-1.118,1.555-1.776,2.398c-0.468,0.599-1.1,1.137-1.538,1.757c-0.43,0.609-0.823,1.245-1.227,1.813
	c0.77-0.799,1.41-1.599,2.179-2.398c0.797-0.861,1.454-1.847,2.069-2.819c0.744-0.976,1.488-1.953,2.233-2.929
	C110.913,8.648,112.699,7.395,114.431,6.223C114.431,6.223,114.431,6.223,114.431,6.223z M122.468,8.731
	c-1.63,0.75-3.497,1.592-5.126,2.215C118.689,10.858,121.041,10.232,122.468,8.731L122.468,8.731z M123.347,6.589
	c-2.796,0.977-5.887,2.287-8.422,3.588C117.004,8.477,121.263,6.821,123.347,6.589L123.347,6.589z M110.44,14.332
	c2.046-1.748,3.236-2.282,4.687-3.186c-1.244,0.665-2.489,1.331-3.734,1.996C110.957,13.537,110.666,13.933,110.44,14.332
	C110.44,14.332,110.44,14.332,110.44,14.332z M105.955,16.511c0.861-1,1.564-2.029,2.271-3.057c-0.734,0.743-1.455,1.492-2.105,2.27
	c-0.573,0.726-1.147,1.452-1.721,2.179C104.926,17.464,105.462,17.049,105.955,16.511C105.955,16.511,105.955,16.511,105.955,16.511
	z M111.026,15.138c2.685-1.963,3.646-2.215,4.778-2.636c-1.993,0.491-4.101,1.314-6.737,3.441c-0.814,0.658-1.647,1.294-2.471,1.94
	C107.987,16.96,109.259,15.846,111.026,15.138L111.026,15.138z M117.873,14.149c-0.53-0.274-0.834-0.358-1.849-0.22
	c-0.536,0.073-1.222,0.443-1.702,0.806c-0.8,0.526-1.51,1.145-2.436,1.501c-0.784,0.191-1.253,0.652-1.757,1.062
	c0.457-0.403,0.656-0.089,0.22,0.312c-0.834,0.764-1.756,1.296-2.746,1.574c-0.396,0.24-0.262,0.583,0.201,0.293
	c1.006-0.577,2.021-1.136,3.332-1.703c1.354-0.543,2.709-1.104,4.064-1.647c0.563-0.151,1.084-0.467,1.574-0.897
	C117.141,14.869,117.507,14.51,117.873,14.149C117.873,14.149,117.873,14.149,117.873,14.149z M116.152,13.38
	c-3.185,1.799-6.368,3.741-9.482,5.657c0.655-0.831,1.637-1.549,2.893-2.472c1.031-0.758,2.146-0.937,3.094-1.556
	C114.225,13.986,115.273,13.582,116.152,13.38L116.152,13.38z M114.45,19.696c-1.501,0.226-3.057,0.275-4.577,0.312
	c1.969-0.881,3.959-1.907,5.913-2.911c-0.563,0.51-1.185,0.969-1.592,1.611c-0.133,0.208-0.272,0.376,0.072,0.385
	c0.275,0.006,0.55-0.049,0.824-0.074C114.877,19.245,114.664,19.471,114.45,19.696C114.45,19.696,114.45,19.696,114.45,19.696z
	 M108.079,20.008c0.274,0,0.549,0,0.824,0c2.288-1.114,4.633-2.257,6.719-3.204c-0.113-0.146-0.259-0.227-0.495-0.183
	C112.792,17.777,110.444,18.91,108.079,20.008C108.079,20.008,108.079,20.008,108.079,20.008z M112.271,21.125
	c-0.131,0.215-0.29,0.358-0.714,0.366c-0.976-0.051-1.942-0.215-2.874-0.183c-0.531,0.019-1.175-0.03-1.666,0
	c0.247-0.37,0.995-0.708,1.794-0.604C109.986,20.855,111.088,21.057,112.271,21.125C112.271,21.125,112.271,21.125,112.271,21.125z
	 M107.896,20.41c-0.572,0.196-1.068,0.455-1.428,0.824c0.229-0.024-0.432,0.058-0.285-0.181c0.14-0.228,0.406-0.362,0.693-0.534
	c0.125-0.076,0.176-0.091,0.32-0.095c0.059,0,0.116-0.002,0.175-0.004C107.546,20.417,107.721,20.413,107.896,20.41L107.896,20.41z
	 M102.074,23.139c0,0.359,0,0.72,0,1.08c0.434-0.928,2.077-0.833,3.076-1.593c0.227-0.173,0.545-0.301,1.024-0.293
	c0.764,0.023,1.478-0.057,2.197-0.127c-0.58,0.119-1.923,0.393-3.131,0.769c-0.768,0.239-2.582,1.282-3.13,1.373
	C101.544,24.529,101.781,23.119,102.074,23.139C102.074,23.139,102.074,23.139,102.074,23.139z M102.166,20.776l0.019,0.916
	l-0.293,0.237l-0.019-0.824L102.166,20.776L102.166,20.776z M105.736,24.401c1.42-0.006,2.286-0.282,2.874-0.696
	c0.64-0.354,1.507-0.533,2.563-0.567c0.632,0.061,0.683-0.206,0.641-0.422c-0.092-0.474-1.545-0.173-2.196,0.092
	c-0.675,0.273-1.264,0.677-1.978,0.842C106.973,23.805,106.38,24.171,105.736,24.401C105.736,24.401,105.736,24.401,105.736,24.401z
	 M103.008,24.694c0.275-0.018,0.293,0,0.567-0.018c0.165-0.238,2.396-1.263,4.248-1.574c1.629-0.275,2.916-0.736,2.471-1.025
	C109.653,22.607,104.857,23.523,103.008,24.694C103.008,24.694,103.008,24.694,103.008,24.694z M101.983,25.28
	c0.071,0.035-0.101-0.013-0.33-0.073c-0.069,0.198-0.094,0.406-0.036,0.732c0.115,0.006,0.231,0.067,0.348,0.073
	C101.97,25.768,101.977,25.524,101.983,25.28C101.983,25.28,101.983,25.28,101.983,25.28z M99.2,21.491
	c-1.065,1.354-2.116,3.098-3.186,4.961c-0.187,0.266,0.312,0.476,0.385,0.366c0.789-1.291,1.507-2.54,2.38-3.771
	C98.92,22.528,99.059,22.009,99.2,21.491L99.2,21.491z M95.392,26.177c0.212,0.061,0.423,0.029,0.586-0.238
	c1.182-1.933,2.381-3.773,3.588-5.62C98.134,22.02,96.125,24.529,95.392,26.177C95.392,26.177,95.392,26.177,95.392,26.177z
	 M99.603,19.861c-1.443,2.093-2.917,4.139-4.412,6.151l-0.146-0.091c1.387-2.256,2.89-4.395,4.595-6.353L99.603,19.861
	C99.603,19.861,99.603,19.861,99.603,19.861z"/>
<path id="path9" inkscape:connector-curvature="0" fill="#FFFFFF" d="M56.897,18.691c2.228,0.28,4.564,0.648,6.458,0.658
	c-0.652-0.061-2.58-0.74-4.375-0.732c-0.42,0.001-1.062-0.037-1.344-0.133c-0.918-0.313-1.971-0.346-2.849-0.142
	c-0.792,0.184-1.465,0.15-2.471,0.147c0.3,0.214,0.953,0.586,2.526,0.219C55.385,18.581,56.177,18.547,56.897,18.691
	C56.897,18.691,56.897,18.691,56.897,18.691z M64.362,17.193c0.769,0.343,1.408,0.618,1.684,0.874
	c0.528,0.489,1.483,0.989,2.005,1.341c0.148,0.1,0.29,0.272,0.448,0.398c1.818,2.085,3.727,3.805,5.804,4.778
	c1.279,0.599,2.429,1.333,2.929,2.068c0.429,0.479,0.074,0.512,2.673,2.05c0.791,0.541,1.849,1.391,2.435,1.94
	c1.006,0.976,1.464,1.611,2.187,1.945c-0.301-0.224-0.481-0.553-0.716-0.823c-0.557-0.417-0.97-0.86-1.325-1.305
	c-1.739-1.769-3.26-3.073-4.646-4.124c-1.695-1.007-3.312-2.077-4.735-3.303c-1.577-1.229-3.124-2.684-4.624-3.877
	c-0.457-0.615-2.83-1.86-3.148-1.988c-2.249-0.903-3.47-1.194-6.376-1.661C60.777,16.025,62.582,16.582,64.362,17.193L64.362,17.193
	L64.362,17.193z M56.03,16.18l0.569-0.346c1.214,0.041,2.613,0.189,3.131,0.732C58.553,16.378,57.366,16.224,56.03,16.18
	L56.03,16.18z M86.172,32.29l-1.931-1.32c-0.575-0.455-1.114-0.961-1.646-1.589c-0.794-0.939-1.596-1.825-2.582-2.454
	c-1.641-1.171-3.405-2.307-4.924-3.515c0.238-0.054,4.32,2.582,4.87,2.948c0.832,0.517,1.82,1.449,2.435,2.271
	c0.879,1.171,2.27,1.775,4.229,3.569l0.513-0.677c-1.527-1.583-3.07-3.134-4.727-4.455c-2.889-1.77-6.712-3.964-9.75-5.873
	c-4.252-2.67-5.039-3.788-6.086-3.735c0.83,0.337,1.407,0.935,2.127,1.448c3.68,2.746,6.462,5.291,9.684,7.396
	c1.337,0.823,2.169,1.923,3.241,2.947l1.684,1.611c1.428,1.364,1.891,1.373,2.673,1.867l0.312-0.366
	C86.253,32.34,86.213,32.314,86.172,32.29L86.172,32.29L86.172,32.29z M77.176,27.294c0.384,0.513,1.841,1.477,2.307,1.813
	c0.667,0.48,2.04,1.408,2.765,2.087c-1.647-0.842-3.412-1.818-5.071-2.879c-0.639-0.408-1.328-0.806-2.014-1.075
	c-1.179-0.462-2.4-0.949-3.601-1.408c1.686,0.326,3.515,0.631,4.736,1.5c-0.27-0.178-0.815-0.503-1.097-0.747
	c0.145,0.033,0.255,0.051,0.419,0.087c-0.128-0.183-0.183-0.183-0.311-0.274C75.873,26.585,76.711,26.978,77.176,27.294
	L77.176,27.294z M67.795,19.642c0.923,0.807,2.004,1.942,3.267,3.13c-1.766-1.167-3.446-2.371-4.873-3.688
	C66.531,19.012,67.011,19.125,67.795,19.642L67.795,19.642z M65.033,18.505c-0.868-0.548-1.774-0.966-2.838-0.841
	c0.917,0.346,2.047,0.932,2.79,1.575c4.849,4.316,7.693,5.316,10.856,6.81c-3.023-1.728-5.931-3.428-7.476-4.802
	C67.207,20.406,66.093,19.501,65.033,18.505L65.033,18.505z M54.915,16.474c-0.854,0.305,5.557,0.45,7.03,0.659
	C60.242,16.749,56.489,16.437,54.915,16.474L54.915,16.474z M53.287,17.399c1.586-0.298,3.141-0.107,4.63,0.009
	c0.712,0.055,1.459,0.023,2.014,0.183c0.569,0.165,1.107,0.311,1.702,0.348c0.301,0.042,0.552,0.108,0.769,0.192
	c-0.348,0.045-5.492-0.504-8.22-0.376C53.78,17.775,53.011,17.756,53.287,17.399L53.287,17.399z M63.611,18.946
	c-0.22,0.201-2.051-0.44-3.259-0.586c-0.476-0.073-2.119-0.051-2.764-0.33c-0.188-0.081-0.472-0.137-0.789-0.168
	C58.851,17.903,62.732,18.342,63.611,18.946L63.611,18.946z M55.433,17.868c-0.47,0.052-1.047,0.115-1.489,0.236
	c-0.302,0.083-0.725,0.052-1.153,0.049C52.626,17.67,54.508,17.775,55.433,17.868L55.433,17.868z M69.672,23.552
	c-0.147-0.003-0.293-0.007-0.44-0.011c-0.821-0.655-2.089-1.497-4.156-2.673c-0.567-0.348-1.703-0.769-2.325-0.916
	c-0.833-0.199-1.778-0.511-2.586-0.709c0.993,0.014,1.835,0.143,3.025,0.362c0.537,0.099,1.345,0.467,1.831,0.769
	C66.614,21.366,68.122,22.492,69.672,23.552C69.672,23.552,69.672,23.552,69.672,23.552z M65.789,22.644
	c-0.695-0.312-1.546-0.56-2.197-0.842c-0.246-0.107-0.406-0.102-0.677-0.128c-0.727-0.071-1.564-0.136-2.38-0.073
	c-0.784,0.061-1.904-0.22-2.325-0.623c-0.457-0.409-1.153-1.044-1.52-1.19c-0.157-0.063-0.311-0.126-0.46-0.189
	c0.178-0.035,0.301-0.233,0.479-0.269c0.324,0.049,0.757,0.134,1.08,0.184C60.704,20.196,63.452,21.121,65.789,22.644
	C65.789,22.644,65.789,22.644,65.789,22.644z M58.846,19.553c-1.107-0.226-2.174-0.404-2.783-0.026
	c-0.384-0.167-0.733-0.336-1.021-0.508c0.787-0.22,1.822-0.1,2.673,0.183C58.018,19.302,58.412,19.423,58.846,19.553
	C58.846,19.553,58.846,19.553,58.846,19.553z M63.184,22.307c-0.712-0.224-2.414-0.131-2.499-0.139
	C60.59,22.443,63.281,22.388,63.184,22.307L63.184,22.307z M64.333,23.257c-0.491,0.045-1.655-0.012-2.425,0.155
	c-1.006,0.22-1.521,0.234-1.611-0.128c0.098-0.027,0.274-0.101,0.384-0.146c0.614-0.251,1.395-0.212,2.014-0.092
	C63.24,23.152,63.941,23.193,64.333,23.257C64.333,23.257,64.333,23.257,64.333,23.257z M61.451,23.687
	c0.997,0.076,1.982,0.039,2.984,0.311c0.379,0.103,2.441,0.734,3.661,0.678c-0.458-0.33-2.319-0.867-3.497-1.153
	c-0.756-0.122-1.574-0.11-2.307-0.147C61.984,23.373,61.709,23.573,61.451,23.687C61.451,23.687,61.451,23.687,61.451,23.687z
	 M75.088,28.189c-2.21-0.466-6.918-1.321-7.578-1.481c-0.522-0.127-4.313-1.018-4.925-0.934c-0.95,0.131-1.721-0.439-2.16-1.245
	c0.205,0.26,0.585,0.183,1.227,0.037c0.446-0.101,1.354,0.032,1.721,0.055c0.478,0.03,1.207,0.088,1.593,0.256
	c0.775,0.357,1.518,0.606,2.398,0.732c0.952,0.141,2.522,0.293,2.874,0.385C70.659,26.103,73.447,27.557,75.088,28.189
	C75.088,28.189,75.088,28.189,75.088,28.189z M69.652,27.935c-0.406,0.033-1.235,0.165-1.446,0.165
	c-0.513,0-0.658,0.166-0.769,0.293c-0.163,0.185-0.402,0.165-0.586,0.165h-1.52c-0.329,0-0.854-0.103-1.117-0.256
	c-0.424-0.248-0.936-0.476-1.374-0.792c-0.072-0.142,0.18-0.617,0.349-0.69c0.299-0.131,0.572,0.007,0.842,0.073
	C65.861,27.335,67.968,27.844,69.652,27.935L69.652,27.935L69.652,27.935z M68.083,29.377c0.214,0.004,0.462-0.133,0.654-0.252
	c0.299-0.186,1.036-0.273,1.835-0.294c0.326-0.008,0.731-0.042,1.057-0.018c0.494,0.037,0.773-0.002,1.263,0.037
	c0.401,0.032,1.059,0.17,1.482,0.329c0.309,0.116,0.597,0.24,0.916,0.073c0.12-0.063,0.458-0.003,0.916,0.11
	c0.786,0.194,1.552,0.444,2.269,0.84c-3.51-0.286-8.978-0.835-9.866-0.767C68.404,29.452,68.231,29.429,68.083,29.377L68.083,29.377
	z M79.611,30.443c1.41,0.805,2.872,1.407,4.138,2.124C83.071,32.512,80.728,31.559,79.611,30.443
	C79.611,30.443,79.611,30.443,79.611,30.443z M67.989,29.935c-0.259,0.489,0.4,0.379,0.583,0.379c0.843,0,4.975,0.444,5.204,0.425
	c-1.926,0.24-3.819,0.439-5.643,0.289c-0.661-0.055-1.713-0.458-2.33-1.025c0.002-0.246,0.405-0.512,1.433-0.37
	C67.272,29.947,67.748,29.93,67.989,29.935C67.989,29.935,67.989,29.935,67.989,29.935z M79.917,31.184
	c-2.493-0.269-5.92,0.883-7.931,1.109c0.201,0.034,0.445,0.113,0.76,0.255c0.92,0.413,1.428,0.896,3.68,0.348
	c1.556-0.384,3.405-0.787,4.833-0.842C80.691,31.834,80.234,31.541,79.917,31.184L79.917,31.184z M79.465,32.987
	c-0.366-0.164-1.048-0.177-1.556,0c-0.787,0.275-2.344,0.586-3.112,0.531c0.995,0.403,2.398,0.067,3.352-0.333
	C78.611,32.991,79.097,32.855,79.465,32.987C79.465,32.987,79.465,32.987,79.465,32.987z M81.515,33.763
	c-0.708,0.341-1.913,0.28-2.252,0.012c-0.326-0.258-0.769-0.293-1.19-0.037c0.539-0.539,1.423-0.275,2.043-0.081
	C80.571,33.8,81.044,33.858,81.515,33.763L81.515,33.763z M82.173,32.418c-0.48,0.008-0.95,0.148-1.481,0.512
	c-0.25-0.016-0.501-0.024-0.75-0.034C80.612,32.256,81.344,32.126,82.173,32.418L82.173,32.418z"/>
<path id="path11" inkscape:connector-curvature="0" fill="#FFFFFF" d="M87.173,60.521c0.645,1.689,2.164,2.751,2.38,5.309
	c-0.396-1.025-1.044-1.924-1.501-2.343C87.486,62.97,86.839,62.526,87.173,60.521L87.173,60.521z M83.2,37.857
	c0.291,0.005,0.465-0.115,0.586-0.293c-0.495,0.037-1.048-0.165-1.264-0.439c-0.223-0.283,0.262-1.168,1.245-2.197
	c-0.516,0.101-1.007,0.568-1.593,1.392c-0.055-0.367,0.22-1.023,0.622-1.355c1.646-1.355,2.62-1.507,3.479-1.3
	c0.475,0.115,0.747,0.064,0.83-0.09c0.222,0.066,0.242,0.218,0.231,0.383c0,0.219,0.257,0.219,0.312,0
	c0.019-0.201,0.477-0.47,0.695-0.714c0.22-0.33-0.329-0.531-0.586-0.238c0.119-0.211,0.192-0.419,0.202-0.623
	c0.136,0.048,0.261,0.034,0.329-0.128c0.124-0.294,0.171-0.571,0.403-0.97c0.074-0.128,0.004-0.216-0.056-0.275
	c0.086-0.069,0.126-0.152,0.184-0.202c0.083,0.033,0.011,0.253,0.146,0.238c0.522-0.06,0.437,0.099,0.055,0.494
	c-0.219,0.228-0.325,0.507-0.604,0.77c-0.252,0.237-0.125,0.313,0.157,0.266c0.063-0.01-0.047,0.356,0.045,0.429
	c0.097-0.141,0.183-0.293,0.293-0.421c0.15-0.177,0.701-0.29,1.098-0.33c-0.517,0.107-0.814,0.42-1.062,0.897
	c0.766-0.389,1.592-0.351,2.417-0.439c-0.722,0.607-2.01,1.913-2.087,2.673c-0.257,2.526-3.076,2.105-3.168,0.971
	c-0.048-0.603-0.201-0.714-0.311,0.128c-0.045,0.349-0.378,0.605-0.366,1.006c0.023,0.806,0.115,0.78,0.22,0.165
	c0.087-0.517,0.447-0.524,0.659-0.586c-0.204,0.484-0.318,0.968-0.129,1.556c0.081-0.342,0.22-0.769,0.385-0.952
	c0.085,0.742,0.312,1.354,0.787,1.592c-0.097,0.125,0.816,0.625,0.934,0.751c0.397,0.424,0.03,1.596-0.055,1.904
	c-0.017,0.061-0.312,1.226-0.037,1.043c0.229-0.152,0.013,0.317-0.055,0.659c-0.052,0.263-0.028,0.531-0.028,0.797
	c0.001,0.846-0.124,1.161-0.338,1.638c-0.414,0.793-0.877,1.528-1.409,2.179c1.292-1.838,0.871-4.585-0.494-5.821
	c0.366,1.043,0.329,2.728-0.331,4.976c-0.335,1.142-0.446,2.471-0.713,3.866c0.403-0.693,0.706-1.919,1.281-3.46
	c-0.235,1.297-0.476,2.673-0.586,4.156c0.422-1.245,0.738-2.576,1.337-3.79c-0.613,2.043-1.038,4.069-1.465,6.097
	c0.02-0.687-0.161-1.329-0.567-2.014c-2.523-4.259-2.233-6.17-1.373-7.25c-0.237-0.037-0.988,0.586-1.172,1.684
	c-0.036-0.842,0.15-2.033,0.879-3.148c0.623-1.08,0.678-2.417,0.604-5.053c0.245,0.002,0.428-0.077,0.549-0.238
	C83.806,38.227,83.373,38.117,83.2,37.857L83.2,37.857L83.2,37.857z M67.987,36.173c-0.11-0.055-0.22-0.165-0.275-0.274
	c-0.146,0.274-0.487,0.702-0.513,0.878c-0.007,0.053-0.054,0.191-0.073,0.256c-0.035,0.312,0.366,0.202,0.403-0.201
	c0.146-0.183,0.238-0.274,0.33-0.512C67.913,36.246,67.931,36.246,67.987,36.173L67.987,36.173z M83.987,60.503
	c0.128-0.293,0.183-0.806,0.22-1.263c0.05,0.497,0.146,0.976,0.366,1.409c-0.037,0.622-0.056,1.245-0.019,1.831
	c-0.123-0.284-0.196-0.559-0.22-0.824C84.206,61.271,84.088,60.886,83.987,60.503L83.987,60.503z M89.04,29.674
	c-0.048-0.867,0.131-1.536,0.53-2.014c0.151-0.18,0.018-0.361-0.164-0.384c-0.081-0.031-0.073,0.048,0.348,0.018
	c0.128,0,0.354-0.133,0.184-0.403c-0.085-0.132-0.22-0.238-0.422-0.238c0.11-0.183,0.366-0.22,0.55-0.128
	c0.122,0.018,0.226-0.073,0.348-0.055c0.012,0.128,0.054,0.247,0.042,0.323c-0.042,0.281,0.164,0.211,0.379-0.103
	c0.109-0.238,0.494-0.586,0.806-0.604c0.695,0.018,0.678-0.238,0.005-0.217c0.324-0.254,0.74-0.3,1.222-0.204
	c-0.293,0.201,0.147,0.565,0.458,0.677c0.128,0.047,0.329,0.128,0.549,0.33c0.227,0.208,0.476,0.146,0.117-0.132
	c-0.167-0.13-0.521-0.362-0.74-0.746l0.568,0.055c0.109,0.121,0.384,0.183,0.53,0.366c0.22,0.275,0.348,0.641,0.11,0.988
	c-0.279,0.409-0.274,0.279-0.439-0.018c-0.05-0.09-0.184-0.074-0.421-0.184c-0.216-0.1-0.349-0.293-0.531-0.476
	c-0.22-0.22-0.787-0.037-0.842,0.146c-0.696,0.476-0.971,0.714-1.025,0.86c-0.092,0.037-0.604-0.055-0.641,0.092
	c-0.033,0.116-0.116,0.135-0.202,0.146c-0.256,0.055-0.793,0.626-0.384,0.458c0.312-0.128,0,0.165,0,0.476
	c0.036,0.531,0.019,0.494-0.238,0.458c-0.366-0.073-0.018,0.604,0.22,0.604c0.257,0,0.258,0.148,0.366,0.256
	c0.22,0.11,0.146,0.312-0.384,0.201c-0.239-0.049-0.294,0.019-0.238,0.202c-0.25-0.243-0.511,0.052-0.275,0.256
	C89.168,30.388,89.076,30.04,89.04,29.674L89.04,29.674L89.04,29.674z M101.159,17.975c-0.293,0.202-0.384,0.631-0.385,1.098
	c-0.002,0.82,0.052-0.229-0.494-0.713c-0.066-0.126-0.156-0.24-0.293-0.33c-0.091-0.179-0.102-0.517,0.073-1.007
	c-0.057-0.047,0.205,0.21,0.477,0.073C100.377,17.323,100.856,18.169,101.159,17.975C101.159,17.975,101.159,17.975,101.159,17.975z
	 M101.91,15.193c-0.019,0.366-0.387,0.79-0.477,0.696c-0.032,0.423,0.107,1.208,0.146,1.647c0.166-0.236,0.602-0.924,0.531-1.355
	C102.024,15.928,101.932,15.327,101.91,15.193C101.91,15.193,101.91,15.193,101.91,15.193z M68.133,36.32
	c0.073,0.073,0.167,0.138,0.274,0.183c-0.08,0.085-0.123,0.152-0.201,0.238c-0.075-0.055-0.172-0.07-0.293-0.091
	C67.992,36.539,68.054,36.429,68.133,36.32C68.133,36.32,68.133,36.32,68.133,36.32z"/>
<path id="path13" inkscape:connector-curvature="0" fill="#FFFFFF" d="M89.076,33.5c-0.457-0.11-0.933,0.153-1.318,0.512
	c0.084,0.027,0.218,0.06,0.22,0.183c0.004,0.173-0.007,0.329,0,0.513C88.308,34.351,88.684,33.911,89.076,33.5L89.076,33.5z
	 M91.31,79.378c-0.349-0.055-0.445-0.749-0.477-0.824c-0.164-0.386-0.014-0.59-0.055-1.007c-0.046-0.47,0.066-1.026-0.157-1.521
	c-0.194-0.429-0.228-0.952-0.393-1.464c-0.731-2.276-2.39-5.08-3.408-7.244c-0.449-0.956-0.926-1.937-1.17-2.97
	c0.451-0.02,1.101,2.363,1.375,2.781c1.204,1.837,2.287,4.736,3.58,7.703c0.213,0.489-0.06,0.843,0.173,1.121
	c0.519,0.621,0.623,2.238,0.464,2.465C90.98,78.791,91.271,79.061,91.31,79.378C91.31,79.378,91.31,79.378,91.31,79.378z
	 M101.635,18.269c0.511-0.875,1.062-1.849,0.787-2.783C102.465,16.314,102.051,17.431,101.635,18.269L101.635,18.269z
	 M101.58,18.744c-0.008,2.113-0.033,3.793-0.183,5.785c-0.043,0.565-0.25,1.175-0.567,1.703c-0.808,1.339-1.583,2.407-2.893,3.35
	c-0.648,0.465-2.635,2.654-3.241,4.083c-1.391,2.691-3.036,5.443-4.558,7.524c-0.675,0.921-0.751,2.27-0.366,3.203
	c0.791,1.921,0.729,3.93,0.348,5.749c-0.61,2.909-1.533,5.753-2.472,8.476c-0.394,1.144-0.791,3.541,0.073,4.54
	c-0.546-0.179-1.419-2.377-0.457-5.144c0.953-2.747,1.877-4.994,2.324-7.928c0.271-1.771,0.44-3.528-0.036-5.089
	c-0.739-2.414-0.27-3.971,0.641-4.998c1.281-1.447,2.242-3.003,2.855-4.302c0.611-1.293,1.646-3.223,2.637-4.302
	c1.614-1.758,3.392-3.316,4.668-4.943c0.505-0.643,0.573-1.327,0.641-1.867C101.307,22.06,101.437,19.537,101.58,18.744
	C101.58,18.744,101.58,18.744,101.58,18.744z M91.767,78.938c0.185,0.19,0.368-0.1,0.293-0.274c0.109,0.183,0.385,0.091,0.274-0.275
	c0.291,0.097,0.348-0.141,0.257-0.402c0.164,0.092,0.348-0.184,0.201-0.439c0.049-0.522-0.277-1.099-0.385-1.647
	c0.092-0.604-0.225-0.673-0.311-1.025c-0.129-0.427-0.33-0.781-0.458-1.208c0.384,0.641,0.499,0.878,0.66,1.12
	c0.176,0.264,0.353,0.468,0.328,0.948c-0.036,0.714,0.494,1.465,0.312,1.85c0.061,0.423,0.04,0.529-0.184,0.622
	c0.073,0.33-0.018,0.513-0.256,0.513c0.027,0.332-0.072,0.484-0.312,0.384c-0.015,0.313-0.198,0.403-0.385,0.33
	c-0.055,0.165-0.421,0.274-0.493-0.055C91.42,79.506,91.932,79.378,91.767,78.938L91.767,78.938L91.767,78.938z M91.401,73.3
	c-0.604-1.648-1.568-4.111-1.428-4.43c0.44-1.001-0.641-4.449-1.776-5.236c0.349,0.641,1.617,2.842,1.389,4.924
	c-0.047,0.427-0.038,0.538,0.095,0.916C90.194,70.931,90.651,72.513,91.401,73.3C91.401,73.3,91.401,73.3,91.401,73.3z
	 M90.193,27.294c0.059-0.021,0.109,0.087,0.201,0.165c0.128,0.11,0.265,0.233,0.073,0.293
	C90.099,27.867,89.994,27.367,90.193,27.294C90.193,27.294,90.193,27.294,90.193,27.294z M89.424,30.681
	c0.275,0.274,0.48-0.02,0.275-0.256C89.463,30.152,89.168,30.425,89.424,30.681L89.424,30.681z M88.574,32.577
	c0.1-0.028,0.223,0.019,0.338,0.008c-0.11,0.128-0.201,0.293-0.293,0.421C88.527,32.987,88.636,32.585,88.574,32.577L88.574,32.577z
	 M92.28,32.072c-0.408,0.042-0.842-0.036-1.264,0.092c-0.168,0.051-0.659,0.019-1.007,0.091c-0.658,0.132-0.896,0.531-1.062,0.897
	c0.247-0.076,0.501-0.15,0.714-0.202c0.213-0.051,0.419-0.082,0.638-0.073C91.892,32.746,91.884,32.406,92.28,32.072
	C92.28,32.072,92.28,32.072,92.28,32.072z M92.261,28.265c-0.42,0.257-0.693,0.763-0.787,1.149
	c-0.055,0.223-0.274,0.224-0.421,0.004c-0.032-0.048-0.129,0.073-0.146,0.146c-0.016,0.061,0,0.257,0,0.385
	c-0.305,0.007-0.442-0.376-0.678-0.494c0.22-0.019,0.476-0.09,0.604-0.22c0.165-0.166,0.257-0.506,0.604-0.494
	c0.183,0.006,0.236-0.131,0.237-0.256c0.001-0.134-0.025-0.255,0.092-0.292C91.911,28.253,92.113,28.216,92.261,28.265
	C92.261,28.265,92.261,28.265,92.261,28.265z M93.415,26.745c0.178,0.135,0.424,0.146,0.421,0c-0.002-0.151-0.152-0.251-0.352-0.333
	C93.183,26.288,93.203,26.584,93.415,26.745L93.415,26.745z M91.127,27.239c-0.024,0.236-0.021,0.383,0.157,0.253
	c0.253-0.185,0.398-0.255,0.769-0.641c0.173-0.18,0.486-0.389,0.265-0.381C91.786,26.489,91.163,26.873,91.127,27.239
	C91.127,27.239,91.127,27.239,91.127,27.239z M87.52,32.53c0.09-0.187,0.094-0.356,0.014-0.504
	c-0.076-0.142-0.054-0.136,0.013-0.297l0.175-0.425c0.273-0.664,0.915-1.501,0.86-1.94c0-0.696,0.008-1.675,0.366-2.252
	c0.118-0.19,0.274-0.439-0.092-0.439c-0.237,0-0.222-0.165-0.036-0.33c0.164-0.146,0.22-0.329,0.567-0.293
	c0.264,0.027,0.569-0.026,0.622-0.274c0.059-0.273,0.292-0.382,0.642-0.348c0.085,0.008,0.202,0.099,0.384-0.055
	c0.086-0.073,0.161-0.098,0.312-0.092c0.018,0.001,0.095-0.037,0.146-0.055c0.229-0.08,0.672-0.17,1.116,0.037
	c0.162,0.076,0.285,0.05,0.531,0.037c0.483-0.026,0.769,0.33,0.678,0.549c0,0-0.345,0.064-0.568-0.055
	c-0.269-0.145-0.487-0.148-0.677-0.055c-0.172,0.084-0.377,0.072-0.581,0.052c-0.231-0.023-0.179-0.034-0.348,0.079
	c-0.124,0.082-0.307,0.013-0.481,0.07c-0.219,0.073-0.312,0.165-0.476,0.312c-0.242,0.214-0.347,0.341-0.622,0.274
	c-0.548-0.133-0.586,0.274-0.714,0.384c-0.092,0.146,0.055,0.366,0.055,0.366c0.186-0.041,0.318,0.217,0.164,0.384
	c-0.41,0.446-0.549,1.501-0.53,2.014c-0.116-0.031-0.146-0.128-0.257-0.202c-0.054,0.165-0.126,0.383-0.011,0.59
	c0.153,0.274,0.173,0.781-0.136,0.948c-0.377,0.204-0.598,0.658-0.604,0.916c-0.025,1.011-0.314,1.216-0.567,1.282
	c-0.278,0.071-0.217,0.151-0.36,0.368c-0.115,0.172-0.29,0.219-0.83,0.09c-1.313-0.313-2.508,0.567-3.479,1.3l0.403-0.641
	c-0.366-0.201-1.318,1.392-2.765,1.867c-0.736,0.242-1.417,0.671-1.954,1.111c-0.378,0.311-0.792,0.375-1.305,0.299
	c-1.977-0.292-4.595,0.201-6.572,0.659c-0.805,0.348-1.629,0.13-1.757-0.385c-0.103-0.167-0.299-0.289-0.568-0.439
	c-0.102-0.058-0.229-0.149-0.311-0.219c-0.238-0.202-0.183-0.531,0.183-0.348c0.202,0.128,0.366,0.201,0.458,0.256
	c0.188,0.114,0.415,0.171,0.549,0.202c0.476-0.006,0.871,0.222,1.153,0.458c0.254,0.212,0.549,0.074,0.916,0
	c1.661-0.511,3.442-0.933,5.858-0.86c0.604,0.018,0.764-0.207,0.934-0.348c0.677-0.567,1.883-1.213,3.167-1.629l0.988-0.55
	l1.52-0.952c0.46-0.263,1.022-0.423,1.886-0.201c0.561,0.081,0.986,0.034,1.189-0.22c0.159-0.197,0.184-0.312,0.522-0.344
	C87.382,32.672,87.484,32.603,87.52,32.53L87.52,32.53z M82.522,37.106c-0.224-0.397,0.49-1.334,1.245-2.179
	c-0.477,0.055-1.206,0.718-1.593,1.392c-1.134,0.658-2.292,1.381-3.662,1.793c-0.8,0.268-1.598,0.488-2.38,0.458
	c-1.646,0.087-3.283,0.098-4.906,0c0.486,0.141,2.282,0.392,4.815,0.257c1.248-0.211,2.224-0.07,6.17-2.179
	C82.302,36.832,82.357,36.996,82.522,37.106C82.522,37.106,82.522,37.106,82.522,37.106z M86.422,43.056
	c1.181,1.605,0.997,3.724,0.023,5.068c-0.042,0.058-0.078,0.112,0.021,0.108c0.112-0.005,0.218-0.012,0.321-0.046
	c0.073-0.023,0.073-0.023,0.03,0.091c-0.303,0.811-1.294,3.676-1.294,3.676c-0.256-0.165,0.396-4.332,0.916-5.565
	C86.989,45.125,86.719,44.257,86.422,43.056C86.422,43.056,86.422,43.056,86.422,43.056z M84.207,59.24
	c0.15-1.569,0.323-3.098,0.586-4.724c0.106-0.782,0.21-1.374-0.073-1.978c-1.19-2.092-1.851-3.556-2.271-4.869
	c-0.123-0.617-0.237-1.007-0.092-1.392c0.092-0.366,0.642-1.336,1.099-1.281c-1.379,1.934-0.04,4.592,1.428,7.213
	c0.511,0.895,0.642,1.777,0.403,2.838c-0.513,2.28-0.6,3.922-0.714,5.602C84.353,60.228,84.28,59.807,84.207,59.24
	C84.207,59.24,84.207,59.24,84.207,59.24z M85.287,63.927c-1.025-1.044-1.229-1.532-1.3-2.381c-0.019-0.219-3.278-10.27-3.332-13.07
	c-0.03-1.545,0.457-2.75,1.157-3.818c0.966-1.473,1.182-2.072,1.314-3.358c0.115-1.115,0.03-2.338,0.073-3.441
	c0.187,0.208,0.642,0.344,1.116,0.384c-0.082,0.155-0.266,0.234-0.549,0.238c0.034,1.057,0.075,1.833,0.019,2.875
	c-0.077,1.384-0.641,2.339-1.333,3.293c-1.969,2.711-1.143,5.588-0.391,8.572c0.648,2.576,1.499,5.941,2.272,8.437
	C84.371,62.169,84.81,63.267,85.287,63.927C85.287,63.927,85.287,63.927,85.287,63.927z M95.832,29.692
	c0.406-0.542,1.712-1.481,3.222-3.369c0.2-0.25,0.492-0.599,0.604-1.245c0.322-1.851,0.74-3.715,1.099-5.602
	c0.126-0.668-0.28-0.933-0.477-1.117c-0.121,1.719-0.476,3.68-1.062,5.986c-0.219,0.859-0.824,1.538-1.574,2.38
	c-0.516,0.578-0.972,1.268-1.739,1.721c-0.712,0.421-1.1,0.884-1.538,1.465c0.364,0.004,0.653,0.048,0.975,0.028
	C95.502,29.93,95.777,29.765,95.832,29.692C95.832,29.692,95.832,29.692,95.832,29.692z M100.537,17.097
	c-0.247,0.034,0.217,1.137,0.622,0.879c0.604-0.384,0.617-0.894,0.366-1.629c-0.15-0.441-0.098-0.888-0.146-1.355
	c-0.083-0.48-0.176-0.829-0.385-1.117c-0.201-0.384-0.439-0.165-0.293,0.11c0.257,0.456,0.293,0.915,0.275,1.428
	c0,0.36-0.019,0.739-0.019,1.099C100.976,16.863,100.836,17.058,100.537,17.097L100.537,17.097z M99.987,18.031
	c-0.066-0.275-0.04-0.636,0.073-1.007c-0.092-0.073-0.206-0.201-0.183-0.421c0.055-0.476-0.178-0.805-0.477-0.732
	c0.025,0.147,0.039,0.216,0.068,0.321c0.028,0.101,0.021,0.143,0.005,0.247c-0.043,0.274-0.052,0.616-0.017,0.894
	c0.026,0.202,0.058,0.169,0.197,0.292C99.794,17.744,99.873,17.906,99.987,18.031C99.987,18.031,99.987,18.031,99.987,18.031z
	 M102.092,16.456c0.128-0.403,0.253-1.175,0.165-1.703c-0.044-0.264-0.106-0.53-0.184-0.788c-0.164-0.549-0.622-0.494-0.311,0.11
	c0.018,0.183,0.183,0.512,0.146,0.915C101.869,15.433,101.977,16.119,102.092,16.456C102.092,16.456,102.092,16.456,102.092,16.456z
	 M86.242,37.218c-0.21,0.602-0.271,0.744-0.059,1.408c0.105-0.316,0.117-0.521,0.275-0.769c0.08-0.126,0.17-0.202,0.07-0.316
	c-0.097-0.111-0.135-0.233-0.135-0.356C86.394,36.948,86.315,37.01,86.242,37.218L86.242,37.218z M69.03,37.015
	c0.144-0.01,0.677,0.146,0.86,0.22c-0.165-0.202-0.641-0.861-0.842-0.97c-0.294-0.161-0.552-0.548-0.878-0.806
	c-0.056-0.125-0.379-0.268-0.568-0.165c-0.299,0.164-0.714,0.257-0.927,0.426c-0.062,0.049-0.163,0.094-0.245,0.142
	c-0.235,0.128,0.147,0.384,0.568,0.073c0.256-0.055,0.613-0.16,0.732-0.274c0.117,0.185,0.504,0.543,0.769,0.75
	C68.591,36.631,68.879,36.814,69.03,37.015C69.03,37.015,69.03,37.015,69.03,37.015z M88.289,40.017
	c-0.256-0.348-0.75-0.678-0.934-0.751C87.301,39.359,87.612,39.559,88.289,40.017L88.289,40.017z"/>
<path id="path15" inkscape:connector-curvature="0" fill="#FFFFFF" d="M96.399,26.818c1.405-1.714,2.179-2.691,2.38-3.771
	C97.892,24.193,97.155,25.49,96.399,26.818L96.399,26.818z M94.404,25.427l0.201,0.165c1.487-2.367,3.073-4.685,4.869-6.902
	l-0.073-0.312C97.699,20.49,95.963,23.008,94.404,25.427L94.404,25.427z M95.191,26.012c0.079,0.055,0.121,0.11,0.201,0.165
	c1.341-2.009,2.732-3.961,4.174-5.858l0.037-0.458C98.1,21.847,96.603,23.945,95.191,26.012
	C95.191,26.012,95.191,26.012,95.191,26.012z M95.045,25.921c1.451-2.173,2.917-4.345,4.595-6.353l0.073-0.787
	c-1.792,2.187-3.45,4.488-4.998,6.884C94.825,25.75,94.934,25.836,95.045,25.921C95.045,25.921,95.045,25.921,95.045,25.921z
	 M101.983,25.28c-0.006,0.244-0.013,0.488-0.019,0.732c1.121,0.219,2.231,0.255,3.35,0.019c0.774-0.165,1.557,0.025,2.362,0.165
	c1.295,0.223,2.619,0.375,3.99,0.037c3.73-0.922,4.204-2.05,5.73-3.204c0.331-0.25,0.599-0.552,1.08-0.604
	c0.939-0.103,1.629-0.37,2.288-0.623c-0.164-0.14-0.329-0.28-0.494-0.421c-0.329,0.22-1.586,0.336-2.16,0.677
	c-0.53,0.316-0.82,0.722-1.189,1.099c-0.818,0.833-1.958,1.49-3.167,2.032c-2.2,0.986-3.994,0.871-5.657,0.55
	c-0.987-0.191-1.999-0.585-3.058-0.165C104.475,25.797,102.407,25.583,101.983,25.28L101.983,25.28z M103.575,24.676
	c0.721-0.091,1.44-0.183,2.161-0.275c1.208-0.42,0.783-0.424,1.903-0.75c0.439-0.128,1.41-0.201,2.131-0.54
	c0.917-0.431,1.977-0.748,2.043-0.394c0.77-0.274-0.484-0.965-1.52-0.64c0.366,0.201-0.421,0.677-2.471,1.025
	C106.162,23.384,104.044,24.244,103.575,24.676L103.575,24.676z M102.074,23.139v1.08c0.133-0.275,0.529-0.514,1.19-0.714
	c0.633-0.165,1.174-0.393,1.629-0.677c0.691-0.541,0.942-0.456,1.281-0.495c0.732,0.018,1.647,0.003,2.381-0.127
	c0.729-0.144,0.917-0.281,1.226-0.495c-1.166,0.098-2.337,0.098-3.515,0.018c-0.667-0.045-1.268,0.003-1.61,0.257
	C103.863,22.57,102.978,22.827,102.074,23.139C102.074,23.139,102.074,23.139,102.074,23.139z M106.468,21.234
	c0.333,0.056,0.67,0.217,0.988-0.146c0.217-0.248,0.736-0.241,1.263-0.165c1.174,0.17,2.38,0.238,3.552,0.202
	c0.098-0.245,0.158-0.361,0.257-0.605c-1.59,0.109-3.106-0.018-4.632-0.109C107.114,20.594,106.747,20.887,106.468,21.234
	C106.468,21.234,106.468,21.234,106.468,21.234z M114.907,19.037c-0.22,0.232-0.237,0.427-0.457,0.659
	c1.007-0.292,2.608-0.631,4.649-0.604c0.677,0.008,1.289,0.122,1.904,0.256c0.985,0.214,2.031,0.052,2.765,0.165
	c0.632,0.097,1.18,0.07,2.068,0.384c0.52,0.185,1.001,0.464,1.502,0.696c0.365,0.165,0.493-0.074,0.164-0.256
	c-0.5-0.174-1.192-0.51-1.977-0.824c-1.296-0.519-3.021-0.275-4.321-0.476c-0.892-0.138-1.685-0.128-2.397-0.202
	C117.509,18.703,116.281,18.928,114.907,19.037C114.907,19.037,114.907,19.037,114.907,19.037z M108.903,20.008
	c2.688-1.396,4.828-2.391,6.719-3.204c0.055,0.098,0.109,0.196,0.164,0.293c-1.955,1.005-3.908,2.015-5.913,2.911L108.903,20.008
	C108.903,20.008,108.903,20.008,108.903,20.008z M111.777,17.5c-2.287,1.462-5.444,2.923-7.945,4.101
	c0.438-0.418,0.677-1.16,1.465-1.19c0.236-0.009,0.286-0.01,0.494-0.146c0.596-0.392,1.208-0.708,1.813-1.08
	c-0.55,0.53,0.079,0.375,0.75-0.055C109.067,18.671,110.716,17.92,111.777,17.5L111.777,17.5z M106.413,18.36
	c0.275-0.201,0.513,0.091,0.238,0.238c-1.206,0.787-2.237,1.813-3.313,2.783C104.319,20.353,105.263,19.305,106.413,18.36
	C106.413,18.36,106.413,18.36,106.413,18.36z M102.166,20.776c0.006,0.312,0.012,0.604,0.019,0.916
	c2.285-2.015,4.284-3.707,6.883-5.749C105.451,18.355,102.663,20.242,102.166,20.776L102.166,20.776z M117.873,14.149
	c-0.7-0.201-1.505-0.726-4.229,1.245c-0.571,0.414-1.1,0.601-1.758,0.842c-0.584,0.216-1.264,0.732-1.757,1.062
	c-0.998,0.665-2.26,1.307-3.46,1.739c1.605-1.303,3.433-2.771,5.034-3.313c1.116-0.378,2.096-1.087,3.167-1.831
	c0.938-0.652,2.078-0.686,3.131-0.257C118.345,13.777,118.135,13.985,117.873,14.149C117.873,14.149,117.873,14.149,117.873,14.149z
	 M111.026,15.138c0.918-0.721,1.858-1.327,3.021-1.977c0.888-0.496,1.69-0.882,2.911-0.659c0.703,0.128,1.232-0.011,1.94,0.091
	c0.304,0.044-0.009,0.617-0.421,0.293c-0.207-0.164-1.455-0.293-2.288-0.165c-0.769,0.118-1.513,0.328-2.087,0.732
	C113.168,14.11,112.11,14.762,111.026,15.138L111.026,15.138L111.026,15.138z M119.924,11.056c-0.237,0.322-0.29,0.628-0.641,0.842
	c-0.229,0.14-0.672,0.249-0.988,0.22c-0.534-0.05-1.153-0.121-1.739-0.055C117.54,11.507,118.712,11.195,119.924,11.056
	L119.924,11.056z M123.695,7.064c-0.22,0.586-0.714,1.154-1.227,1.667c-3.741,1.938-6.825,2.686-9.904,4.375
	c-2.058,1.129-4.229,2.995-6.682,4.522c1.749-1.544,3.591-3.036,5.51-4.485c-0.38,0.376-0.715,0.767-0.952,1.19
	C115.41,9.875,121.864,8.877,123.695,7.064C123.695,7.064,123.695,7.064,123.695,7.064z M115.786,7.101
	c1.8-1.52,3.955-2.627,6.499-2.893c1.975-0.206,3.941-0.43,5.914-0.568c0.445-0.068,0.418-0.107,0.055-0.366
	c-0.218-0.154-0.454-0.128-0.897-0.037c-1.628,0.337-3.3,0.596-4.979,0.623c-3.49,0.056-5.907,1.761-8.019,3.643
	c0.292-0.132,0.583-0.27,0.879-0.348c-2.68,2.212-5.047,4.788-7.396,7.415c0.477-0.714,1.209-1.739,1.685-2.453
	c-0.783,0.691-1.795,1.831-2.453,2.874c-0.319,0.505-0.756,1.027-1.117,1.52c1.889-1.626,4.241-3.728,6.444-6.243
	C113.437,9.084,114.611,8.048,115.786,7.101L115.786,7.101L115.786,7.101z M107.145,14.204c2.046-2.426,4.813-5.4,7.589-7.698
	C111.746,8.055,109.048,10.744,107.145,14.204L107.145,14.204z M120.748,3.513c0.672-0.376,1.41-0.782,2.984-0.934
	c1.082-0.104,2.172-0.122,3.258-0.183c-0.201,0.366-1.059,0.529-1.647,0.641c-0.488,0.093-1.337,0.146-1.758,0.055
	C122.99,2.963,121.791,3.44,120.748,3.513L120.748,3.513z M114.431,6.223c1.942-0.829,3.603-2.114,5.383-2.929
	c0.7-0.321,1.844-0.479,2.764-0.696c0.398-0.094,0.254-0.482-0.146-0.366c-1.026,0.298-2.031,0.736-3.039,1.135
	C117.409,4.153,115.841,5.16,114.431,6.223L114.431,6.223z M119.576,2.652c0.257-0.245,0.646-0.529,1.189-0.731
	c0.582-0.042,0.686,0.02,0.312,0.183C120.471,2.286,119.993,2.509,119.576,2.652L119.576,2.652z M115.145,4.703
	c0.535-0.671,1.368-1.173,2.6-1.483C117.397,3.561,115.522,4.462,115.145,4.703L115.145,4.703z M102.092,17.903
	c0,0.231,0,0.463,0,0.695c0.483-0.518,1.299-1.435,2.252-2.6c0.823-1.007,1.574-2.087,2.38-3.149c0.934-1.336,2.215-3.075,4.87-5.51
	c-1.096,0.76-2.243,1.563-3.204,2.691c-1.259,1.478-2.667,3.639-4.064,5.51C103.599,16.513,102.857,17.188,102.092,17.903
	C102.092,17.903,102.092,17.903,102.092,17.903z M102.825,14.534c-0.11,0.146,0.092,0.696,0.312,0.476
	c1.578-2.225,3.423-4.246,5.4-6.133c1.501-1.434,2.891-2.592,4.339-3.533c1.694-1.101,3.252-1.974,5.016-2.837
	c1.072-0.525,2.392-0.804,3.424-0.971c1.972-0.318,4.02-0.031,5.84,0.714c0.711,0.291,0.656-0.257,0.128-0.385l-2.893-0.695
	c-0.72-0.173-1.943-0.311-3.276,0.092c-1.679,0.507-3.083,0.604-8.037,3.551c-2.769,1.647-5.353,4.488-7.652,6.92
	C104.545,12.663,103.716,13.639,102.825,14.534L102.825,14.534z M119.997,5.948c1.498-0.575,4.855-1.023,8.678-1.043
	c0.109-0.515,0.309-0.562-3.313-0.44c-3.753,0.127-6.247,1.005-7.891,2.454L119.997,5.948
	C119.997,5.948,119.997,5.948,119.997,5.948z M109.781,13.673c1.397-0.946,2.798-1.889,4.193-2.837
	c1.962-1.335,3.954-2.699,7.029-3.625c1.604-0.483,3.756-1.033,5.09-0.879c1.046,0.121,1.738-0.109,2.196-0.494
	c-1.501,0.275-3.24,0.275-4.796,0.275c-4.378,0-8.436,2.842-9.538,3.826C112.556,11.187,111.301,12.483,109.781,13.673
	C109.781,13.673,109.781,13.673,109.781,13.673z M106.12,15.724c-0.812,1.376-1.908,2.452-2.966,3.35
	C103.961,17.921,105.019,16.796,106.12,15.724L106.12,15.724z M102.715,18.909l-0.75,0.549l0.019,0.312L102.715,18.909
	L102.715,18.909z M96.399,26.818c-0.274,0.439-0.732,0.219-0.385-0.366C95.965,26.753,96.164,26.803,96.399,26.818L96.399,26.818z"
	/>
<path id="path17" inkscape:connector-curvature="0" fill="#FFFFFF" d="M64.874,24.548c-0.6-0.322-1.593-0.51-2.307-0.495
	c-0.92,0.02-1.531,0-2.453,0c0.031,0.049,0.061,0.097,0.091,0.146c0.183,0,0.449-0.055,0.458,0.201s0.62,0.106,0.787-0.018
	C61.524,24.328,64.05,24.474,64.874,24.548L64.874,24.548z"/>
<path id="path19" inkscape:connector-curvature="0" fill="#FFFFFF" d="M82.409,27.068c-0.754-0.601-1.53-1.154-2.34-1.642
	c-3.85-2.317-7.799-4.522-11.405-7.213c-0.691-0.605-1.451-1.063-2.307-1.3c-0.659-0.183-1.392-0.531-1.721-0.769
	c-0.532-0.384-1.111-0.43-1.757-0.586l-2.819-0.677c-0.732-0.201-1.3,0.055-1.922,0.128l5.438,1.208
	c1.108,0.489,1.927,0.803,2.999,1.243c0.516,0.13,0.956,0.533,1.497,0.937C72.782,21.908,77.755,24.309,82.409,27.068
	C82.409,27.068,82.409,27.068,82.409,27.068z M68.48,19.158c-1.574-1.658-4.351-2.197-6.352-2.757
	c-1.125-0.315-2.558-0.846-3.172-0.892c-0.403-0.065-0.839-0.133-1.313-0.206c-0.891-0.138-1.269,0.159-1.904,0.238
	c1.703,0.055,3.719,0.477,5.163,0.695c0.858,0.131,2.296,0.525,3.46,0.957C65.79,17.571,67.154,18.273,68.48,19.158L68.48,19.158z
	 M67.795,19.642c-0.885-0.772-1.626-1.244-2.244-1.173c0.206,0.208,0.42,0.412,0.637,0.614
	C66.375,19.257,67.016,19.202,67.795,19.642L67.795,19.642z M75.84,26.049c-0.952-0.769-2.037-1.351-3.076-1.958
	c-1.524-0.891-2.995-1.821-4.4-2.843C69.176,22.296,72.774,24.438,75.84,26.049L75.84,26.049z M65.033,18.505
	c-0.775-0.864-1.78-1.238-3.088-1.372l-3.698-0.476c-1.211-0.156-3.155-0.22-4.799-0.189c-0.291,0.005-0.693,0.335-0.895,0.591
	c2.429-0.091,4.436,0.024,6.664,0.165c1.054,0.067,2.005,0.284,2.978,0.439C62.929,17.781,64.141,18.015,65.033,18.505
	C65.033,18.505,65.033,18.505,65.033,18.505z M56.03,16.18c-0.653-0.021-1.343-0.019-2.085,0.021
	c0.211-0.258,0.516-0.392,1.053-0.385c0.38,0.004,0.966-0.002,1.602,0.019C56.599,15.834,56.324,16.181,56.03,16.18
	C56.03,16.18,56.03,16.18,56.03,16.18z M53.287,17.399c-0.269,0.001-0.552-0.01-0.733-0.01c-0.33,0-0.659,0.312-0.696,0.77
	c0.283-0.016,0.61-0.008,0.934-0.006c-0.058-0.171,0.223-0.291,0.75-0.287c0.992,0.005,2.176,0.006,3.257-0.004
	c3.186,0.144,5.768,0.516,6.812,1.084c-0.36-0.311-0.687-0.613-1.208-0.814c-0.623-0.156-1.481-0.178-2.38-0.248
	c-0.528-0.041-1.941-0.273-2.929-0.292c-0.963-0.018-1.929,0.06-2.892,0.073C53.508,17.674,53.093,17.649,53.287,17.399
	L53.287,17.399z M69.672,23.552c-1.687-1.166-3.388-2.262-5.255-3.435c-0.527-0.331-2.577-0.816-4.251-0.874
	c-0.454-0.111-0.863-0.187-1.186-0.187c-0.763,0-1.363-0.224-2.082-0.365c1.078,0.032,1.904-0.032,3.986,0.383
	c0.811,0.199,1.642,0.225,2.471,0.275c0.585,0.025,1.022,0.257,1.391,0.586c1.721,1.19,3.497,2.435,5.218,3.625L69.672,23.552
	C69.672,23.552,69.672,23.552,69.672,23.552z M58.846,19.553c0.749,0.224,1.622,0.474,2.366,0.693
	c0.562,0.165,1.784,0.653,2.739,1.182c2.31,1.278,5.618,2.47,10.552,4.347c0.743,0.283,2.16,0.843,2.673,1.52
	c-0.557-0.271-1.175-0.545-1.684-0.805c-1.297-0.664-2.603-1.174-3.845-1.629c-1.895-0.695-3.927-1.464-5.858-2.215
	c-0.585-0.238-1.159-0.574-1.739-0.879c-0.678-0.363-1.352-0.596-2.105-0.842c-1.448-0.473-3.042-0.896-4.394-1.373
	c-0.311-0.11-0.73-0.282-0.787-0.055c-0.091,0.369-0.486,0.125-0.7,0.032C54.842,18.708,57.716,19.202,58.846,19.553
	C58.846,19.553,58.846,19.553,58.846,19.553z M63.184,22.307c0.282,0.094,0.439,0.276,0.537,0.429
	c-1.025-0.074-2.306-0.069-2.929,0.073c-0.255,0.058-0.718,0.044-0.916-0.056c-0.498-0.249-0.831-0.561-1.062-0.915
	c0.566,0.206,1.104,0.295,1.871,0.33C60.682,22.388,62.787,22.424,63.184,22.307C63.184,22.307,63.184,22.307,63.184,22.307z
	 M75.254,26.598c-1.961-0.814-3.803-1.23-5.803-1.922c-1.693-0.586-3.801-1.309-5.118-1.419c-0.81,0.029-1.892-0.048-2.425,0.046
	c-0.623,0.109-1.026,0.25-1.19,0.128c-0.146-0.109-0.238-0.147-0.421-0.147c-0.128,0-0.227,0.018-0.421,0
	c0.126,0.525,0.328,0.689,0.824,0.549c0.137-0.039,0.423-0.092,0.75-0.146c0.283-0.047,0.549-0.201,0.842-0.22
	c0.458-0.018,3.969,0.443,5.803,1.208c0.308-0.015,0.465,0.069,0.762,0.17c0.87,0.296,1.781,0.632,2.704,0.985
	c1.737,0.292,3.99,1.001,4.736,1.5C76.038,27.099,75.541,26.717,75.254,26.598L75.254,26.598z M64.874,24.548
	c0.663,0.355,2.635,0.674,3.954,0.769c0.712,0.051,1.253,0.262,1.813,0.567c1.014,0.554,3.606,1.593,5.199,2.472
	c-0.192-0.046-0.449-0.103-0.752-0.167c-1.683-0.639-4.462-2.044-4.868-2.141c-0.748-0.177-2.173-0.309-3.282-0.491
	c-0.911-0.149-1.559-0.45-1.991-0.626c-0.466-0.19-1.04-0.268-1.575-0.311c-0.576-0.046-1.156-0.127-1.739,0
	c-0.535,0.117-1.016,0.201-1.208-0.092c-1.051-0.026-2.875,0.261-3.808,0.293c-0.531,0.019-1.093,0.148-1.337,0.238
	c-0.896,0.333-2.681,0.399-3.881,1.227l-0.201-0.183c0.554-0.342,1.589-0.868,2.435-1.117c0.911-0.268,2.107-0.345,2.618-0.402
	c1.19-0.136,2.334-0.383,3.954-0.385c0.332-0.034,0.508,0.019,0.458,0.201c0.11,0.216,0.459,0.1,0.787-0.018
	C61.93,24.21,63.744,24.45,64.874,24.548C64.874,24.548,64.874,24.548,64.874,24.548z M77.839,26.338
	c-1.095-0.829-2.107-1.501-3.079-2.119c-0.556-0.354-1.108-0.755-1.657-1.184C74.256,24.402,76.113,25.329,77.839,26.338
	L77.839,26.338z M84.526,32.589c0.154,0.082,0.32,0.153,0.504,0.216l0.293-0.165c-0.606-0.269-1.1-0.563-1.513-0.874
	C83.943,32.074,84.168,32.352,84.526,32.589L84.526,32.589z M86.294,32.365c-0.036,0.055,0,0-0.092,0.11
	c-0.435,0-1.599-1.017-1.961-1.505L86.294,32.365L86.294,32.365z M77.176,27.294c2.38,1.593,4.833,3.13,5.071,3.899
	C81.024,30.062,77.936,28.234,77.176,27.294L77.176,27.294z M83.749,32.566c-1.099-1.208-3.167-1.702-4.65-2.746
	c0.329,0.678,1.464,1.326,2.875,2.014C82.595,32.109,83.108,32.383,83.749,32.566L83.749,32.566z M78.469,30.2
	c0.117,0.005,0.391,0.042,0.52,0.042c-0.177-0.443-0.916-0.588-1.33-0.762c-0.969-0.406-1.898-0.856-2.99-0.776
	c-0.568,0.042-1.037-0.034-1.373-0.201c-0.652-0.325-2.161-0.384-2.783-0.238c-0.256,0.06-0.663,0.093-1.08,0.109
	c-0.473,0.019-0.962,0.025-1.263,0.22c-0.515,0.332-0.441,0.651-0.086,0.783c0.251,0.004,0.581-0.143,0.672-0.216
	c0.283-0.226,1.017-0.313,1.817-0.331c0.327-0.007,0.731-0.042,1.057-0.018c0.494,0.037,0.773-0.002,1.263,0.037
	c0.401,0.032,1.059,0.17,1.482,0.329c0.309,0.116,0.597,0.24,0.916,0.073c0.12-0.063,0.458-0.003,0.916,0.11
	C76.99,29.556,77.755,29.806,78.469,30.2L78.469,30.2z M69.652,27.935c0.677-0.056,0.947-0.054,1.025-0.256
	c-2.471-0.293-4.932-0.775-7.396-1.318c-0.351-0.077-0.563-0.228-0.787,0.183c-0.305,0.559-0.073,0.663,0.347,0.966
	c0.095-0.286,0.239-0.618,0.349-0.654c0.35-0.117,0.611-0.024,0.842,0.036C66.019,27.41,68.927,27.999,69.652,27.935
	C69.652,27.935,69.652,27.935,69.652,27.935z M67.237,29.634c-0.221,0.021-1.282-0.198-1.433,0.37
	c-0.27-0.248-0.457-0.529-0.49-0.824c0.549-0.042,1.299,0.039,1.611-0.128c0.407-0.219,0.594,0.198,0.421,0.348
	C67.261,29.472,67.228,29.556,67.237,29.634L67.237,29.634z M73.776,30.74c0.799-0.099,1.604-0.206,2.412-0.297
	c-2.815-0.077-6.838-0.503-8.199-0.508c-0.094,0.251-0.295,0.508,0.565,0.508C70.402,30.443,73.478,30.791,73.776,30.74
	C73.776,30.74,73.776,30.74,73.776,30.74z M79.917,31.184c-0.137-0.104-0.271-0.211-0.397-0.32c-0.493-0.435-2.55-0.164-4.32,0.292
	c-0.587,0.151-1.319,0.203-1.996,0.293c-0.762,0.102-1.354,0.201-1.794,0.439c-1.025,0.604-1.862,0.629-2.856,0.365
	c-0.622-0.165-1.41-0.402-2.124-0.494c-0.423-0.054-0.535-0.108-0.916-0.319c-0.783-0.434-1.904-1.2-2.361-1.786
	c-0.247-0.316-0.439-0.384-0.674-0.351c-0.513,0.073-1.03-0.015-1.468-0.179c-0.732-0.274-0.842,0.641,0.037,0.53
	c0.475-0.06,0.714,0.275,1.354,0.165c0.255-0.043,0.531,0.019,0.678,0.165c1.309,1.31,2.718,2.113,4.511,2.594
	c1.041,0.279,2.062,0.425,2.958,0.079c0.603-0.232,0.835-0.465,1.437-0.364c1.502-0.108,2.961-0.484,4.363-0.775
	C77.586,31.26,78.779,31.069,79.917,31.184C79.917,31.184,79.917,31.184,79.917,31.184z M80.691,32.93
	c0.438-0.314,0.918-0.519,1.481-0.512c0.254,0.089,0.517,0.22,0.789,0.386c-0.226,0.183-0.359,0.311-0.586,0.494
	C81.865,33.047,81.283,32.968,80.691,32.93C80.691,32.93,80.691,32.93,80.691,32.93z M81.515,33.763
	c0.206-0.101,0.371-0.235,0.458-0.409c-0.843,0.045-1.978-0.128-2.508-0.366c-1.463-0.465-2.453,0.96-4.668,0.531
	c0.84,0.768,2.467,0.693,3.277,0.22C78.733,33.098,80.674,34.177,81.515,33.763C81.515,33.763,81.515,33.763,81.515,33.763z"/>
<path id="path21" inkscape:connector-curvature="0" fill="#FFFFFF" d="M15.419,74.07c0,3.366,0.876,4.98,2.006,6.063
	c1.637,1.549,3.965,1.641,4.75,1.641c1.36,0,3.09-0.229,4.75-1.71c1.844-1.637,2.121-4.403,2.121-6.893v-2.467
	c0-3.598,0-4.243,0.046-4.98c0.046-0.808,0.231-1.199,0.854-1.314c0.276-0.069,0.415-0.069,0.576-0.069
	c0.092,0,0.184-0.046,0.184-0.138c0-0.139-0.115-0.186-0.369-0.186c-0.692,0-1.775,0.069-1.937,0.069
	c-0.138,0-1.406-0.069-2.444-0.069c-0.253,0-0.369,0.047-0.369,0.186c0,0.092,0.092,0.138,0.185,0.138
	c0.208,0,0.599,0.023,0.783,0.069c0.761,0.161,0.946,0.53,0.992,1.314c0.047,0.737,0.047,1.383,0.047,4.98v2.881
	c0,2.375-0.278,4.335-1.338,5.648c-0.83,0.992-2.213,1.66-3.619,1.66c-1.314,0-2.352-0.207-3.481-1.268
	c-0.992-0.945-1.729-2.374-1.729-5.694v-3.228c0-3.598,0-4.243,0.046-4.98c0.046-0.808,0.231-1.223,0.854-1.314
	c0.276-0.046,0.415-0.069,0.576-0.069c0.092,0,0.185-0.046,0.185-0.138c0-0.139-0.116-0.186-0.369-0.186
	c-0.692,0-2.076,0.069-2.283,0.069c-0.208,0-1.614-0.069-2.652-0.069c-0.254,0-0.369,0.047-0.369,0.186
	c0,0.092,0.092,0.138,0.184,0.138c0.208,0,0.599,0.023,0.784,0.069c0.761,0.161,0.946,0.53,0.991,1.314
	c0.046,0.737,0.046,1.383,0.046,4.98v3.367C15.42,74.07,15.419,74.07,15.419,74.07z"/>
<path id="path23" inkscape:connector-curvature="0" fill="#FFFFFF" d="M15.419,74.07c0,3.366,0.876,4.98,2.006,6.063
	c0.223,0.211,0.458,0.395,0.702,0.555c-1.118-1.082-1.982-2.698-1.982-6.039v-3.366c0-3.598,0-4.242-0.046-4.979
	c-0.043-0.734-0.208-1.104-0.852-1.28c0.074,0.186,0.109,0.415,0.125,0.701c0.046,0.737,0.046,1.383,0.046,4.98v3.365
	C15.418,74.07,15.419,74.07,15.419,74.07z M29.423,64.654c0.125-0.122,0.294-0.202,0.521-0.244c0.276-0.069,0.415-0.069,0.576-0.069
	c0.092,0,0.184-0.046,0.184-0.138c0-0.139-0.114-0.186-0.369-0.186c-0.692,0-1.774,0.069-1.936,0.069
	c-0.138,0-1.406-0.069-2.444-0.069c-0.253,0-0.369,0.047-0.369,0.186c0,0.092,0.093,0.138,0.185,0.138
	c0.207,0,0.599,0.023,0.783,0.069c0.213,0.045,0.38,0.107,0.512,0.189c0.943,0.014,1.937,0.066,2.059,0.066
	C29.168,64.666,29.275,64.661,29.423,64.654L29.423,64.654z M27.418,65.022c0.075,0.186,0.111,0.416,0.128,0.702
	c0.046,0.737,0.046,1.383,0.046,4.98v2.881c0,2.375-0.277,4.335-1.338,5.648c-0.83,0.992-2.212,1.66-3.619,1.66
	c-1.032,0-1.895-0.129-2.764-0.698c0.003,0.003,0.006,0.006,0.009,0.009c1.129,1.061,2.167,1.268,3.481,1.268
	c1.406,0,2.789-0.668,3.619-1.659c1.061-1.314,1.338-3.273,1.338-5.648v-2.882c0-3.598,0-4.242-0.046-4.979
	C28.228,65.569,28.064,65.199,27.418,65.022L27.418,65.022L27.418,65.022z M17.802,64.643c0.125-0.122,0.295-0.199,0.522-0.233
	c0.276-0.046,0.415-0.069,0.576-0.069c0.092,0,0.185-0.046,0.185-0.138c0-0.139-0.116-0.186-0.369-0.186
	c-0.692,0-2.076,0.069-2.283,0.069c-0.208,0-1.614-0.069-2.652-0.069c-0.254,0-0.369,0.047-0.369,0.186
	c0,0.092,0.092,0.138,0.184,0.138c0.209,0,0.6,0.023,0.785,0.069c0.213,0.045,0.381,0.107,0.514,0.189
	c0.971,0.014,2.082,0.066,2.264,0.066C17.238,64.666,17.486,64.656,17.802,64.643C17.802,64.643,17.802,64.643,17.802,64.643z"/>
<path id="path25" inkscape:connector-curvature="0" fill="#FFFFFF" d="M112.784,72.71c0,4.15,2.629,9.064,8.946,9.064
	c5.556,0,9.199-4.27,9.199-9.433c0-5.372-3.874-8.646-9.062-8.646C115.505,63.696,112.784,68.975,112.784,72.71
	C112.784,72.71,112.784,72.71,112.784,72.71z M114.974,72.065c0-5.05,2.882-7.586,6.732-7.586c3.643,0,7.009,2.975,7.009,8.507
	c0,6.709-4.288,7.908-6.364,7.908C118.203,80.894,114.974,77.436,114.974,72.065C114.974,72.065,114.974,72.065,114.974,72.065z"/>
<path id="path27" inkscape:connector-curvature="0" fill="#FFFFFF" d="M112.784,72.71c0,2.707,1.118,5.739,3.649,7.521
	c-2.021-1.814-2.924-4.509-2.924-6.941c0-3.735,2.721-9.015,9.084-9.015c2.191,0,4.148,0.585,5.678,1.665
	c-1.611-1.448-3.848-2.243-6.403-2.243C115.505,63.696,112.784,68.975,112.784,72.71C112.784,72.71,112.784,72.71,112.784,72.71z
	 M126.119,66.198c1.553,1.423,2.597,3.709,2.597,6.788c0,6.709-4.288,7.908-6.363,7.908c-1.453,0-2.793-0.426-3.921-1.207
	c1.259,1.149,2.868,1.785,4.646,1.785c2.075,0,6.363-1.198,6.363-7.907C129.441,70.026,128.064,67.535,126.119,66.198
	C126.119,66.198,126.119,66.198,126.119,66.198z"/>
<path id="path29" inkscape:connector-curvature="0" fill="#FFFFFF" d="M132.896,74.763c0,2.212,0,4.034-0.116,5.002
	c-0.093,0.669-0.207,1.177-0.668,1.269c-0.208,0.046-0.485,0.092-0.692,0.092c-0.139,0-0.184,0.069-0.184,0.139
	c0,0.143,0.114,0.188,0.368,0.188c0.691,0,2.145-0.069,2.167-0.069c0.115,0,1.568,0.069,2.836,0.069
	c0.254,0,0.369-0.072,0.369-0.188c0-0.069-0.046-0.139-0.185-0.139c-0.207,0-0.715-0.046-1.037-0.092
	c-0.691-0.092-0.83-0.6-0.899-1.269c-0.115-0.968-0.115-2.79-0.115-5.002v-0.554c0-0.115,0.046-0.186,0.161-0.186l2.836,0.047
	c0.138,0,0.208,0.046,0.3,0.139c0.461,0.6,1.545,2.145,2.514,3.412c1.313,1.729,2.121,2.859,3.112,3.39
	c0.6,0.321,1.176,0.441,2.467,0.441h1.637c0.416,0,0.554-0.046,0.554-0.188c0-0.069-0.093-0.139-0.207-0.139
	c-0.14,0-0.462,0-0.899-0.069c-0.577-0.092-1.568-0.345-2.813-1.659c-1.337-1.43-2.905-3.481-4.796-5.901
	c2.075-1.915,2.79-3.62,2.79-5.327c0-1.591-1.014-2.721-1.591-3.135c-1.222-0.877-2.767-1.016-4.219-1.016
	c-0.715,0-2.468,0.069-2.721,0.069c-0.115,0-1.568-0.069-2.605-0.069c-0.253,0-0.369,0.047-0.369,0.186
	c0,0.092,0.093,0.138,0.185,0.138c0.207,0,0.6,0.023,0.784,0.069c0.761,0.161,0.945,0.53,0.991,1.314
	c0.047,0.737,0.047,1.383,0.047,4.98v4.058H132.896L132.896,74.763z M134.74,65.171c0-0.138,0.069-0.23,0.185-0.276
	c0.23-0.069,0.853-0.139,1.545-0.139c2.466,0,3.988,1.729,3.988,4.611c0,1.752-0.6,2.997-1.406,3.55
	c-0.53,0.369-1.177,0.438-1.729,0.438c-1.015,0-2.075-0.161-2.421-0.369c-0.115-0.069-0.161-0.161-0.161-0.276L134.74,65.171
	L134.74,65.171L134.74,65.171z"/>
<path id="path31" inkscape:connector-curvature="0" fill="#FFFFFF" d="M132.896,74.763c0,2.213,0,4.034-0.116,5.002
	c-0.093,0.669-0.207,1.177-0.668,1.269c-0.208,0.046-0.485,0.092-0.692,0.092c-0.138,0-0.184,0.069-0.184,0.139
	c0,0.143,0.114,0.188,0.368,0.188c0.41,0,1.087-0.024,1.575-0.045c0.188-0.225,0.263-0.606,0.326-1.063
	c0.116-0.968,0.116-2.79,0.116-5.003v-4.058c0-3.598,0-4.242-0.047-4.979c-0.043-0.734-0.207-1.104-0.852-1.28
	c0.074,0.186,0.108,0.415,0.126,0.701c0.047,0.737,0.047,1.383,0.047,4.98v4.057H132.896z M136.026,81.447
	c0.194,0.003,0.39,0.005,0.581,0.005c0.254,0,0.369-0.072,0.369-0.188c0-0.069-0.046-0.139-0.185-0.139
	c-0.207,0-0.715-0.046-1.037-0.092c-0.012-0.002-0.024-0.004-0.036-0.006C135.784,81.2,135.881,81.344,136.026,81.447
	C136.026,81.447,136.026,81.447,136.026,81.447z M138.363,74.647c0.544,0.741,1.403,1.947,2.188,2.974
	c1.231,1.622,2.019,2.717,2.93,3.283c-0.646-0.621-1.307-1.522-2.204-2.704c-0.969-1.269-2.052-2.813-2.514-3.413
	c-0.092-0.093-0.162-0.138-0.3-0.138L138.363,74.647L138.363,74.647L138.363,74.647z M147.224,81.452h0.542
	c0.416,0,0.554-0.046,0.554-0.188c0-0.069-0.093-0.139-0.208-0.139c-0.139,0-0.461,0-0.898-0.068
	c-0.39-0.063-0.968-0.199-1.685-0.685C146.185,80.976,146.76,81.285,147.224,81.452L147.224,81.452L147.224,81.452z M139.663,73.57
	c-0.021-0.025-0.039-0.051-0.059-0.075c0.417-0.385,0.778-0.76,1.091-1.13c0.303-0.628,0.488-1.446,0.488-2.42
	c0-1.944-0.693-3.363-1.902-4.081c0.756,0.795,1.177,1.989,1.177,3.503c0,1.752-0.6,2.998-1.406,3.55
	c-0.53,0.369-1.177,0.438-1.729,0.438c-0.672,0-1.365-0.069-1.856-0.178v0.111c0,0.114,0.046,0.207,0.161,0.276
	c0.346,0.208,1.406,0.368,2.421,0.368C138.561,73.933,139.155,73.874,139.663,73.57C139.663,73.57,139.663,73.57,139.663,73.57z
	 M141.252,65.43c-0.16-0.168-0.315-0.301-0.448-0.396c-1.222-0.877-2.767-1.016-4.219-1.016c-0.716,0-2.468,0.069-2.721,0.069
	c-0.115,0-1.568-0.069-2.605-0.069c-0.253,0-0.369,0.047-0.369,0.186c0,0.092,0.093,0.138,0.186,0.138
	c0.207,0,0.599,0.023,0.783,0.069c0.213,0.045,0.381,0.107,0.514,0.189c0.979,0.014,2.116,0.066,2.218,0.066
	c0.253,0,2.006-0.069,2.721-0.069C138.655,64.597,140.078,64.716,141.252,65.43L141.252,65.43L141.252,65.43z"/>
<path id="path33" inkscape:connector-curvature="0" fill="#FFFFFF" d="M150.16,74.763c0,2.212,0,4.034-0.116,5.002
	c-0.093,0.669-0.207,1.177-0.668,1.269c-0.208,0.046-0.485,0.092-0.692,0.092c-0.138,0-0.184,0.069-0.184,0.139
	c0,0.143,0.114,0.188,0.368,0.188c0.691,0,2.145-0.069,2.213-0.069c0.116,0,1.568,0.069,2.837,0.069
	c0.253,0,0.368-0.072,0.368-0.188c0-0.069-0.046-0.139-0.185-0.139c-0.207,0-0.714-0.046-1.037-0.092
	c-0.691-0.092-0.83-0.6-0.899-1.269c-0.115-0.968-0.115-2.79-0.115-5.002v-9.477c0-0.23,0.047-0.392,0.185-0.438
	c0.207-0.092,0.6-0.138,0.991-0.138c0.53,0,1.937-0.093,3.159,1.152s1.291,2.79,1.291,3.551c0,2.122-1.753,3.759-3.988,3.759
	c-0.485,0-0.623,0.022-0.623,0.207c0,0.116,0.138,0.161,0.254,0.161c0.115,0.023,0.369,0.023,0.483,0.023
	c3.274,0,5.672-2.214,5.672-5.488c0-1.221-0.646-2.259-1.153-2.743c-0.368-0.347-1.405-1.314-4.288-1.314
	c-1.061,0-2.397,0.069-2.904,0.069c-0.185,0-1.568-0.069-2.605-0.069c-0.253,0-0.369,0.047-0.369,0.186
	c0,0.092,0.093,0.138,0.185,0.138c0.208,0,0.6,0.023,0.783,0.069c0.762,0.161,0.946,0.53,0.992,1.314
	c0.047,0.737,0.047,1.383,0.047,4.98v4.058L150.16,74.763L150.16,74.763z"/>
<path id="path35" inkscape:connector-curvature="0" fill="#FFFFFF" d="M150.16,74.763c0,2.213,0,4.034-0.116,5.002
	c-0.093,0.669-0.208,1.177-0.668,1.269c-0.208,0.046-0.485,0.092-0.692,0.092c-0.138,0-0.184,0.069-0.184,0.139
	c0,0.143,0.114,0.188,0.368,0.188c0.407,0,1.078-0.024,1.575-0.044c0.188-0.226,0.263-0.607,0.326-1.064
	c0.116-0.968,0.116-2.79,0.116-5.003v-4.058c0-3.598,0-4.242-0.047-4.979c-0.043-0.734-0.207-1.104-0.852-1.28
	c0.074,0.186,0.108,0.415,0.126,0.701c0.047,0.737,0.047,1.383,0.047,4.98v4.057H150.16z M153.336,81.447
	c0.194,0.003,0.391,0.005,0.582,0.005c0.253,0,0.368-0.072,0.368-0.188c0-0.069-0.046-0.139-0.185-0.139
	c-0.207,0-0.714-0.046-1.037-0.092c-0.012-0.002-0.024-0.004-0.037-0.006C153.093,81.2,153.19,81.344,153.336,81.447
	C153.336,81.447,153.336,81.447,153.336,81.447z M156.371,65.848c0.004,0.005,0.009,0.01,0.014,0.015
	c1.222,1.244,1.291,2.789,1.291,3.55c0,2.122-1.753,3.759-3.988,3.759c-0.485,0-0.623,0.022-0.623,0.207
	c0,0.116,0.138,0.161,0.254,0.161c0.115,0.023,0.369,0.023,0.483,0.023c1.498,0,2.812-0.462,3.797-1.279
	c0.505-0.628,0.803-1.42,0.803-2.292c0-0.761-0.069-2.307-1.291-3.551C156.869,66.195,156.618,66.002,156.371,65.848L156.371,65.848
	L156.371,65.848z M158.395,65.407c-0.025-0.026-0.05-0.051-0.075-0.075c-0.368-0.347-1.405-1.314-4.288-1.314
	c-1.061,0-2.397,0.069-2.904,0.069c-0.185,0-1.568-0.069-2.605-0.069c-0.253,0-0.369,0.047-0.369,0.186
	c0,0.092,0.093,0.138,0.185,0.138c0.208,0,0.6,0.023,0.783,0.069c0.214,0.045,0.382,0.107,0.515,0.189
	c0.966,0.014,2.056,0.066,2.218,0.066c0.507,0,1.844-0.069,2.904-0.069C156.665,64.597,157.762,65.02,158.395,65.407L158.395,65.407
	L158.395,65.407z"/>
<path id="path37" inkscape:connector-curvature="0" fill="#FFFFFF" d="M47.464,72.71c0,4.15,2.629,9.064,8.946,9.064
	c5.556,0,9.199-4.269,9.199-9.433c0-5.373-3.874-8.646-9.061-8.646C50.184,63.696,47.464,68.975,47.464,72.71
	C47.464,72.71,47.464,72.71,47.464,72.71z M49.655,72.065c0-5.05,2.882-7.586,6.732-7.586c3.643,0,7.009,2.975,7.009,8.507
	c0,6.709-4.288,7.908-6.364,7.908C52.883,80.894,49.655,77.436,49.655,72.065C49.655,72.065,49.655,72.065,49.655,72.065z"/>
<path id="path39" inkscape:connector-curvature="0" fill="#FFFFFF" d="M47.464,72.71c0,2.707,1.118,5.739,3.649,7.521
	c-2.021-1.814-2.924-4.509-2.924-6.941c0-3.735,2.72-9.015,9.084-9.015c2.191,0,4.148,0.585,5.677,1.665
	c-1.612-1.448-3.848-2.243-6.403-2.243C50.184,63.696,47.464,68.975,47.464,72.71C47.464,72.71,47.464,72.71,47.464,72.71z
	 M60.799,66.198c1.553,1.423,2.597,3.709,2.597,6.788c0,6.709-4.288,7.908-6.364,7.908c-1.452,0-2.792-0.426-3.92-1.207
	c1.258,1.149,2.868,1.785,4.646,1.785c2.076,0,6.364-1.198,6.364-7.907C64.122,70.026,62.744,67.535,60.799,66.198
	C60.799,66.198,60.799,66.198,60.799,66.198z"/>
<path id="path41" inkscape:connector-curvature="0" fill="#FFFFFF" d="M68.418,74.763c0,2.212,0,4.034-0.116,5.002
	c-0.092,0.669-0.207,1.177-0.668,1.269c-0.207,0.046-0.484,0.092-0.692,0.092c-0.138,0-0.184,0.069-0.184,0.139
	c0,0.143,0.115,0.188,0.369,0.188c0.691,0,2.144-0.069,2.213-0.069c0.116,0,1.567,0.069,2.836,0.069
	c0.253,0,0.369-0.072,0.369-0.188c0-0.069-0.046-0.139-0.185-0.139c-0.207,0-0.714-0.046-1.037-0.092
	c-0.692-0.092-0.83-0.6-0.899-1.269c-0.116-0.968-0.116-2.79-0.116-5.002v-9.477c0-0.23,0.046-0.392,0.185-0.438
	c0.208-0.092,0.6-0.138,0.991-0.138c0.531,0,1.937-0.093,3.159,1.152c1.223,1.245,1.292,2.79,1.292,3.551
	c0,2.122-1.752,3.759-3.988,3.759c-0.485,0-0.623,0.022-0.623,0.207c0,0.116,0.138,0.161,0.254,0.161
	c0.115,0.023,0.369,0.023,0.484,0.023c3.274,0,5.672-2.214,5.672-5.488c0-1.221-0.646-2.259-1.153-2.743
	c-0.369-0.347-1.406-1.314-4.289-1.314c-1.061,0-2.398,0.069-2.905,0.069c-0.185,0-1.568-0.069-2.605-0.069
	c-0.253,0-0.369,0.047-0.369,0.186c0,0.092,0.093,0.138,0.185,0.138c0.207,0,0.599,0.023,0.783,0.069
	c0.761,0.161,0.946,0.53,0.992,1.314c0.046,0.737,0.046,1.383,0.046,4.98L68.418,74.763L68.418,74.763L68.418,74.763z"/>
<path id="path43" inkscape:connector-curvature="0" fill="#FFFFFF" d="M68.418,74.763c0,2.213,0,4.034-0.116,5.002
	c-0.092,0.669-0.207,1.177-0.668,1.269c-0.207,0.046-0.485,0.092-0.692,0.092c-0.138,0-0.184,0.069-0.184,0.139
	c0,0.143,0.115,0.188,0.369,0.188c0.407,0,1.078-0.024,1.575-0.044c0.188-0.226,0.263-0.607,0.327-1.064
	c0.116-0.968,0.116-2.79,0.116-5.003v-4.058c0-3.598,0-4.242-0.047-4.979c-0.043-0.734-0.208-1.104-0.852-1.28
	c0.075,0.186,0.109,0.415,0.126,0.701c0.046,0.737,0.046,1.383,0.046,4.98L68.418,74.763C68.418,74.763,68.418,74.763,68.418,74.763
	z M71.594,81.447c0.194,0.003,0.391,0.005,0.582,0.005c0.253,0,0.369-0.072,0.369-0.188c0-0.069-0.047-0.139-0.185-0.139
	c-0.207,0-0.714-0.046-1.037-0.092c-0.012-0.002-0.024-0.004-0.037-0.006C71.352,81.2,71.449,81.344,71.594,81.447
	C71.594,81.447,71.594,81.447,71.594,81.447z M74.63,65.848c0.004,0.005,0.009,0.01,0.014,0.015c1.222,1.244,1.291,2.789,1.291,3.55
	c0,2.122-1.752,3.759-3.988,3.759c-0.485,0-0.623,0.022-0.623,0.207c0,0.116,0.138,0.161,0.254,0.161
	c0.115,0.023,0.369,0.023,0.483,0.023c1.499,0,2.812-0.462,3.797-1.279c0.505-0.628,0.803-1.42,0.803-2.292
	c0-0.761-0.069-2.307-1.291-3.551C75.127,66.195,74.877,66.002,74.63,65.848C74.63,65.848,74.63,65.848,74.63,65.848z
	 M76.654,65.407c-0.025-0.026-0.05-0.051-0.075-0.075c-0.369-0.347-1.406-1.314-4.288-1.314c-1.061,0-2.398,0.069-2.905,0.069
	c-0.185,0-1.568-0.069-2.605-0.069c-0.253,0-0.369,0.047-0.369,0.186c0,0.092,0.092,0.138,0.185,0.138
	c0.207,0,0.599,0.023,0.783,0.069c0.213,0.045,0.381,0.107,0.514,0.189c0.966,0.014,2.056,0.066,2.218,0.066
	c0.507,0,1.844-0.069,2.905-0.069C74.923,64.597,76.021,65.02,76.654,65.407C76.654,65.407,76.654,65.407,76.654,65.407z"/>
<path id="path45" inkscape:connector-curvature="0" fill="#FFFFFF" d="M77.376,78.913c-0.416,1.151-0.876,2.028-1.937,2.166
	c-0.185,0.024-0.512,0.046-0.673,0.046c-0.115,0-0.207,0.047-0.207,0.139c0,0.143,0.138,0.188,0.438,0.188
	c1.087,0,2.355-0.069,2.609-0.069s1.245,0.069,1.798,0.069c0.208,0,0.345-0.046,0.345-0.188c0-0.092-0.069-0.139-0.23-0.139H79.29
	c-0.393,0-0.877-0.207-0.877-0.668c0-0.415,0.116-0.969,0.323-1.544l1.384-4.082c0.045-0.115,0.115-0.185,0.229-0.185h4.957
	c0.115,0,0.162,0.047,0.208,0.138l2.144,5.673c0.14,0.369,0,0.576-0.138,0.622c-0.092,0.024-0.162,0.069-0.162,0.162
	c0,0.139,0.254,0.139,0.692,0.165c1.591,0.046,3.274,0.046,3.619,0.046c0.254,0,0.462-0.046,0.462-0.188
	c0-0.115-0.093-0.139-0.231-0.139c-0.23,0-0.575-0.021-0.922-0.138c-0.483-0.139-1.152-0.507-1.982-2.56
	c-1.407-3.504-5.026-13.026-5.372-13.902c-0.276-0.715-0.369-0.829-0.507-0.829c-0.139,0-0.23,0.138-0.508,0.898L77.376,78.913
	L77.376,78.913L77.376,78.913z M80.603,73.816c-0.069,0-0.115-0.046-0.069-0.161l2.029-6.225c0.115-0.346,0.23-0.346,0.346,0
	l2.189,6.225c0.023,0.092,0.023,0.161-0.091,0.161H80.603L80.603,73.816z"/>
<path id="path47" inkscape:connector-curvature="0" fill="#FFFFFF" d="M77.376,78.913c-0.416,1.151-0.876,2.028-1.937,2.166
	c-0.185,0.024-0.512,0.046-0.673,0.046c-0.115,0-0.208,0.047-0.208,0.139c0,0.143,0.139,0.188,0.438,0.188
	c0.648,0,1.362-0.025,1.885-0.045c0.581-0.363,0.912-1.063,1.22-1.916l5.233-14.317c0.121-0.333,0.206-0.545,0.275-0.681
	c-0.267-0.686-0.357-0.797-0.493-0.797c-0.139,0-0.23,0.138-0.509,0.899L77.376,78.913L77.376,78.913L77.376,78.913z M79.315,81.451
	c0.031,0,0.062,0.001,0.09,0.001c0.208,0,0.345-0.046,0.345-0.188c0-0.092-0.069-0.139-0.23-0.139h-0.23
	c-0.047,0-0.097-0.004-0.146-0.01C79.161,81.253,79.224,81.364,79.315,81.451L79.315,81.451L79.315,81.451z M85.68,75.225
	l1.978,5.23c0.14,0.37,0,0.577-0.139,0.623c-0.091,0.024-0.161,0.069-0.161,0.162c0,0.139,0.254,0.139,0.692,0.165
	c0.127,0.004,0.254,0.006,0.381,0.009c0.02-0.099,0.011-0.224-0.048-0.38l-2.144-5.672c-0.046-0.092-0.092-0.138-0.207-0.138
	L85.68,75.225L85.68,75.225L85.68,75.225z M91.409,81.451c0.116,0.001,0.206,0.001,0.261,0.001c0.255,0,0.462-0.046,0.462-0.188
	c0-0.115-0.093-0.139-0.231-0.139c-0.23,0-0.575-0.021-0.922-0.138c-0.069-0.02-0.142-0.044-0.217-0.077
	C90.998,81.194,91.215,81.353,91.409,81.451C91.409,81.451,91.409,81.451,91.409,81.451z M83.204,68.269l1.895,5.386
	c0.023,0.092,0.023,0.161-0.091,0.161h-3.612l-0.136,0.418c-0.046,0.115,0,0.161,0.069,0.161h4.404c0.114,0,0.114-0.069,0.092-0.161
	l-2.19-6.226c-0.115-0.346-0.229-0.346-0.346,0L83.204,68.269C83.204,68.269,83.204,68.269,83.204,68.269z"/>
<path id="path49" inkscape:connector-curvature="0" fill="#FFFFFF" d="M33.836,74.763c0,2.212,0,4.034-0.116,5.002
	c-0.093,0.669-0.208,1.177-0.668,1.269c-0.208,0.046-0.484,0.092-0.692,0.092c-0.138,0-0.184,0.069-0.184,0.139
	c0,0.143,0.115,0.188,0.369,0.188c0.691,0,2.144-0.069,2.167-0.069c0.115,0,1.567,0.069,2.835,0.069
	c0.254,0,0.369-0.072,0.369-0.188c0-0.069-0.046-0.139-0.184-0.139c-0.208,0-0.715-0.046-1.038-0.092
	c-0.692-0.092-0.83-0.6-0.899-1.269c-0.116-0.968-0.116-2.79-0.116-5.002v-0.554c0-0.115,0.046-0.186,0.161-0.186l2.836,0.047
	c0.138,0,0.208,0.046,0.299,0.139c0.461,0.6,1.545,2.145,2.514,3.412c1.313,1.729,2.122,2.859,3.113,3.39
	c0.6,0.321,1.175,0.441,2.467,0.441h1.637c0.416,0,0.553-0.046,0.553-0.188c0-0.069-0.092-0.139-0.207-0.139
	c-0.139,0-0.461,0-0.899-0.069c-0.577-0.092-1.569-0.345-2.813-1.659c-1.337-1.43-2.905-3.481-4.796-5.901
	c2.075-1.915,2.79-3.62,2.79-5.327c0-1.591-1.014-2.721-1.59-3.135c-1.222-0.877-2.768-1.016-4.219-1.016
	c-0.715,0-2.468,0.069-2.721,0.069c-0.116,0-1.568-0.069-2.606-0.069c-0.253,0-0.369,0.047-0.369,0.186
	c0,0.092,0.092,0.138,0.185,0.138c0.207,0,0.599,0.023,0.783,0.069c0.761,0.161,0.946,0.53,0.991,1.314
	c0.047,0.737,0.047,1.383,0.047,4.98L33.836,74.763C33.835,74.763,33.836,74.763,33.836,74.763z M35.68,65.171
	c0-0.138,0.069-0.23,0.185-0.276c0.231-0.069,0.853-0.139,1.544-0.139c2.467,0,3.989,1.729,3.989,4.611
	c0,1.752-0.6,2.997-1.406,3.55c-0.53,0.369-1.177,0.438-1.729,0.438c-1.015,0-2.076-0.161-2.421-0.369
	c-0.115-0.069-0.161-0.161-0.161-0.276L35.68,65.171L35.68,65.171z"/>
<path id="path51" inkscape:connector-curvature="0" fill="#FFFFFF" d="M33.836,74.763c0,2.213,0,4.034-0.116,5.002
	c-0.093,0.669-0.208,1.177-0.668,1.269c-0.208,0.046-0.485,0.092-0.692,0.092c-0.138,0-0.184,0.069-0.184,0.139
	c0,0.143,0.114,0.188,0.369,0.188c0.41,0,1.086-0.024,1.575-0.045c0.188-0.225,0.263-0.606,0.326-1.063
	c0.116-0.968,0.116-2.79,0.116-5.003v-4.058c0-3.598,0-4.242-0.046-4.979c-0.043-0.734-0.208-1.104-0.852-1.28
	c0.075,0.186,0.109,0.415,0.126,0.701c0.047,0.737,0.047,1.383,0.047,4.98L33.836,74.763L33.836,74.763z M36.967,81.447
	c0.194,0.003,0.39,0.005,0.581,0.005c0.254,0,0.369-0.072,0.369-0.188c0-0.069-0.046-0.139-0.184-0.139
	c-0.208,0-0.715-0.046-1.038-0.092c-0.012-0.002-0.024-0.004-0.037-0.006C36.724,81.2,36.821,81.344,36.967,81.447
	C36.967,81.447,36.967,81.447,36.967,81.447z M39.303,74.647c0.544,0.741,1.404,1.947,2.188,2.974
	c1.232,1.622,2.019,2.717,2.93,3.283c-0.646-0.621-1.307-1.522-2.204-2.704c-0.969-1.269-2.053-2.813-2.514-3.413
	c-0.091-0.093-0.161-0.138-0.299-0.138L39.303,74.647C39.303,74.647,39.303,74.647,39.303,74.647z M48.164,81.452h0.542
	c0.416,0,0.553-0.046,0.553-0.188c0-0.069-0.092-0.139-0.207-0.139c-0.139,0-0.461,0-0.899-0.068
	c-0.389-0.063-0.968-0.199-1.685-0.685C47.126,80.976,47.7,81.285,48.164,81.452L48.164,81.452z M40.603,73.57
	c-0.02-0.025-0.039-0.051-0.059-0.075c0.417-0.385,0.778-0.76,1.09-1.13c0.303-0.628,0.489-1.446,0.489-2.42
	c0-1.944-0.694-3.363-1.903-4.081c0.756,0.795,1.177,1.989,1.177,3.503c0,1.752-0.6,2.998-1.406,3.55
	c-0.531,0.369-1.176,0.438-1.729,0.438c-0.672,0-1.365-0.069-1.856-0.178v0.111c0,0.114,0.046,0.207,0.162,0.276
	c0.345,0.208,1.406,0.368,2.42,0.368C39.502,73.933,40.095,73.874,40.603,73.57C40.603,73.57,40.603,73.57,40.603,73.57z
	 M42.193,65.43c-0.161-0.168-0.316-0.301-0.448-0.396c-1.222-0.877-2.768-1.016-4.219-1.016c-0.715,0-2.468,0.069-2.721,0.069
	c-0.116,0-1.568-0.069-2.606-0.069c-0.253,0-0.369,0.047-0.369,0.186c0,0.092,0.092,0.138,0.185,0.138
	c0.207,0,0.599,0.023,0.783,0.069c0.213,0.045,0.381,0.107,0.514,0.189c0.979,0.014,2.116,0.066,2.218,0.066
	c0.253,0,2.005-0.069,2.721-0.069C39.595,64.597,41.018,64.716,42.193,65.43L42.193,65.43z"/>
<path id="path53" inkscape:connector-curvature="0" fill="#FFFFFF" d="M105.161,81.775c1.771,0,3.873-0.193,4.979-0.641
	c0.499-0.222,0.554-0.277,0.72-0.803c0.277-0.94,0.609-3.348,0.609-3.541c0-0.222-0.056-0.416-0.194-0.416
	c-0.166,0-0.221,0.11-0.276,0.416c-0.083,0.497-0.442,1.715-1.024,2.324c-1.106,1.135-2.738,1.383-4.813,1.383
	c-5.921,0-9.988-4.842-9.988-10.126c0-2.822,0.471-5.285,2.49-7.222c0.969-0.94,2.684-2.02,6.363-2.02
	c2.435,0,4.565,0.748,5.534,1.577c0.719,0.608,1.162,1.744,1.162,2.822c0,0.388,0.027,0.581,0.221,0.581
	c0.166,0,0.222-0.166,0.25-0.581c0.027-0.415,0.027-1.937,0.082-2.851c0.056-0.995,0.139-1.327,0.139-1.549
	c0-0.166-0.055-0.276-0.359-0.305c-0.886-0.055-1.771-0.222-2.823-0.414c-1.355-0.249-2.904-0.332-4.012-0.332
	c-4.261,0-6.777,1.3-8.438,2.96c-2.463,2.462-3.1,5.699-3.1,7.553c0,2.629,0.664,5.782,3.348,8.189
	C98.216,80.747,101.01,81.775,105.161,81.775L105.161,81.775L105.161,81.775z"/>
<path id="path55" inkscape:connector-curvature="0" fill="#FFFFFF" d="M111.22,78.573c0.143-0.857,0.249-1.674,0.249-1.782
	c0-0.222-0.056-0.416-0.194-0.416c-0.166,0-0.222,0.11-0.276,0.416c-0.083,0.498-0.443,1.715-1.024,2.324
	c-1.105,1.135-2.738,1.383-4.813,1.383c-3.249,0-5.938-1.457-7.706-3.646c1.733,2.582,4.642,4.362,8.233,4.362
	c2.075,0,3.708-0.248,4.813-1.383C110.804,79.514,111.047,79.032,111.22,78.573C111.22,78.573,111.22,78.573,111.22,78.573z
	 M110.221,63.547c0.318,0.583,0.5,1.294,0.5,1.983c0,0.387,0.028,0.581,0.222,0.581c0.162,0,0.218-0.157,0.247-0.551
	C111.058,64.781,110.716,64.035,110.221,63.547L110.221,63.547z M111.375,61.528c0.022-0.184,0.039-0.301,0.039-0.397
	c0-0.166-0.056-0.276-0.36-0.305c-0.886-0.055-1.77-0.222-2.821-0.414c-1.356-0.249-2.905-0.332-4.012-0.332
	c-4.262,0-6.778,1.3-8.438,2.96c-2.463,2.463-3.1,5.699-3.1,7.554c0,2.235,0.482,4.854,2.278,7.067
	c-1.365-2.048-1.751-4.353-1.751-6.353c0-1.854,0.637-5.09,3.1-7.553c1.659-1.66,4.177-2.96,8.438-2.96
	c1.107,0,2.656,0.083,4.013,0.332C109.73,61.306,110.557,61.462,111.375,61.528C111.375,61.528,111.375,61.528,111.375,61.528z"/>
<path id="path57" inkscape:connector-curvature="0" fill="#FFFFFF" d="M3.408,73.652c0,2.656,0,4.842-0.138,6.004
	c-0.111,0.803-0.249,1.41-0.803,1.521c-0.25,0.056-0.582,0.11-0.831,0.11c-0.166,0-0.22,0.083-0.22,0.166
	c0,0.171,0.137,0.227,0.441,0.227c0.831,0,2.574-0.088,2.712-0.088c0.803,0,2.656,0.171,6.833,0.171c1.08,0,1.301,0,1.495-0.725
	c0.139-0.58,0.36-2.462,0.36-2.684c0-0.193,0-0.415-0.166-0.415c-0.138,0-0.194,0.111-0.249,0.415
	c-0.194,1.135-0.526,1.688-1.246,1.993c-0.719,0.303-1.937,0.303-2.655,0.303c-2.712,0-3.127-0.358-3.21-2.268
	c-0.027-0.581,0-3.79,0-4.731v-2.436c0-0.11,0.056-0.193,0.194-0.193c0.471,0,3.21,0.056,3.957,0.139
	c1.08,0.11,1.329,0.581,1.439,0.969c0.109,0.359,0.109,0.636,0.109,0.912c0,0.139,0.056,0.249,0.194,0.249
	c0.193,0,0.193-0.305,0.193-0.525c0-0.193,0.056-1.217,0.111-1.771c0.083-0.913,0.221-1.384,0.221-1.55s-0.055-0.222-0.138-0.222
	c-0.111,0-0.221,0.139-0.415,0.36c-0.25,0.276-0.636,0.332-1.3,0.388c-0.637,0.056-4.039,0.056-4.399,0.056
	c-0.138,0-0.166-0.083-0.166-0.277v-7.636c0-0.193,0.056-0.277,0.166-0.277c0.305,0,3.321,0.028,3.791,0.084
	c1.495,0.166,1.771,0.497,1.964,0.939c0.139,0.332,0.166,0.803,0.166,0.997c0,0.222,0.056,0.359,0.222,0.359
	c0.11,0,0.166-0.166,0.194-0.305c0.055-0.332,0.111-1.549,0.138-1.825c0.083-0.775,0.222-1.107,0.222-1.301
	c0-0.139-0.028-0.249-0.111-0.249c-0.138,0-0.249,0.11-0.388,0.139c-0.221,0.055-0.665,0.11-1.189,0.139
	c-0.637,0.027-6.143,0.027-6.336,0.027c-0.138,0-1.881-0.083-3.126-0.083c-0.304,0-0.443,0.056-0.443,0.221
	c0,0.11,0.111,0.166,0.222,0.166c0.248,0,0.718,0.027,0.94,0.083c0.914,0.193,1.135,0.637,1.19,1.577
	c0.055,0.886,0.055,1.66,0.055,5.976L3.408,73.652C3.408,73.652,3.408,73.652,3.408,73.652z"/>
<path id="path59" inkscape:connector-curvature="0" fill="#FFFFFF" d="M3.408,73.652c0,2.656,0,4.842-0.138,6.003
	c-0.111,0.804-0.25,1.411-0.803,1.522c-0.249,0.056-0.581,0.11-0.83,0.11c-0.166,0-0.221,0.083-0.221,0.166
	c0,0.171,0.138,0.227,0.442,0.227c0.401,0,1.014-0.022,1.556-0.043c0.22-0.271,0.308-0.724,0.383-1.266
	c0.138-1.161,0.138-3.348,0.138-6.004v-4.87c0-4.315,0-5.091-0.055-5.976c-0.042-0.702-0.175-1.126-0.619-1.377
	c0.05,0.188,0.077,0.405,0.092,0.662c0.055,0.885,0.055,1.659,0.055,5.975V73.652C3.408,73.652,3.408,73.652,3.408,73.652z
	 M13.042,80.197c0.11-0.758,0.215-1.689,0.215-1.841c0-0.194,0-0.416-0.166-0.416c-0.138,0-0.194,0.111-0.249,0.416
	c-0.194,1.134-0.526,1.688-1.246,1.991c-0.719,0.304-1.937,0.304-2.656,0.304c-1.289,0-2.059-0.082-2.521-0.371
	c0.284,0.888,1.03,1.087,3.048,1.087c0.719,0,1.937,0,2.655-0.304C12.549,80.885,12.836,80.617,13.042,80.197
	C13.042,80.197,13.042,80.197,13.042,80.197z M11.323,72.14c0.107,0.355,0.107,0.628,0.107,0.903c0,0.138,0.056,0.248,0.194,0.248
	c0.194,0,0.194-0.305,0.194-0.525c0-0.004,0-0.008,0-0.012C11.745,72.541,11.616,72.312,11.323,72.14
	C11.323,72.14,11.323,72.14,11.323,72.14z M11.994,70.418c0.075-0.541,0.156-0.845,0.156-0.972c0-0.166-0.055-0.222-0.138-0.222
	c-0.11,0-0.221,0.139-0.415,0.36c-0.249,0.277-0.636,0.332-1.3,0.388c-0.539,0.047-3.057,0.054-4.038,0.056v0.438
	c0,0.193,0.028,0.276,0.166,0.276c0.36,0,3.763,0,4.399-0.055C11.384,70.641,11.745,70.597,11.994,70.418
	C11.994,70.418,11.994,70.418,11.994,70.418z M11.705,63.016c0.092,0.311,0.113,0.677,0.113,0.842c0,0.222,0.055,0.359,0.221,0.359
	c0.11,0,0.166-0.166,0.194-0.305c0.005-0.033,0.009-0.075,0.015-0.124c-0.019-0.074-0.042-0.146-0.069-0.212
	C12.085,63.362,11.97,63.174,11.705,63.016C11.705,63.016,11.705,63.016,11.705,63.016z M12.469,61.425
	c0.063-0.327,0.124-0.512,0.124-0.638c0-0.139-0.028-0.249-0.111-0.249c-0.138,0-0.249,0.11-0.388,0.139
	c-0.221,0.055-0.665,0.11-1.189,0.139c-0.636,0.027-6.142,0.027-6.336,0.027c-0.139,0-1.881-0.083-3.126-0.083
	C1.139,60.76,1,60.816,1,60.981c0,0.11,0.111,0.166,0.222,0.166c0.248,0,0.718,0.027,0.94,0.083c0.281,0.06,0.498,0.143,0.663,0.257
	c1.068,0.022,2.164,0.072,2.272,0.072c0.194,0,5.7,0,6.336-0.028C11.856,61.509,12.226,61.469,12.469,61.425
	C12.469,61.425,12.469,61.425,12.469,61.425z"/>
<polygon id="polygon61" fill="#FFFFFF" points="1.184,83.204 158.936,83.204 158.936,83.57 1.184,83.57 "/>
</svg>
