<?xml version="1.0" encoding="utf-8"?>
<!-- Generator: Adobe Illustrator 22.0.1, SVG Export Plug-In . SVG Version: 6.00 Build 0)  -->
<svg version="1.1"
	 id="svg2" inkscape:version="0.48.1 " sodipodi:docname="Logo_Fiat.svg" xmlns:cc="http://creativecommons.org/ns#" xmlns:dc="http://purl.org/dc/elements/1.1/" xmlns:inkscape="http://www.inkscape.org/namespaces/inkscape" xmlns:rdf="http://www.w3.org/1999/02/22-rdf-syntax-ns#" xmlns:sodipodi="http://sodipodi.sourceforge.net/DTD/sodipodi-0.dtd" xmlns:svg="http://www.w3.org/2000/svg"
	 xmlns="http://www.w3.org/2000/svg" xmlns:xlink="http://www.w3.org/1999/xlink" x="0px" y="0px"
	 viewBox="-113 122.671 526 54.657" enable-background="new -113 122.671 526 54.657" xml:space="preserve">
<g>
	<path fill="#FFFFFF" d="M310.601,163.066c0.756,0,1.47-0.293,2.004-0.828c0.53-0.537,0.837-1.25,0.837-2.011
		c0-0.761-0.307-1.468-0.837-2.003c-0.534-0.535-1.248-0.827-2.004-0.827c-1.571,0-2.841,1.267-2.841,2.83
		c0,0.761,0.289,1.474,0.828,2.011C309.129,162.773,309.838,163.066,310.601,163.066 M308.232,160.228
		c0-0.632,0.252-1.216,0.698-1.665c0.441-0.447,1.036-0.69,1.67-0.69c0.628,0,1.215,0.243,1.67,0.69
		c0.44,0.449,0.685,1.033,0.685,1.665c0,1.304-1.054,2.364-2.354,2.364c-0.634,0-1.228-0.248-1.67-0.694
		C308.484,161.451,308.232,160.861,308.232,160.228"/>
	<path fill="#FFFFFF" d="M311.996,161.549l-0.09-0.137l-0.025-0.24l-0.022-0.406c-0.004-0.193-0.044-0.332-0.109-0.424l-0.19-0.151
		l0.235-0.23c0.087-0.127,0.123-0.293,0.123-0.484c0-0.373-0.147-0.637-0.462-0.775c-0.158-0.073-0.361-0.11-0.598-0.11h-1.404
		h-0.064v0.069v3.023v0.07h0.064h0.416h0.066v-0.07v-1.227h0.863l0.34,0.051c0.107,0.056,0.168,0.169,0.184,0.334l0.015,0.51
		l0.022,0.245l0.045,0.121l0.022,0.037h0.036h0.5h0.076v-0.07v-0.07v-0.041L311.996,161.549z M311.367,159.516
		c0,0.176-0.043,0.295-0.139,0.361c-0.099,0.066-0.236,0.098-0.414,0.098h-0.877v-0.893h0.93l0.307,0.056
		C311.299,159.201,311.367,159.328,311.367,159.516"/>
	<path fill="#FFFFFF" d="M79.069,126.982l-15.346-0.005l-0.113,0.102v35.882l0.113,0.105h6.215l0.109-0.105v-31.977l0.042-0.056
		l7.108-0.012c2.593,0,4.011,2.605,4.011,7.355c0,4.736-1.418,7.351-4.011,7.351l-4.275-0.007l-0.112,0.111v3.719l0.112,0.116h6.146
		c2.141,0,4.264-0.998,5.806-2.733c1.818-2.041,2.777-4.994,2.777-8.534C87.652,131.42,84.281,126.982,79.069,126.982"/>
	<polygon fill="#FFFFFF" points="97.803,126.977 91.588,126.977 91.479,127.079 91.479,162.961 91.588,163.066 97.803,163.066 
		97.917,162.961 97.917,127.079 	"/>
	<path fill="#FFFFFF" d="M124.951,135.706l-0.122-0.116h-11.092c-9.926,0-11.195,7.311-11.195,13.711l0.011,5.543
		c0,4.762,2.957,8.223,7.044,8.223h6.038l0.112-0.105v-3.72l-0.112-0.108h-4.317c-1.002-0.02-2.338-0.441-2.341-3.85v-5.982
		c0-3.98,0.383-6.514,1.199-7.956c0.89-1.6,2.296-1.816,3.562-1.816l4.737,0.001l0.045,0.055v23.376l0.102,0.105h6.216l0.114-0.105
		v-27.086V135.706z"/>
	<path fill="#FFFFFF" d="M169.694,141.997l-3.069-0.235c-2.285-0.193-4.002-1.464-4.002-5.246c0-4.398,1.988-5.588,4.604-5.588
		h8.477l0.111-0.112v-3.737l-0.111-0.102h-0.166h-0.01h-9.176c-5.789,0-9.911,3.398-9.911,10.174v0.279
		c0,5.37,3.29,9.22,8.188,9.589l3.064,0.234c2.311,0.181,3.75,2.245,3.75,5.407v0.891c0,1.983-0.48,5.584-4.707,5.584H158.1h-0.168
		l-0.113,0.106v3.72l0.113,0.105h10.914c3.383,0,9.033-1.364,9.033-10.543c0-3.303-0.773-5.931-2.291-7.817
		C174.271,143.089,172.349,142.203,169.694,141.997"/>
	<path fill="#FFFFFF" d="M220.648,135.706l-0.111-0.116h-11.092c-9.924,0-11.193,7.311-11.193,13.711v5.543
		c0,4.762,2.962,8.223,7.045,8.223h6.043l0.109-0.105v-3.72l-0.109-0.108h-4.316c-1.004-0.02-2.338-0.441-2.338-3.85v-5.982
		c0-3.98,0.371-6.514,1.19-7.956c0.887-1.6,2.307-1.816,3.563-1.816l4.743,0.001l0.037,0.055l-0.008,23.376l0.107,0.105h6.223
		l0.114-0.105L220.648,135.706z"/>
	<path fill="#FFFFFF" d="M195.648,135.59h-6.727l-0.047-0.035v-0.032v-4.482l-0.102-0.112h-6.223l-0.105,0.112v23.811
		c0,4.762,2.957,8.215,7.049,8.215h4.458l0.105-0.105v-3.72l-0.105-0.108h-2.74c-0.702-0.02-2.337-0.051-2.337-3.565v-16.006
		l0.047-0.04c2.045,0.009,6.727,0,6.727,0l0.111-0.111v-3.704L195.648,135.59z"/>
	<path fill="#FFFFFF" d="M239.066,135.59h-6.727l-0.035-0.035v-0.032v-4.482l-0.113-0.112h-6.215l-0.115,0.112v23.811
		c0,4.762,2.966,8.215,7.057,8.215h4.449l0.115-0.105v-3.72l-0.115-0.108h-2.746c-0.682-0.02-2.316-0.051-2.322-3.565v-16.006
		l0.035-0.04c2.062,0.009,6.732,0,6.732,0l0.107-0.111v-3.704L239.066,135.59z"/>
	<polygon fill="#FFFFFF" points="249.35,135.59 243.131,135.59 243.023,135.706 243.023,162.961 243.131,163.066 249.35,163.066 
		249.461,162.961 249.461,135.706 	"/>
	<polygon fill="#FFFFFF" points="249.35,126.977 243.131,126.977 243.023,127.079 243.023,132.289 243.131,132.401 249.35,132.401 
		249.461,132.289 249.461,127.079 	"/>
	<path fill="#FFFFFF" d="M292.346,135.59H281.25l-0.11,0.116l-0.007,27.255l0.115,0.105h6.213l0.109-0.105l-0.01-23.39l0.043-0.04
		l4.742-0.001c1.266,0,2.678,0.2,3.566,1.68c0.822,1.34,1.206,3.683,1.206,7.378c0,0.167-0.011,14.374-0.011,14.374l0.103,0.105
		h6.215l0.113-0.105v-13.66C303.539,142.902,302.271,135.59,292.346,135.59"/>
	<path fill="#FFFFFF" d="M265.309,135.59c-10.376,0-11.712,7.348-11.712,13.75c0,6.397,1.336,13.75,11.708,13.75
		c10.393,0,11.719-7.354,11.719-13.75C277.023,142.938,275.697,135.59,265.309,135.59 M269.259,157.328
		c-0.987,1.605-2.551,1.822-3.95,1.822c-1.396,0-2.958-0.217-3.944-1.822c-0.895-1.457-1.312-3.991-1.312-7.989v-0.033
		c0-4.729,0.586-7.415,1.892-8.696c0.767-0.759,1.775-1.081,3.364-1.081c1.586,0,2.594,0.322,3.37,1.081
		c1.302,1.281,1.894,3.978,1.886,8.729C270.564,153.337,270.155,155.879,269.259,157.328"/>
	<polygon fill="#FFFFFF" points="128.453,135.59 128.375,135.692 137.586,162.706 137.586,162.926 132.406,176.307 132.471,176.417 
		137.878,176.417 138.035,176.307 154.23,135.692 154.168,135.59 148.26,135.59 148.108,135.692 141.246,153.447 141.165,153.447 
		135.127,135.692 134.977,135.59 	"/>
</g>
<g>
	<path fill="#FFFFFF" d="M16.599,124.171v36.989l8.37,2.656v-31.025c0-1.45,0.648-2.424,1.696-2.088
		c1.365,0.38,1.631,1.719,1.631,3.171v12.389c5.218,2.519,9.322-0.002,9.322-6.649c0-6.824-2.401-9.855-9.489-12.282
		C25.341,126.391,20.157,124.831,16.599,124.171"/>
	<path fill="#FFFFFF" d="M26.553,158.408l13.462-4.795c1.53-0.547,1.762-1.324,0.522-1.729c-1.24-0.408-3.485-0.288-5.012,0.258
		l-8.973,3.161v-5.031l0.522-0.176c0,0,2.59-0.914,6.231-1.318c3.645-0.401,8.107,0.056,11.614,1.383
		c3.945,1.248,4.39,3.085,3.387,4.351c-1.004,1.266-3.461,2.169-3.461,2.169l-18.293,6.572V158.408z"/>
	<path fill="#FFFFFF" d="M1.244,157.9c-4.052-1.143-4.727-3.518-2.882-4.887c1.711-1.268,4.615-2.219,4.615-2.219l11.995-4.264
		v4.862l-8.631,3.088c-1.53,0.551-1.762,1.324-0.522,1.728c1.24,0.404,3.486,0.292,5.015-0.256l4.138-1.504v4.35
		c-0.263,0.049-0.555,0.094-0.826,0.141C10.005,159.613,5.595,159.334,1.244,157.9"/>
	<path fill="#FFFFFF" d="M46.353,165.486c0.657,0,1.276-0.256,1.742-0.724c0.465-0.464,0.722-1.083,0.722-1.74
		c0-0.661-0.257-1.28-0.722-1.743c-0.466-0.471-1.085-0.723-1.742-0.723c-1.359,0-2.466,1.105-2.466,2.466
		c0,0.657,0.258,1.276,0.724,1.74C45.075,165.231,45.694,165.486,46.353,165.486 M44.301,163.023c0-0.55,0.213-1.066,0.603-1.452
		c0.385-0.387,0.902-0.6,1.449-0.6c0.548,0,1.062,0.213,1.447,0.6c0.391,0.387,0.606,0.902,0.606,1.452
		c0,1.13-0.924,2.05-2.052,2.05c-0.547,0-1.064-0.215-1.449-0.604C44.514,164.084,44.301,163.568,44.301,163.023"/>
	<path fill="#FFFFFF" d="M47.565,164.168l-0.079-0.121l-0.021-0.211l-0.017-0.352c-0.005-0.166-0.038-0.286-0.093-0.363
		l-0.166-0.136l0.207-0.202c0.07-0.111,0.106-0.25,0.106-0.416c0-0.328-0.137-0.553-0.405-0.68c-0.139-0.057-0.31-0.089-0.519-0.089
		h-1.213h-0.067v0.06v2.625v0.059h0.067h0.353h0.063v-0.059v-1.066h0.749l0.292,0.045l0.155,0.289l0.02,0.439l0.023,0.215
		l0.035,0.105l0.014,0.031h0.036h0.438h0.063v-0.059v-0.059v-0.042L47.565,164.168z M47.022,162.4l-0.119,0.311l-0.364,0.088h-0.758
		v-0.773h0.806l0.267,0.046C46.966,162.129,47.022,162.234,47.022,162.4"/>
</g>
</svg>
