<?xml version="1.0" encoding="utf-8"?>
<!-- Generator: Adobe Illustrator 22.0.1, SVG Export Plug-In . SVG Version: 6.00 Build 0)  -->
<svg version="1.1"
	 id="Layer_1" inkscape:version="0.92.2 (5c3e80d, 2017-08-06)" sodipodi:docname="StudioCanal (2011) (Print).svg" xmlns:cc="http://creativecommons.org/ns#" xmlns:dc="http://purl.org/dc/elements/1.1/" xmlns:inkscape="http://www.inkscape.org/namespaces/inkscape" xmlns:rdf="http://www.w3.org/1999/02/22-rdf-syntax-ns#" xmlns:sodipodi="http://sodipodi.sourceforge.net/DTD/sodipodi-0.dtd" xmlns:svg="http://www.w3.org/2000/svg"
	 xmlns="http://www.w3.org/2000/svg" xmlns:xlink="http://www.w3.org/1999/xlink" x="0px" y="0px" viewBox="0 0 1500 174.3"
	 style="enable-background:new 0 0 1500 174.3;" xml:space="preserve">
<style type="text/css">
	.st0{fill:#FFFFFF;}
</style>
<sodipodi:namedview  bordercolor="#666666" borderopacity="1" gridtolerance="10" guidetolerance="10" id="namedview27" inkscape:current-layer="Layer_1" inkscape:cx="399.94473" inkscape:cy="92.693067" inkscape:pageopacity="0" inkscape:pageshadow="2" inkscape:window-height="705" inkscape:window-maximized="1" inkscape:window-width="1366" inkscape:window-x="-8" inkscape:window-y="-8" inkscape:zoom="0.83513565" objecttolerance="10" pagecolor="#ffffff" showgrid="false">
	</sodipodi:namedview>
<path id="path2" class="st0" d="M304.5,0C274.4,0,250,24.4,250,54.5v119.8h945.5c30.1,0,54.5-24.4,54.5-54.5V0H304.5z M710.3,37.1
	c15.6,0,28.5,4.9,38.7,14.6c4.2,4,7.5,8.4,10,13.2l2.5-4.3c5.7-8.5,13.3-14.8,22.9-18.8c6.2-2.7,12.7-4,19.8-4
	c4.8,0,9.9,0.8,15.5,2.2c1.7,0.3,3,0.8,4.1,1.4l1.4,0.6l1.8,2.6v24.9l-0.6,0.8l-1.2-0.6c-1.9-1.9-4.8-3.5-8.5-4.8
	c-4-1.5-7.6-2.1-10.7-2.1c-11.2,0-20.7,5.9-24.9,15.9c-1.4,3.1-2.1,6.7-2.1,10.5c0,7.3,2.7,13.2,8.1,17.9c5,4.2,11.2,6.4,18.6,6.4
	c8.4,0,14.8-2.4,19.6-7.1l1-0.8c0.5,0,0.7,0.8,0.7,2.5v24c0,1.4-1.1,2.6-3.6,3.5c-6.9,2.3-13.2,3.4-19.1,3.4
	c-8.9,0-17.4-2.2-25.7-6.7c-8.9-4.9-15.7-11.7-20-19.8c-2.5,4.7-5.9,9-10,13c-10.3,9.7-23,14.4-37.9,14.4
	c-15.1,0-27.9-4.9-38.2-14.6c-10.2-9.9-15.3-21.8-15.3-36.2c0-11,2.8-20.8,8.5-29.4c5.7-8.6,13.5-15.1,23.5-19.1
	C695.7,38.4,702.6,37.1,710.3,37.1z M333.1,37.6c10.5,0,20.8,2.6,30.7,7.9l-10.1,19.6c-5.2-4.4-10.7-6.6-16.3-6.6
	c-2.7,0-5.2,0.6-7.2,2c-2.5,1.5-3.6,3.7-3.6,6.3c0,2.8,1.9,5.1,5.3,6.8c1,0.5,5.1,1.9,12.2,4.2c7.9,2.4,13.8,5.6,17.5,9.7
	c4.1,4.4,6.2,10.1,6.2,17.3c0,7.1-1.2,12.9-3.6,17.5c-3,5.7-7.7,10.1-14.6,13.2c-5.8,2.5-12.4,3.8-19.5,3.8s-14.3-1.5-21.9-4.7
	c-3.7-1.5-6.7-2.9-8.6-4.3l-3.1-2l10.6-20.3c7.6,6.6,15,9.8,22.2,9.8c3.5,0,6.2-0.8,8.4-2.2c2.5-1.7,3.7-4.1,3.7-7.4
	c0-2.6-1.2-5.1-3.9-7c-1.3-0.9-3.2-1.7-6-2.6c-0.9-0.3-2.6-0.8-5.2-1.5l-5.2-1.5c-3.3-0.9-6.3-2.2-9.6-3.8
	c-7.5-3.9-11.2-11.1-11.2-21.5c0-9.8,3.1-17.7,9.2-23.6C315.5,40.6,323.5,37.6,333.1,37.6z M624.9,40H650v96.7h-25.1V40z M368.4,40
	h66.4v21.2h-20.9v75.5h-25.2V61.2h-20.3C368.4,61.2,368.4,40,368.4,40z M441.1,40h25.1v52.3c0,6.1,0.1,9.8,0.5,11.4
	c0.4,2,1,4,2.2,5.9c2.8,5.1,7.5,7.5,14,7.5c6.8,0,11.8-2.5,14.7-7.8c1.7-3.1,2.6-8.8,2.6-16.9V40h25.1v55.9c0,6.6-0.5,11.9-1.7,15.9
	c-1.4,5-4,9.5-7.7,13.8c-8.1,9.1-19.4,13.6-33.4,13.6c-6.8,0-13.3-1.1-19.1-3.3c-13.4-5.2-20.6-14.9-22-30.5c-0.3-2.9-0.4-6-0.4-9.6
	V40H441.1z M533,40h37c12.7,0,23.9,4.9,33.3,14.5c9.5,9.7,14.3,20.9,14.3,33.8c0,13-4.8,24.4-14.2,34.1C594,132,583,136.7,570,136.7
	h-37V40z M867.5,40h27.4l36.6,96.7h-26.9l-6.3-16.8h-34.7l-6.6,16.8h-26.6L867.5,40z M936.4,40h25.2l46.2,59.2V40h25.1v96.7h-25.1
	l-46.2-59.2v59.2h-25.2V40z M1075.1,40h27.3l36.5,96.7H1112l-6.3-16.8H1071l-6.6,16.8h-26.6L1075.1,40z M1144,40h25.2v75.5h30.2
	v21.2H1144V40z M558.1,61.2v54.3h5.7c16.5,0,27.5-10.7,27.5-27.1c0-16.6-11-27.2-27.5-27.2H558.1z M710.8,61.5
	c-7.4,0-13.8,2.7-19.2,8c-5.3,5.3-8,11.4-8,18.8c0,7.6,2.6,14.2,7.9,19.4c5.3,5.3,11.7,8,19.4,8c7.6,0,13.9-2.7,19.2-8
	c5.3-5.3,8-11.8,8-19.2c0-7.6-2.7-13.9-8-19.2C724.7,64.1,718.3,61.5,710.8,61.5z M881.1,69.9l-10.6,30.8h20.9L881.1,69.9z
	 M1088.7,69.9l-10.6,30.8h20.9L1088.7,69.9z"/>
</svg>
