<?xml version="1.0" encoding="utf-8"?>
<!-- Generator: Adobe Illustrator 22.0.1, SVG Export Plug-In . SVG Version: 6.00 Build 0)  -->
<svg version="1.1"
	 id="svg6683" inkscape:version="0.48.1 " sodipodi:docname="Neues Dokument 3" xmlns:cc="http://creativecommons.org/ns#" xmlns:dc="http://purl.org/dc/elements/1.1/" xmlns:inkscape="http://www.inkscape.org/namespaces/inkscape" xmlns:rdf="http://www.w3.org/1999/02/22-rdf-syntax-ns#" xmlns:sodipodi="http://sodipodi.sourceforge.net/DTD/sodipodi-0.dtd" xmlns:svg="http://www.w3.org/2000/svg"
	 xmlns="http://www.w3.org/2000/svg" xmlns:xlink="http://www.w3.org/1999/xlink" x="0px" y="0px" viewBox="0 0 964.39 520"
	 enable-background="new 0 0 964.39 520" xml:space="preserve">
<sodipodi:namedview  bordercolor="#666666" borderopacity="1.0" fit-margin-bottom="0" fit-margin-left="0" fit-margin-right="0" fit-margin-top="0" id="base" inkscape:current-layer="layer1" inkscape:cx="482.19502" inkscape:cy="182.38034" inkscape:document-units="px" inkscape:pageopacity="0.0" inkscape:pageshadow="2" inkscape:window-height="990" inkscape:window-maximized="1" inkscape:window-width="1680" inkscape:window-x="-4" inkscape:window-y="-4" inkscape:zoom="1.546" pagecolor="#ffffff" showgrid="false">
	</sodipodi:namedview>
<g id="layer1" transform="translate(-1814.4818,26.641604)" inkscape:groupmode="layer" inkscape:label="Ebene 1">
	<g id="g3276" transform="matrix(63.702707,0,0,-63.702707,2347.7332,-0.77963163)">
		<path id="path3278" inkscape:connector-curvature="0" fill="#FFFFFF" d="M0,0c-0.189,0.046-0.396,0.01-0.391,0.003
			C-0.411,0.01-0.45,0.024-0.471,0.02c-0.003-0.002-0.006-0.003-0.008-0.003c0.005-0.002,0.01-0.004,0.014-0.006
			c-0.014-0.005-0.019,0.001-0.03,0.004c0.007-0.01,0.006-0.008,0-0.018c0-0.001,0.001-0.003,0.002-0.004
			c0.03-0.007,0.06-0.02,0.102-0.015v0.002C-0.4-0.01-0.421-0.008-0.431,0c-0.002,0-0.003,0-0.004,0c0,0.001,0,0.001,0,0.002
			c0.027-0.005,0.05-0.018,0.07-0.03c0.003,0.002,0.006,0.004,0.008,0.006c-0.006-0.012-0.015-0.015-0.01-0.027
			c-0.047,0.008-0.08,0.024-0.097-0.026C-0.46-0.08-0.455-0.084-0.45-0.088C-0.453-0.09-0.457-0.091-0.46-0.092
			C-0.461-0.096-0.462-0.1-0.463-0.104c0.018-0.017,0.029-0.026,0.051-0.034c0.001-0.01,0.002-0.019,0.004-0.028
			c0.006-0.004,0.006-0.003,0.013-0.002c0.01-0.009,0.003-0.017,0.008-0.023c0.012-0.015,0.06-0.039,0.07-0.054
			c0.004-0.005,0.001-0.013,0.009-0.019c0.017-0.011,0.037-0.018,0.051-0.03c0.006-0.003,0.002-0.001,0-0.007
			c0.034-0.016,0.086-0.014,0.115-0.031C-0.137-0.337-0.14-0.334-0.14-0.343c0.028-0.008,0.058-0.015,0.087-0.023
			c0.002,0,0.004,0.001,0.007,0.002c0.001,0.007,0.001,0.007-0.002,0.014c0.018,0.011,0.022,0.029,0.034,0.043
			C-0.02-0.296-0.022-0.295-0.02-0.28c0.024,0.003,0.032,0.017,0.052,0.022C0.029-0.247,0.031-0.245,0.021-0.239
			c0.006,0.004,0.005,0.002,0.013,0c0.002,0.002,0.004,0.004,0.007,0.006c-0.007,0.005-0.013,0.011-0.02,0.017
			c-0.001,0-0.003,0-0.004,0v0.002C0.029-0.217,0.04-0.219,0.053-0.217c0.003,0,0.004,0.001,0.005,0.001
			C0.056-0.212,0.052-0.208,0.049-0.204C0.05-0.203,0.051-0.203,0.051-0.202c0.017-0.01,0.027-0.011,0.052-0.011
			c0.001,0.006,0.003,0.012,0.004,0.017c0.004,0.001,0.007,0.001,0.011,0.002C0.114-0.2,0.111-0.205,0.107-0.21
			c0.001-0.002,0.002-0.004,0.002-0.005C0.16-0.226,0.194-0.206,0.242-0.199v0.013C0.3-0.169,0.381-0.205,0.437-0.2
			C0.455-0.199,0.232-0.057,0,0"/>
	</g>
	<g id="g3280" transform="matrix(63.702707,0,0,-63.702707,2279.5102,5.8454503)">
		<path id="path3282" inkscape:connector-curvature="0" fill="#FFFFFF" d="M0,0c0.027-0.004,0.063-0.007,0.092-0.021
			c0.03-0.013,0.037-0.033,0.07-0.038C0.154-0.064,0.151-0.061,0.141-0.058c0.007-0.013,0.015-0.02,0.034-0.023
			C0.171-0.082,0.168-0.083,0.166-0.085C0.175-0.093,0.18-0.098,0.191-0.104c0.003,0,0.006,0,0.009,0
			c-0.003,0.009-0.001,0.007-0.009,0.01v0.002c0.063-0.019,0.12-0.064,0.191-0.075c0.003,0.01-0.001,0.005,0.008,0.006
			c0,0.001,0,0.002,0,0.002C0.369-0.131,0.32-0.101,0.286-0.087c0,0.004-0.001,0.005-0.002,0.009C0.297-0.086,0.312-0.093,0.325-0.1
			c0,0.003,0,0.006,0,0.008c0.038-0.023,0.083-0.049,0.122-0.072c0.003,0.001,0.007,0.001,0.01,0.002c0.001,0,0.003,0,0.004,0v0.002
			c-0.013,0.008-0.02,0.007-0.03,0.021c0.007-0.002,0.012-0.004,0.018-0.006c0.001,0,0.001,0,0.002,0
			C0.452-0.138,0.45-0.136,0.445-0.129c0.001,0.001,0.001,0.003,0.002,0.004c0.005-0.003,0.004-0.002,0.006-0.008
			c0.013,0.001,0.009,0.002,0.016,0.01c0.003-0.008,0.004-0.008,0.01-0.013c0.001,0,0.002,0,0.002,0
			C0.48-0.133,0.479-0.13,0.477-0.128c0.005,0,0.01,0,0.015,0c0,0.001,0,0.003,0,0.004C0.48-0.115,0.469-0.107,0.452-0.102
			C0.451-0.101,0.45-0.099,0.45-0.098c0.004,0.001,0.008,0.001,0.012,0.002c0,0,0,0.001,0,0.002
			c-0.011,0.009-0.049,0.04-0.076,0.036c0,0.013-0.006,0.029-0.022,0.033c0.006,0,0.013,0,0.018,0
			c0.001,0.001,0.002,0.003,0.002,0.004C0.382-0.017,0.379-0.016,0.376-0.012c0.028-0.002,0.052-0.025,0.077-0.026
			C0.444-0.066,0.499-0.074,0.518-0.089c0.014,0.002,0.014,0.007,0.025,0.007C0.54-0.081,0.538-0.078,0.536-0.077
			C0.539-0.07,0.538-0.073,0.543-0.069c0.01-0.004,0.021-0.008,0.032-0.003c0-0.002,0-0.005,0-0.009c0.005,0,0.009,0,0.014,0
			C0.587-0.077,0.585-0.074,0.583-0.072c0.007,0.004,0.001,0.002,0.009,0C0.594-0.071,0.596-0.071,0.598-0.07
			C0.595-0.066,0.592-0.062,0.59-0.058c0.019-0.005,0.027-0.004,0.043-0.001C0.627-0.04,0.604-0.033,0.582-0.035
			C0.579-0.029,0.583-0.032,0.588-0.029c-0.007,0-0.014,0-0.021,0.001C0.559-0.025,0.553-0.012,0.53-0.011
			c0.005,0.004,0.001,0.002,0.009,0.004C0.532,0,0.512,0.01,0.498,0.01C0.497,0.011,0.495,0.012,0.494,0.014
			C0.497,0.016,0.5,0.017,0.503,0.019C0.48,0.023,0.475,0.029,0.46,0.021C0.447,0.032,0.448,0.037,0.426,0.04
			C0.427,0.042,0.429,0.044,0.43,0.046C0.413,0.051,0.396,0.055,0.379,0.059c0,0.001,0,0.002,0,0.002
			c0.005,0.001,0.009,0.001,0.013,0.002C0.393,0.071,0.393,0.068,0.39,0.075c0.016-0.004,0.031-0.008,0.048-0.013
			C0.439,0.064,0.44,0.065,0.442,0.066c-0.01,0.01-0.024,0.016-0.038,0.016c0,0.001,0.001,0.004,0.002,0.006
			C0.413,0.086,0.421,0.082,0.429,0.08c0,0.002,0.001,0.002,0.002,0.002c0,0.003,0,0.005,0,0.007
			C0.412,0.103,0.408,0.104,0.378,0.102c0.007,0.009,0.009,0.006,0.021,0.007v0.002C0.378,0.128,0.346,0.12,0.323,0.133
			c0,0-0.02,0.023-0.024,0.025c-0.015,0.009-0.07,0.019-0.08,0.02C0.22,0.181,0.222,0.183,0.223,0.185
			C0.202,0.194,0.182,0.2,0.16,0.211H0.155H0.16C0.165,0.21,0.171,0.21,0.177,0.21c0,0.001,0,0.003,0,0.003
			C0.166,0.229,0.069,0.189,0.052,0.164C0.045,0.168,0.091,0.129,0.079,0.131C0.077,0.129,0.076,0.127,0.073,0.125H0.069
			c0.007-0.01,0.052-0.008,0.062-0.008c0.001-0.002,0.002-0.004,0.002-0.005c-0.007-0.004-0.01,0.003-0.02,0
			c-0.002,0-0.003,0-0.005,0c0.006-0.015,0.02-0.011,0.035-0.006C0.145,0.101,0.146,0.095,0.148,0.09
			c-0.01,0.003-0.015,0.004-0.027,0.004c0.004-0.015,0.03-0.018,0.048-0.019C0.17,0.078,0.17,0.08,0.171,0.083
			C0.164,0.086,0.157,0.087,0.15,0.088C0.151,0.092,0.152,0.096,0.153,0.1c0.012-0.004,0.018-0.011,0.036-0.014
			c0.003-0.011,0.006-0.022,0.01-0.033C0.165,0.049,0.131,0.045,0.098,0.042C0.097,0.04,0.096,0.039,0.095,0.038
			c0.007-0.007,0.015-0.014,0.022-0.02V0.016C0.093,0.022,0.067,0.017,0.046,0.02c-0.047,0.008-0.083,0.033-0.129,0.005
			c0.001-0.002,0.002-0.004,0.002-0.006C-0.068-0.005-0.027,0.004,0,0 M-1.473-4.628c0.026-0.042,0.049-0.101,0.082-0.135
			c0.07-0.071,0.183-0.109,0.227-0.201c0.021-0.021,0.042-0.041,0.063-0.062c-0.001-0.009-0.002-0.02-0.003-0.029
			c0.003-0.029,0.016-0.069,0.011-0.099C-1.095-5.168-1.1-5.186-1.098-5.2c0.002-0.011,0.004-0.02,0.006-0.029
			C-1.097-5.258-1.11-5.288-1.11-5.325c-0.009-0.003-0.004-0.001-0.015,0c0-0.01-0.001-0.021-0.001-0.031h0.01
			c-0.003-0.019-0.005-0.038-0.008-0.057c0.003-0.019,0.005-0.038,0.007-0.058c-0.002-0.007-0.014-0.01-0.016-0.021
			c0.001-0.007,0.003-0.016,0.004-0.023C-1.132-5.553-1.14-5.587-1.151-5.61c-0.012-0.023,0-0.047-0.02-0.061
			C-1.168-5.702-1.158-5.717-1.16-5.75c-0.008-0.002-0.005-0.002-0.014-0.002c-0.006-0.072,0.03-0.111,0.008-0.165
			c0.003-0.001,0.011-0.023,0.008-0.03c-0.018-0.048-0.039-0.094-0.043-0.15c-0.002,0.003-0.004,0.004-0.007,0.006
			c0-0.011,0-0.02,0-0.029C-1.214-6.118-1.22-6.116-1.226-6.114c-0.001,0-0.002-0.001-0.002-0.002
			c0.004-0.039,0.023-0.082,0.039-0.116c-0.002-0.045-0.029-0.058,0.005-0.11c0-0.003,0-0.006,0-0.009
			c-0.003,0.002-0.007,0.004-0.01,0.007C-1.201-6.365-1.19-6.387-1.195-6.412c0.007-0.009,0.015-0.01,0.027-0.015
			c0.003,0,0.005,0.001,0.007,0.002c0.004,0.023,0.002,0.05-0.009,0.067c0.001,0.002,0.003,0.004,0.004,0.005
			c0.005-0.002,0.01-0.005,0.014-0.007h0.003c-0.002,0.01,0.004,0.008-0.005,0.009c0.002,0.003,0.003,0.006,0.004,0.009
			c0.004-0.004,0.007-0.009,0.012-0.013C-1.14-6.359-1.143-6.361-1.145-6.364c0.011-0.008,0.016-0.032,0.002-0.037
			c0.005-0.003,0.008-0.006,0.012-0.009c-0.006-0.036,0.001-0.062,0-0.101h-0.004C-1.138-6.5-1.147-6.467-1.142-6.464
			C-1.15-6.452-1.158-6.445-1.171-6.44c-0.008-0.01-0.012-0.024-0.014-0.039c0.006-0.006,0.012-0.012,0.018-0.018
			c-0.001-0.01-0.001-0.019-0.002-0.03h-0.015v-0.002c0.002-0.004,0.004-0.009,0.006-0.013C-1.183-6.546-1.189-6.55-1.194-6.555
			c0-0.003,0-0.006,0-0.009c0.005-0.003,0.009-0.005,0.014-0.008c0.003,0.003,0.007,0.005,0.009,0.008
			c0.01-0.008,0.029-0.011,0.039-0.022C-1.135-6.585-1.138-6.583-1.14-6.583c0.003-0.007,0.002-0.005,0.006-0.009
			C-1.136-6.599-1.138-6.606-1.14-6.613c-0.008,0.005-0.01,0.007-0.022,0.008v-0.002c0.002-0.002,0.004-0.004,0.006-0.006
			c-0.003-0.002-0.007-0.004-0.01-0.006c0.011-0.022,0.014-0.054,0.028-0.072c0.01-0.005,0.02-0.01,0.03-0.015
			C-1.114-6.704-1.12-6.703-1.125-6.702v-0.002c0.002-0.008,0.004-0.017,0.006-0.026c0.004-0.001,0.007-0.003,0.012-0.004
			c0.002,0.006,0.005,0.013,0.008,0.02C-1.097-6.72-1.095-6.725-1.093-6.73h-0.008c-0.001-0.001-0.002-0.001-0.002-0.002
			c0.008-0.012,0.01-0.018,0.01-0.036c0.009,0.002,0.018,0.005,0.026,0.008c0.005-0.005,0.004-0.006,0.013-0.008
			c-0.002-0.003-0.003-0.006-0.004-0.009C-1.065-6.775-1.072-6.773-1.08-6.771c-0.001-0.001-0.001-0.002-0.002-0.004
			c0.008-0.014,0.019-0.022,0.032-0.03c-0.001,0.003-0.003,0.006-0.004,0.008c0.013-0.009,0.024-0.019,0.036-0.03v-0.002
			c-0.011,0.005-0.022,0.01-0.034,0.016c0.015-0.019,0.026-0.025,0.044-0.028c-0.002-0.007,0-0.001-0.003-0.008
			c0.017-0.015,0.086-0.061,0.105-0.057c0-0.008,0.001-0.002-0.002-0.008c0.02-0.02,0.086-0.044,0.117-0.052v0.002
			C-0.796-6.959-0.8-6.954-0.805-6.948c0.022-0.009,0.037-0.002,0.052-0.016v0.009c0.011-0.002,0.021-0.003,0.03-0.004h0.002
			c0.001,0.001,0.002,0.002,0.003,0.004c0,0.002-0.001,0.004-0.001,0.007c-0.057,0.007-0.077,0.057-0.123,0.07
			c0.002,0.003,0.004,0.006,0.006,0.009C-0.85-6.855-0.867-6.856-0.879-6.841c-0.002,0-0.003,0.001-0.004,0.002
			c0.002,0.001,0.004,0.003,0.007,0.004c0.01-0.004,0.021-0.008,0.031-0.014c0,0.001,0,0.003,0,0.004
			c-0.017,0.021-0.044,0.036-0.047,0.072C-0.891-6.771-0.891-6.77-0.89-6.768c0.01,0.002,0.02,0.004,0.03,0.006
			c0.008,0.006,0.005,0.019,0.004,0.034c0.014,0.01,0.042,0.016,0.053,0.028c0.004,0.005,0.004,0.019,0.002,0.033
			c-0.035,0.023-0.087,0.03-0.075,0.081c0.016,0.013,0.038,0.018,0.059,0.01h0.009C-0.81-6.568-0.807-6.572-0.815-6.568
			C-0.81-6.559-0.808-6.56-0.799-6.557c0.001,0.013-0.003,0.025-0.007,0.037c0.009,0.013,0.016,0.019,0.038,0.019
			c-0.005,0.01-0.018,0.013-0.026,0.02C-0.795-6.48-0.796-6.479-0.798-6.479c0.005,0.002,0.01,0.004,0.015,0.006
			c0.011-0.007,0.015-0.011,0.021-0.023c0.006-0.001,0.012-0.002,0.018-0.003c0.002,0.003,0.004,0.005,0.006,0.007
			c0,0.014-0.001,0.019-0.006,0.026C-0.746-6.464-0.747-6.462-0.749-6.46c-0.008,0-0.016-0.001-0.023-0.002
			c0.003-0.003,0.007-0.006,0.01-0.008v-0.003C-0.766-6.471-0.771-6.47-0.776-6.468c-0.008,0.005-0.008,0.01-0.022,0.015
			C-0.805-6.44-0.805-6.415-0.811-6.399c0.016,0.02,0.053-0.02,0.075-0.026c0.016,0.001,0.034,0.001,0.051,0.003
			c0.004,0.008,0.007,0.015,0.011,0.023C-0.677-6.4-0.68-6.402-0.684-6.403C-0.686-6.4-0.689-6.397-0.692-6.395
			c0.011,0.016,0.025,0.032,0.017,0.053c0.003-0.002,0.006-0.003,0.009-0.004h0.002c-0.002,0.004-0.003,0.008-0.005,0.012
			c0.031-0.012,0.168-0.032,0.205-0.01C-0.455-6.34-0.423-6.3-0.41-6.29c0,0.01,0,0.02,0,0.03c-0.019,0.007-0.027,0.008-0.029,0.03
			c0.006,0.005,0.011,0.011,0.017,0.016c-0.009,0.038-0.047,0.042-0.065,0.072c0.003,0.003,0.006,0.007,0.009,0.011
			c0.002,0,0.004,0.001,0.006,0.002c0.006-0.009,0.012-0.012,0.015-0.024c0.014-0.003,0.027-0.006,0.042-0.009
			c0.012-0.009,0.026-0.034,0.042-0.037c0.013-0.003,0.023,0.007,0.037,0c0.01-0.005,0.017-0.017,0.034-0.015
			c0.043,0.005,0.051,0.025,0.076,0.043c0.016,0.006,0.03,0.013,0.046,0.02c0.011,0.014,0.022,0.029,0.034,0.043
			c0.028,0.012,0.056,0.025,0.084,0.037c0.034,0.022,0.052,0.063,0.084,0.087c0.039,0.03,0.089,0.036,0.104,0.092
			c-0.003,0-0.006,0.001-0.008,0.002c0.005,0.02,0.007,0.048,0.018,0.078c0.01,0.024,0.16,0.1,0.199,0.088
			c0.009-0.006,0.017-0.013,0.026-0.02c0.001,0.005,0.002,0.01,0.004,0.016C0.362-5.727,0.359-5.727,0.356-5.726v0.002
			c0.02,0.005,0.039,0.034,0.058,0.028c0.007,0.006,0.007,0.004,0,0.011v0.006c0.04,0,0.117-0.016,0.155-0.034
			C0.573-5.708,0.573-5.708,0.58-5.705C0.578-5.671,0.618-5.684,0.644-5.673C0.66-5.659,0.661-5.619,0.686-5.608
			c0.04,0.021,0.038,0.033,0.066,0.052c0.012,0.008,0.025,0.007,0.033,0.019C0.813-5.49,0.794-5.469,0.853-5.448
			c0.009,0.032,0.018,0.057,0.036,0.081c0.01,0.01,0.019,0.02,0.028,0.032c0.01,0.028,0.004,0.052,0.015,0.078
			c0.012,0.028,0.036,0.045,0.039,0.081c0.026,0.015,0.049,0.01,0.074,0.027c0.037,0.032,0.073,0.064,0.11,0.096
			C1.168-5.05,1.18-5.047,1.194-5.045C1.21-5.031,1.227-5.019,1.243-5.006C1.302-4.968,1.35-4.934,1.374-4.859
			c0,0.014,0.001,0.029,0.002,0.043c0.006,0.027,0.038,0.205,0.037,0.205C-0.244-4.608-1.473-4.628-1.473-4.628 M-1.408-1.51
			c0.016-0.012,0.061,0.013,0.084,0.013c0.009-0.012,0.03-0.063,0.042-0.066c0.018-0.041-0.032-0.061-0.027-0.092
			c0.001,0,0.003-0.001,0.005-0.003C-1.296-1.649-1.297-1.65-1.3-1.64c0.002,0.001,0.003,0.001,0.005,0.002
			c0.004-0.011-0.001-0.009,0.01-0.01C-1.293-1.654-1.3-1.659-1.309-1.666c-0.004-0.008,0.002-0.03,0.005-0.049
			c0.003-0.001,0.007-0.002,0.01-0.003C-1.292-1.716-1.291-1.713-1.29-1.71c0.001-0.001,0.002-0.003,0.002-0.004
			C-1.296-1.725-1.296-1.73-1.302-1.74c0.005-0.001,0.003,0,0.008,0.002C-1.289-1.745-1.287-1.75-1.29-1.762
			c0.001-0.033,0.035-0.033,0.02-0.068c0.011-0.016,0.049-0.005,0.059-0.007c-0.001,0.027,0.033,0.055,0.045,0.08
			c0.015,0.034,0.001,0.08,0.001,0.12c0.004,0.002,0.008,0.003,0.013,0.005c-0.005,0.03-0.01,0.061-0.014,0.091
			c0.01,0.117,0.103,0.145,0.196,0.173c0.044,0.014,0.028,0.051,0.108,0.035c0.021,0.039,0.089,0.031,0.128,0.041
			c0.001,0.001,0.001,0.003,0.002,0.004c-0.008,0.005-0.006,0.002-0.01,0.012v0.002c0.01,0.007,0.043,0.014,0.055,0.014
			c0.004,0.005,0.008,0.01,0.012,0.016c-0.008,0.01-0.023,0.016-0.04,0.017c0,0.001,0,0.002,0,0.002
			C-0.7-1.227-0.687-1.229-0.673-1.232c0-0.005,0-0.011,0-0.016c0.001,0.001,0.006,0.044,0.007,0.067
			C-0.67-1.179-0.674-1.178-0.679-1.177C-0.686-1.172-0.68-1.176-0.681-1.166c0,0.009,0.015,0.03,0.022,0.04
			c-0.006,0.005,0,0.04,0.001,0.05c0.01,0.01,0.02,0.019,0.03,0.027c-0.025-0.034-0.012-0.035-0.02-0.075
			c0.007-0.002,0.013-0.004,0.019-0.006c-0.012-0.012-0.025-0.016-0.033-0.032c0-0.001-0.001-0.002-0.002-0.004
			C-0.66-1.17-0.661-1.169-0.653-1.171c0.012,0.027,0.063,0.044,0.085,0.08C-0.582-1.077-0.575-1.068-0.58-1.049
			c0.01-0.009,0.014-0.016,0.029-0.021c-0.002-0.004-0.005-0.007-0.008-0.011v-0.002C-0.526-1.087-0.48-1.044-0.465-1.02
			c-0.003,0.007,0,0.004-0.007,0.008c0,0.001-0.001,0.003-0.002,0.004c0.039,0.006,0.095-0.006,0.137-0.002
			C-0.341-1.005-0.344-1-0.348-0.996C-0.38-1-0.409-0.988-0.441-0.995c0.038,0.03,0.155-0.013,0.206,0.007
			C-0.23-1.001-0.217-1-0.192-1.001c0.002,0.004,0.006,0.008,0.009,0.012c-0.002,0.004-0.004,0.007-0.007,0.01
			C-0.195-0.99-0.191-0.991-0.203-0.991C-0.208-0.99-0.214-0.989-0.22-0.988c-0.004,0.012,0.002,0.031-0.021,0.034
			c0,0.001,0,0.002,0,0.004c0.01,0.002,0.021,0.005,0.03,0.007c-0.002,0.004-0.005,0.01-0.008,0.014
			c0.014,0.017,0.045,0.028,0.058,0.04c0.034-0.006,0.056-0.005,0.09,0.012c0.005-0.006,0.004-0.004,0.004-0.012
			c0.042,0.003,0.082,0,0.126,0.011c-0.002,0.005-0.004,0.01-0.006,0.014c0.005,0,0.027-0.009,0.034-0.01
			c0.033-0.007,0.096,0,0.124,0.009C0.213-0.866,0.214-0.867,0.215-0.87c-0.011-0.001-0.02-0.005-0.03-0.007
			C0.184-0.878,0.183-0.88,0.183-0.881c0.011-0.002,0.023-0.005,0.034-0.007c-0.041-0.006-0.083-0.013-0.124-0.02
			C0.092-0.909,0.092-0.911,0.091-0.912c0.005,0.001,0.01,0.002,0.015,0.004C0.103-0.91,0.1-0.911,0.097-0.912
			c-0.01-0.012-0.013-0.013-0.013-0.035c0.004-0.001,0.009-0.001,0.013-0.001C0.105-0.959,0.1-0.966,0.117-0.967
			c0.03-0.002,0.058,0.018,0.091,0.02c0.004,0.008,0.001,0.011,0.011,0.015C0.22-0.934,0.222-0.936,0.223-0.939
			c0.003,0.003,0.006,0.006,0.009,0.008c0.002-0.014,0.01-0.014,0.021-0.018c0.018,0.02,0.134-0.005,0.168,0.005
			c0.001,0,0.002,0,0.004,0c-0.006,0.007-0.012,0.009-0.026,0.01C0.405-0.931,0.406-0.932,0.41-0.926
			C0.436-0.935,0.465-0.929,0.502-0.93v0.006C0.503-0.911,0.483-0.9,0.469-0.899v0.002c0.006,0.007,0.012,0.013,0.017,0.02
			C0.481-0.87,0.482-0.874,0.482-0.864C0.478-0.863,0.474-0.862,0.469-0.861c-0.021-0.01-0.071-0.023-0.072-0.053
			C0.382-0.916,0.375-0.915,0.374-0.898c-0.05-0.005-0.07,0.02-0.111,0.025C0.26-0.87,0.257-0.865,0.254-0.862
			c0.003,0,0.006,0,0.009,0c0,0.001,0.001,0.003,0.002,0.004C0.252-0.853,0.24-0.848,0.226-0.843
			C0.219-0.838,0.213-0.818,0.208-0.809C0.211-0.805,0.215-0.802,0.218-0.8C0.212-0.795,0.206-0.793,0.194-0.793v0.004
			c0.023,0.003,0.033,0.015,0.055,0.024C0.25-0.763,0.252-0.76,0.253-0.757c0,0.001,0,0.001,0,0.002
			C0.231-0.761,0.212-0.758,0.18-0.757C0.176-0.742,0.164-0.736,0.147-0.733c0,0.002-0.001,0.003-0.002,0.004
			c0.03-0.002,0.04-0.016,0.065-0.019c0.022,0.003,0.045,0.006,0.067,0.009c0.001,0.002,0.001,0.004,0.001,0.006
			c0.006,0.005,0,0.005-0.002,0.013c0.002-0.001,0.005-0.002,0.008-0.003v0.002C0.231-0.65,0.046-0.674-0.034-0.689
			c-0.033-0.006-0.054-0.036-0.098-0.036C-0.113-0.706,0-0.664,0.035-0.653c0,0,0.071-0.005,0.077-0.004
			c0.006,0.006,0.012,0.013,0.019,0.021C0.16-0.621,0.203-0.627,0.242-0.637c0.049-0.015,0.097-0.019,0.146-0.036
			c0.031-0.011,0.124-0.049,0.156-0.044c0.025,0.004,0.047,0.011,0.07,0.021C0.665-0.674,0.77-0.729,0.806-0.69
			c0.003,0.008,0.002,0.001-0.002,0.011C0.806-0.68,0.807-0.681,0.808-0.681c0.006,0.011,0,0.045,0.007,0.057
			C0.803-0.62,0.79-0.615,0.779-0.611c0,0.007,0,0.001,0.002,0.009C0.758-0.6,0.757-0.595,0.742-0.596
			C0.738-0.57,0.715-0.562,0.688-0.558c0,0,0,0.001,0,0.002C0.707-0.558,0.725-0.56,0.744-0.563
			C0.735-0.549,0.711-0.547,0.708-0.532C0.69-0.527,0.675-0.531,0.66-0.522C0.652-0.517,0.654-0.516,0.654-0.508
			C0.645-0.502,0.621-0.504,0.613-0.497C0.604-0.489,0.602-0.481,0.587-0.475c-0.003,0.009-0.005,0.004,0.002,0.01
			C0.588-0.46,0.55-0.433,0.533-0.429C0.54-0.424,0.538-0.426,0.545-0.426c0.001,0.005,0.001,0.018,0.002,0.033
			C0.542-0.39,0.537-0.388,0.532-0.386C0.53-0.385,0.537-0.374,0.537-0.361c-0.02,0.008-0.042,0.016-0.039,0.038
			c-0.004,0-0.007,0.001-0.011,0.001c-0.012,0.02-0.062,0.083-0.061,0.103C0.374-0.233,0.306-0.318,0.233-0.26
			C0.222-0.261,0.214-0.242,0.191-0.239C0.19-0.233,0.19-0.227,0.189-0.221C0.184-0.22,0.18-0.219,0.175-0.218
			c0.006,0.017,0.012,0.02,0.011,0.043c0.008,0.003,0.015,0.006,0.024,0.01c-0.002,0.003-0.004,0.006-0.007,0.01
			C0.197-0.158,0.19-0.16,0.184-0.163C0.17-0.147,0.138-0.14,0.114-0.133C0.113-0.132,0.112-0.13,0.112-0.129v0.002
			c0.004,0.003,0.003,0.002,0.01,0.004c0,0,0,0.001,0,0.002C0.105-0.106,0.071-0.081,0.05-0.073
			C0.032-0.074,0.015-0.074-0.004-0.075C-0.048-0.06-0.091-0.042-0.136-0.043C-0.14-0.047-0.145-0.052-0.149-0.056
			C-0.15-0.059-0.15-0.061-0.151-0.064c0.004-0.005,0.003-0.005,0.01-0.008C-0.15-0.083-0.162-0.089-0.18-0.092
			c0.017-0.02,0.005-0.023,0.014-0.035c-0.007-0.007-0.059-0.027-0.078-0.028C-0.246-0.159-0.248-0.163-0.25-0.167
			C-0.224-0.175-0.2-0.196-0.199-0.23c-0.022-0.049-0.074-0.058-0.137-0.068C-0.358-0.299-0.38-0.299-0.402-0.3h-0.005
			c0.002-0.009,0-0.022,0.012-0.027C-0.406-0.349-0.43-0.375-0.413-0.4C-0.425-0.408-0.44-0.42-0.455-0.42
			c0-0.006,0-0.012-0.001-0.018C-0.458-0.439-0.461-0.439-0.464-0.44c-0.001,0.007-0.005,0.007-0.008,0.016
			C-0.49-0.426-0.499-0.433-0.511-0.44c-0.008,0.003-0.015,0.007-0.022,0.01c-0.006,0.034-0.028,0.054-0.042,0.085
			c0.01,0.01,0.02,0.018,0.028,0.03c0,0.007-0.001,0.012-0.001,0.017c0.012,0.013,0.025,0.019,0.035,0.035
			C-0.558-0.26-0.686-0.221-0.711-0.196c-0.01,0.008-0.012,0.028-0.025,0.038c-0.02,0.01-0.039,0.018-0.059,0.027
			c-0.022,0-0.044,0-0.066-0.001h-0.004c0.015,0.017,0.025,0.04,0.038,0.059c-0.011,0.005-0.027,0.006-0.045,0.005
			c0,0.003,0,0.007,0.001,0.01C-0.83-0.009-0.695,0.04-0.637,0.037C-0.64,0.04-0.643,0.043-0.645,0.046
			c0.02-0.001,0.043-0.004,0.066-0.001c0.008,0.011,0.006,0.011-0.001,0.02h-0.006v0.002c0.034-0.01,0.147-0.008,0.198,0.018
			c0.008,0.005,0.002,0.002,0,0.008c0.023,0.004,0.045,0.009,0.067,0.014h0.005v0.001c-0.005,0.004-0.007,0.005-0.015,0.007
			c-0.001,0.002-0.001,0.003-0.002,0.004c0.015-0.001,0.03-0.002,0.044-0.004c0-0.011,0.032-0.032,0.047-0.036
			c0.004,0.004,0.001,0,0.002,0.006c0.001,0.001,0.002,0.002,0.002,0.002c-0.005,0-0.002,0.001-0.008-0.002
			c-0.003,0.008-0.005,0.009-0.015,0.016c0,0.001,0,0.001,0,0.002C-0.253,0.1-0.246,0.096-0.24,0.093
			c0,0.006-0.001,0.012-0.001,0.018c0.008-0.006,0.016-0.012,0.025-0.018c0,0.002,0,0.004,0.001,0.006
			c0.036,0.009,0.07,0.008,0.098,0.017c-0.006,0.005-0.011,0.011-0.017,0.017c0.002,0.001-0.2,0.113-0.434,0.108
			C-0.72,0.239-1.264,0.053-1.694-0.165c-0.329-0.166-0.582-0.373-0.597-0.389c-0.132-0.114-0.257-0.254-0.324-0.425
			C-2.623-0.987-2.63-0.995-2.638-1.005c-0.005-0.011-0.043-0.109-0.043-0.114c0.006,0,0.012-0.001,0.018-0.001
			c-0.004-0.029,0.014-0.03,0.005-0.065C-2.669-1.237-2.705-1.3-2.722-1.356c-0.003-0.012-0.014-0.04-0.011-0.055
			c0.003-0.02,0.01-0.045,0.003-0.07c-0.008-0.014-0.016-0.028-0.024-0.042c-0.01,0-0.013-0.003-0.024,0.001
			C-2.779-1.523-2.779-1.523-2.78-1.523c-0.004-0.029,0.008-0.046,0.006-0.071c0.006,0,0.004,0,0.01,0.004
			c0.017-0.046,0.008-0.095-0.025-0.126c0.01-0.042,0.032-0.066,0.024-0.131v-0.002c0.002,0,0.003-0.001,0.004-0.001
			c0.038,0.039,0.029,0.035,0.033,0.085C-2.73-1.76-2.731-1.754-2.732-1.75c-0.004-0.004-0.007-0.008-0.01-0.013
			c-0.001,0-0.001,0-0.002,0C-2.749-1.73-2.716-1.647-2.709-1.612c0.004,0.023-0.008,0.062-0.002,0.089
			c0.014,0.064,0.021,0.201,0.074,0.241c0.002-0.005,0.005-0.009,0.008-0.015c0.002,0.003,0.005,0.005,0.007,0.006
			C-2.61-1.328-2.656-1.384-2.65-1.434c-0.012-0.008-0.017-0.014-0.025-0.027c0.002-0.001,0.004-0.003,0.006-0.005
			c0.004,0.004,0.008,0.009,0.012,0.013c0-0.013-0.006-0.053,0.007-0.065c0.003-0.005,0-0.002,0.006-0.001
			C-2.643-1.52-2.642-1.522-2.64-1.523c-0.007-0.015-0.014-0.022-0.013-0.045c0.005-0.004,0.004-0.003,0.011-0.005
			C-2.644-1.581-2.646-1.59-2.648-1.599c0.003,0,0.006,0.001,0.01,0.001c0-0.028-0.011-0.037-0.025-0.056
			C-2.66-1.68-2.648-1.686-2.637-1.706c-0.008-0.009-0.007-0.014-0.01-0.027c0.02-0.028,0.047-0.216,0.008-0.244
			c-0.009-0.014-0.009-0.01-0.004-0.024C-2.65-2.01-2.654-2.009-2.664-2.013c-0.03-0.073,0.035-0.092,0.036-0.151
			c0.005-0.002,0.009-0.006,0.015-0.009c0,0,0.238,0.008,0.38,0.011c0.005,0-0.01,0.005-0.017,0.01
			C-2.256-2.145-2.284-2.001-2.279-1.98c0.005,0.007,0.009,0.014,0.014,0.022c-0.02,0.046,0.012,0.093,0.03,0.133
			c0.015,0.037,0.029,0.072,0.043,0.108c0.014,0.016,0.041,0.012,0.049,0.042c0.005,0.02-0.004,0.039,0.006,0.065
			c0.009,0.023,0.035,0.03,0.034,0.06c0.014-0.001,0.037,0.009,0.039,0.02c0.002,0.005,0.005,0.008,0.007,0.012
			c0.001-0.008,0.001-0.005-0.002-0.013c0.01,0.005,0.007,0.007,0.012,0.006c0.003,0.003,0.006,0.007,0.009,0.011
			c-0.003,0.003-0.005,0.006-0.007,0.01c0.037-0.004,0.065,0.011,0.097,0.029c0.02-0.005,0.012,0.009,0.01,0.02
			c0.005,0.006,0.011,0.008,0.018,0.012c0-0.001,0.001-0.002,0.002-0.002c-0.003-0.003-0.006-0.006-0.009-0.009l0.008-0.004
			c0.009-0.008,0.043,0.011,0.064,0.009c0.019-0.002,0.062-0.019,0.077-0.027c0.002,0,0.004,0,0.006,0.001c0,0.002,0,0.005,0,0.008
			c-0.005,0-0.009,0.001-0.014,0.001c-0.001,0.002-0.002,0.004-0.002,0.007c0.005,0.002,0.011,0.003,0.016,0.005
			c0.002-0.008,0.015-0.02,0.021-0.028c-0.001-0.001-0.002-0.002-0.004-0.003c-0.001-0.002-0.002-0.004-0.004-0.006
			c0.007-0.006,0.014-0.011,0.02-0.016c0.011,0.004,0.021,0.008,0.03,0.012c0.002-0.005,0.003-0.01,0.004-0.014
			c0.016,0.003,0.017,0.011,0.026,0.02c0.008-0.009,0.016-0.022,0.027-0.028C-1.65-1.518-1.648-1.519-1.646-1.52
			c0.001,0,0.002,0,0.002,0l0.009,0.01c-0.007,0.007-0.014,0.013-0.021,0.021C-1.657-1.488-1.658-1.487-1.66-1.485
			c0.006,0.007,0.011,0.009,0.023,0.011c0.005,0.008,0.003,0.007,0.002,0.02c-0.005-0.003-0.011-0.007-0.016-0.01
			c-0.001,0-0.002,0-0.002,0c-0.002,0.002-0.003,0.003-0.004,0.006c0.033,0.021,0.071,0.016,0.105,0.01
			c0.002,0.005,0.005,0.01,0.007,0.015c0.002,0.001,0.004,0.002,0.006,0.005c0-0.01,0-0.019,0-0.028
			c0.048-0.006,0.083,0.013,0.119-0.025C-1.412-1.489-1.412-1.506-1.408-1.51"/>
	</g>
	<g id="g3284" transform="matrix(63.702707,0,0,-63.702707,2282.6953,-1.2280987)">
		<path id="path3286" inkscape:connector-curvature="0" fill="#FFFFFF" d="M0,0c-0.01-0.003-0.019-0.006-0.028-0.01
			C-0.029-0.013-0.03-0.017-0.031-0.02v-0.002C-0.016-0.03,0.031-0.039,0.05-0.029c0.004,0.004,0.01,0.008,0.014,0.012
			c0,0.003,0,0.005,0,0.007C0.043-0.005,0.028,0,0,0 M0.113-0.007c0.004-0.004,0-0.001,0.006-0.004
			C0.117-0.01,0.115-0.008,0.113-0.007 M-0.23-0.102c-0.003,0.003-0.005,0.006-0.008,0.01c-0.011,0.007-0.025,0.01-0.039,0.009
			c0.002,0.005,0.006,0.01,0.007,0.015c-0.017,0.01-0.05,0.021-0.061,0.036c-0.008,0.007,0.002,0.018-0.012,0.024
			C-0.345-0.01-0.346-0.012-0.348-0.014C-0.387-0.01-0.431-0.03-0.444-0.057c-0.019,0.001-0.037,0.001-0.049-0.008
			C-0.481-0.072-0.452-0.07-0.437-0.07c-0.004-0.002-0.006-0.004-0.009-0.006C-0.448-0.08-0.45-0.084-0.453-0.088
			c0.032-0.006,0.084,0.003,0.103,0.016c0.013-0.003,0.025-0.006,0.036-0.009c-0.003-0.002-0.007-0.003-0.01-0.004
			C-0.304-0.103-0.267-0.104-0.23-0.102"/>
	</g>
	<g id="g3288" transform="matrix(63.702707,0,0,-63.702707,2260.6542,0.42817127)">
		<path id="path3290" inkscape:connector-curvature="0" fill="#FFFFFF" d="M0,0c-0.002,0.002-0.004,0.004-0.006,0.006
			c-0.001-0.004-0.003-0.008-0.005-0.012C-0.006-0.004-0.001-0.002,0.004,0H0z M0.58-0.078C0.577-0.076,0.575-0.074,0.572-0.072
			C0.58-0.066,0.577-0.073,0.576-0.063C0.549-0.062,0.553-0.052,0.533-0.047c-0.005-0.002-0.01-0.005-0.015-0.008
			c0.004-0.008,0.004-0.009,0-0.018C0.546-0.072,0.554-0.074,0.58-0.078 M0.754-0.054C0.753-0.055,0.753-0.057,0.752-0.058
			c0.001,0,0.003,0,0.004,0C0.755-0.057,0.755-0.055,0.754-0.054"/>
	</g>
	<g id="g3292" transform="matrix(63.702707,0,0,-63.702707,2297.8566,4.8873613)">
		<path id="path3294" inkscape:connector-curvature="0" fill="#FFFFFF" d="M0,0c0.004-0.004,0-0.001,0.006-0.004
			C0.004-0.003,0.002-0.001,0,0 M-0.618-0.009c-0.011-0.003-0.022-0.006-0.035-0.01c0.001-0.004,0.002-0.009,0.002-0.013
			c0.032,0.003,0.062,0.001,0.091,0.009c0,0.002,0.001,0.003,0.002,0.004C-0.578-0.015-0.598-0.012-0.618-0.009"/>
	</g>
	<g id="g3296" transform="matrix(63.702707,0,0,-63.702707,2273.9655,5.5906393)">
		<path id="path3298" inkscape:connector-curvature="0" fill="#FFFFFF" d="M0,0c0-0.002,0-0.004,0-0.006h0.014v0.002
			C0.01-0.003,0.005-0.001,0,0 M0.312-0.033C0.307-0.021,0.29-0.014,0.276-0.01c0.001-0.005,0.001-0.01,0.002-0.015
			c-0.006,0-0.013,0-0.02,0.001C0.26-0.026,0.26-0.027,0.261-0.028C0.282-0.031,0.3-0.034,0.316-0.039
			C0.315-0.037,0.313-0.035,0.312-0.033 M-0.038-0.012C-0.039-0.013-0.039-0.015-0.04-0.016c0.006-0.004,0.01-0.008,0.015-0.012
			c0.006,0,0.013-0.002,0.019-0.003c0,0.001,0.001,0.003,0.002,0.003c0,0.002,0,0.004,0,0.006C-0.015-0.019-0.026-0.015-0.038-0.012
			"/>
	</g>
	<g id="g3300" transform="matrix(63.702707,0,0,-63.702707,2275.8766,6.7372883)">
		<path id="path3302" inkscape:connector-curvature="0" fill="#FFFFFF" d="M0,0c-0.007,0.001-0.014,0.003-0.021,0.004
			c0.004-0.009,0.009-0.01,0.017-0.016c0.002,0,0.006,0,0.009,0C0.006-0.01,0.006-0.009,0.007-0.008C0.005-0.005,0.003-0.003,0,0
			 M-0.154-0.018c-0.007-0.003-0.015-0.005-0.022-0.008C-0.177-0.028-0.179-0.031-0.18-0.034c0.002-0.003,0.004-0.006,0.006-0.009
			c0.016-0.003,0.024,0.006,0.038,0.009c0.003,0.003,0.006,0.005,0.008,0.008C-0.137-0.021-0.141-0.019-0.154-0.018 M0.172-0.03
			c0-0.001,0-0.003,0-0.004c0.002,0.001,0.004,0.001,0.006,0.002c0,0.001,0,0.001,0,0.002C0.176-0.03,0.174-0.03,0.172-0.03"/>
	</g>
	<g id="g3304" transform="matrix(63.702707,0,0,-63.702707,2280.5294,9.6013613)">
		<path id="path3306" inkscape:connector-curvature="0" fill="#FFFFFF" d="M0,0c0.004-0.006,0.009-0.007,0.016-0.01
			c0.003,0,0.006,0,0.009,0C0.019-0.005,0.009-0.002,0,0 M1.061-0.048c0.004-0.004,0-0.001,0.006-0.004
			C1.063-0.048,1.067-0.051,1.061-0.048 M-0.218-0.033c0.001-0.001,0.003-0.003,0.004-0.004c0.004,0,0.008,0,0.014,0v0.002
			C-0.207-0.034-0.212-0.034-0.218-0.033 M1.884-0.195C1.868-0.2,1.86-0.188,1.846-0.18c-0.004,0-0.007-0.001-0.011-0.001
			C1.837-0.183,1.84-0.185,1.842-0.188C1.818-0.193,1.789-0.177,1.764-0.171C1.763-0.172,1.763-0.173,1.762-0.173
			c0.001-0.003,0.004-0.006,0.005-0.009C1.756-0.174,1.748-0.166,1.732-0.164v-0.002C1.737-0.17,1.741-0.174,1.745-0.179v-0.002
			C1.734-0.177,1.737-0.175,1.728-0.182c-0.024,0.019-0.045,0.046-0.085,0.05c0.003-0.003,0.006-0.007,0.01-0.01
			C1.647-0.14,1.642-0.138,1.635-0.135C1.63-0.14,1.624-0.144,1.619-0.149C1.618-0.15,1.617-0.152,1.617-0.154
			C1.645-0.161,1.673-0.168,1.7-0.175C1.686-0.184,1.672-0.18,1.649-0.176C1.648-0.177,1.647-0.178,1.647-0.178
			c0-0.002,0.001-0.003,0.002-0.004c0.039-0.01,0.055-0.021,0.081-0.034c0-0.002,0.001-0.003,0.002-0.005
			C1.725-0.219,1.718-0.217,1.711-0.215C1.71-0.216,1.71-0.217,1.709-0.217c0.001-0.004,0.003-0.007,0.004-0.01
			c0.059-0.015,0.201-0.086,0.25-0.03v0.003C1.938-0.238,1.901-0.214,1.884-0.195"/>
	</g>
	<g id="g3308" transform="matrix(63.702707,0,0,-63.702707,2291.1041,15.716821)">
		<path id="path3310" inkscape:connector-curvature="0" fill="#FFFFFF" d="M0,0c0-0.001,0-0.003,0-0.004
			C0.001-0.003,0.003-0.001,0.004,0C0.003,0,0.001,0,0,0 M0.2-0.012c0.004-0.005,0.002-0.004,0.01-0.006c0,0.001,0,0.001,0,0.002
			C0.206-0.013,0.208-0.013,0.2-0.012 M0.249-0.021C0.243-0.02,0.238-0.018,0.232-0.017c-0.002-0.007,0-0.006-0.015-0.005
			c0-0.001,0-0.002,0-0.002c0.007-0.009,0.017-0.015,0.028-0.018c0.003,0.003,0.007,0.005,0.011,0.008
			C0.253-0.03,0.251-0.025,0.249-0.021"/>
	</g>
	<g id="g3312" transform="matrix(63.702707,0,0,-63.702707,2296.2615,17.882713)">
		<path id="path3314" inkscape:connector-curvature="0" fill="#FFFFFF" d="M0,0c-0.003,0.001-0.007,0.001-0.01,0.002
			C-0.013,0.001-0.015,0-0.017-0.002C-0.018-0.004-0.02-0.006-0.021-0.008c0.007-0.005,0.019-0.004,0.029-0.002
			c0.001,0.001,0.003,0.002,0.003,0.004C0.007-0.004,0.003-0.002,0,0 M3.337-1.848C3.326-1.827,3.316-1.804,3.305-1.782
			c0.002-0.003,0.004-0.006,0.007-0.009c0.001,0,0.002-0.001,0.004-0.003v0.005c0.002,0.01-0.01,0.023-0.017,0.034
			c0.002,0,0.003,0.001,0.004,0.001c0.005-0.005,0.01-0.011,0.015-0.016c0,0,0.001,0,0.002,0C3.316-1.762,3.313-1.752,3.31-1.744
			c0.007-0.007,0.014-0.015,0.023-0.023C3.322-1.743,3.293-1.695,3.27-1.685c0.003,0.009-0.001,0.006,0.008,0.004
			C3.271-1.654,3.23-1.629,3.225-1.589c0.001,0,0.001,0,0.003,0c0.003-0.023,0.019-0.017,0.029-0.026c0,0,0.001,0,0.002,0
			C3.25-1.604,3.242-1.591,3.234-1.579C3.238-1.576,3.242-1.573,3.246-1.57c0.011,0.008,0.019-0.015,0.032-0.015
			c0.001-0.009,0.002-0.01,0.004-0.02c0.002,0.026-0.001,0.059-0.005,0.068C3.266-1.524,3.258-1.505,3.248-1.488
			C3.216-1.435,3.192-1.39,3.169-1.328c-0.006,0.015-0.202,0.32-0.451,0.555C2.46-0.532,2.149-0.364,2.153-0.363
			C2.146-0.37,2.14-0.376,2.129-0.379c0.002-0.014-0.001-0.015,0.005-0.023C2.127-0.404,2.123-0.407,2.115-0.411
			C2.123-0.423,2.133-0.43,2.14-0.439c0.002-0.009,0.003-0.016,0.006-0.023c0.019-0.03,0.06-0.044,0.076-0.08
			c0.01-0.002,0.01,0.001,0.017,0.005c0.002-0.009,0.006-0.017,0.009-0.026c0.01-0.013,0.067-0.045,0.088-0.033
			c0.01,0.006,0.011,0.021,0.007,0.034c0.004,0.001,0.008,0.003,0.012,0.005c-0.001,0.003-0.003,0.006-0.004,0.01
			c0,0,0,0.001,0,0.003c0.06-0.029,0.09-0.104,0.152-0.129c0.004-0.008,0.007-0.015,0.01-0.023C2.502-0.699,2.501-0.705,2.496-0.712
			C2.508-0.728,2.522-0.74,2.541-0.75C2.535-0.758,2.537-0.753,2.526-0.751c0,0,0-0.001,0-0.002c0.005-0.007,0.009-0.01,0.018-0.014
			c0.004-0.001,0.008-0.001,0.012-0.001c0,0.005,0,0.01,0,0.016C2.55-0.746,2.543-0.733,2.532-0.729
			c0,0.007-0.001,0.003,0.004,0.008C2.532-0.716,2.529-0.71,2.523-0.706c0.005-0.006,0.009-0.01,0.013-0.015
			C2.54-0.725,2.545-0.728,2.548-0.733c0.008-0.001,0.016-0.001,0.025-0.002c0.001,0,0.001,0,0.002,0v0.006
			C2.569-0.722,2.563-0.715,2.557-0.708C2.56-0.702,2.56-0.705,2.559-0.698C2.567-0.699,2.576-0.7,2.583-0.701
			C2.58-0.696,2.577-0.691,2.574-0.685c0.005-0.004,0.09-0.08,0.086-0.083C2.648-0.774,2.651-0.78,2.654-0.792
			c-0.003-0.001-0.007-0.002-0.01-0.003c-0.015-0.018-0.019-0.002-0.036,0C2.6-0.788,2.603-0.793,2.606-0.785
			C2.598-0.78,2.592-0.773,2.586-0.768c0-0.004,0-0.007,0-0.012C2.582-0.779,2.578-0.779,2.574-0.778
			C2.576-0.79,2.57-0.786,2.567-0.801C2.563-0.8,2.56-0.799,2.557-0.798C2.553-0.794,2.551-0.783,2.55-0.778
			C2.546-0.773,2.547-0.773,2.54-0.771C2.541-0.774,2.542-0.777,2.544-0.78c-0.018,0-0.031,0.015-0.044,0.025
			c-0.004,0.001,0,0.001,0.002,0.003c-0.005,0.006-0.008,0.009-0.018,0.01C2.483-0.741,2.482-0.739,2.482-0.738
			s0.001,0.003,0.002,0.004C2.498-0.742,2.512-0.752,2.526-0.76C2.518-0.741,2.498-0.712,2.475-0.72
			C2.469-0.714,2.467-0.698,2.461-0.689C2.464-0.691,2.467-0.692,2.47-0.694c0,0.004,0.001,0.007,0.002,0.01
			c-0.02,0.023-0.048,0.035-0.058,0.067C2.41-0.619,2.405-0.621,2.4-0.623C2.402-0.629,2.403-0.634,2.405-0.64
			c-0.003,0-0.006,0-0.008,0C2.393-0.642,2.39-0.645,2.386-0.646C2.393-0.684,2.47-0.742,2.466-0.76
			c0.005,0,0.011-0.001,0.016-0.002c0.009-0.016,0.017-0.024,0.028-0.04C2.501-0.805,2.504-0.801,2.505-0.814
			C2.493-0.81,2.491-0.807,2.474-0.809v-0.009c-0.01-0.001-0.02-0.002-0.029-0.003l-0.004-0.01C2.443-0.835,2.446-0.84,2.449-0.846
			c0.008-0.004,0.006-0.003,0.015,0C2.469-0.858,2.474-0.86,2.472-0.87c-0.005-0.008-0.001-0.005-0.01-0.002
			c-0.001,0-0.001,0-0.002,0C2.462-0.888,2.461-0.89,2.468-0.899C2.463-0.898,2.457-0.897,2.452-0.896
			C2.445-0.875,2.436-0.854,2.429-0.832c-0.001,0-0.002,0.001-0.004,0.002H2.423C2.43-0.858,2.454-0.904,2.437-0.92
			C2.426-0.93,2.404-0.932,2.395-0.945C2.4-0.958,2.407-0.971,2.413-0.985C2.405-0.991,2.4-0.994,2.389-0.996
			c-0.005-0.007-0.01-0.014,0-0.021C2.387-1.019,2.385-1.021,2.383-1.023C2.356-1.028,2.327-1.005,2.308-0.999
			C2.306-0.999,2.306-1,2.305-1.001c0.013-0.018,0.028-0.028,0.036-0.05c0.002-0.002,0.004-0.005,0.006-0.007V-1.06
			C2.33-1.057,2.32-1.054,2.309-1.063c-0.01,0.006-0.018,0.012-0.026,0.018c-0.015-0.007-0.038-0.004-0.05-0.016
			C2.232-1.062,2.23-1.062,2.229-1.062C2.232-1.08,2.246-1.078,2.257-1.087c-0.004,0-0.008-0.001-0.013-0.002
			C2.267-1.11,2.3-1.104,2.332-1.116c0.002,0,0.102-0.094,0.103-0.099C2.431-1.213,2.428-1.21,2.425-1.207
			C2.424-1.208,2.423-1.208,2.423-1.209C2.448-1.244,2.476-1.294,2.476-1.36C2.439-1.375,2.352-1.35,2.303-1.344
			C2.29-1.343,2.258-1.357,2.238-1.35C2.229-1.347,2.225-1.339,2.211-1.343c-0.013,0.003-0.019-0.01-0.014-0.02
			c-0.01-0.004-0.024-0.004-0.028-0.013C2.166-1.378,2.164-1.379,2.161-1.381c0.001-0.022,0.013-0.02,0.016-0.036
			c0.007,0.001,0.006,0.001,0.012,0.004C2.193-1.449,2.215-1.475,2.227-1.51c0.011-0.03,0.005-0.12-0.002-0.151
			C2.235-1.67,2.24-1.676,2.249-1.686c0.004,0.003,0.008,0.005,0.013,0.008c0.01-0.029,0.019-0.059,0.018-0.103
			c0.018,0.006,0.044-0.005,0.055-0.001C2.342-1.78,2.346-1.771,2.359-1.768c0.036,0.017,0.055-0.071,0.094-0.078
			c0.008,0.008,0.039,0.038,0.042,0.045C2.524-1.8,2.544-1.796,2.567-1.804c0.001,0.003,0.003,0.006,0.005,0.01
			C2.584-1.796,2.584-1.797,2.59-1.802c0.007,0.015,0.012,0.041,0.019,0.054c0.007,0.003,0.01,0.004,0.023,0.004
			c0,0.012-0.009,0.032-0.002,0.054c0.004,0.012,0.015,0.012,0.018,0.029C2.584-1.618,2.642-1.562,2.624-1.527
			c0.011,0.016,0.022,0.01,0.038,0.022c0.01,0.006,0.02,0.027,0.027,0.035c-0.003,0.024-0.04,0.058-0.031,0.083
			C2.66-1.38,2.671-1.375,2.675-1.367c0.033-0.01,0.053-0.024,0.082-0.036c0.014,0.014,0.011,0.04,0.036,0.043
			C2.795-1.35,2.797-1.341,2.8-1.33v0.004c0.057-0.011,0.09-0.089,0.119-0.129c0,0,0.081-0.078,0.084-0.08
			C3.005-1.536,3.014-1.53,3.021-1.536c0.005-0.008,0.011-0.016,0.016-0.025c0.061-0.058,0.079-0.075,0.106-0.163
			C3.137-1.727,3.124-1.73,3.118-1.74C3.097-1.739,3.097-1.737,3.084-1.726C3.081-1.731,3.081-1.73,3.08-1.737
			C3.077-1.735,3.075-1.733,3.072-1.73c-0.001,0-0.002,0-0.002,0C3.069-1.739,3.067-1.749,3.072-1.758
			c0.003-0.008,0.08-0.069,0.09-0.073c0.001,0,0.002,0,0.002,0c-0.005,0.032-0.021,0.05-0.021,0.089
			c0.004-0.003,0.008-0.006,0.012-0.009c0.001,0,0.002,0,0.002,0c0.005,0.016,0.001,0.038-0.006,0.052
			C3.153-1.687,3.152-1.69,3.16-1.686c-0.007,0.027-0.02,0.03-0.034,0.047c-0.004,0.017-0.008,0.033-0.012,0.05
			c0.001,0.001,0.003,0.002,0.004,0.003C3.127-1.6,3.151-1.624,3.165-1.633C3.153-1.586,3.108-1.547,3.068-1.527
			C3.063-1.519,3.061-1.514,3.061-1.499C3.049-1.492,3.039-1.497,3.026-1.486C2.995-1.461,2.981-1.421,2.957-1.39
			C2.936-1.362,2.896-1.352,2.885-1.315C2.886-1.31,2.887-1.306,2.887-1.3c-0.004,0.011-0.016,0.014-0.02,0.029
			c0.011,0.003,0.011,0.006,0.016,0.014c0.003-0.001,0.006-0.001,0.008-0.001c0.008-0.01,0.024-0.039,0.03-0.054
			c0.001-0.001,0.003-0.002,0.004-0.003l0.002,0.016C2.93-1.308,2.935-1.315,2.938-1.322C2.94-1.323,2.942-1.325,2.944-1.327
			C2.942-1.32,2.939-1.314,2.936-1.307c0.02-0.008,0.027-0.042,0.038-0.054c0.015-0.019,0.038-0.03,0.052-0.044
			c-0.003,0-0.006,0.001-0.008,0.002c0.005-0.009,0.009-0.012,0.015-0.02c0.003,0,0.007,0,0.01-0.001
			c-0.003,0.003-0.007,0.007-0.01,0.01c0.001,0,0.002,0.001,0.004,0.001c0.004-0.003,0.008-0.006,0.012-0.009
			C3.05-1.424,3.05-1.425,3.051-1.427C3.047-1.428,3.043-1.429,3.039-1.43c0.008-0.009,0.007,0,0.018-0.006
			C3.081-1.448,3.119-1.488,3.133-1.51c0.012-0.031,0.023-0.062,0.036-0.094C3.183-1.63,3.215-1.657,3.228-1.686
			c0.005,0.001,0,0,0.006,0.002c0-0.002-0.005-0.011,0-0.022C3.24-1.715,3.252-1.727,3.268-1.73
			C3.264-1.742,3.264-1.738,3.263-1.755c0.015-0.022,0.029-0.042,0.038-0.069C3.303-1.827,3.305-1.828,3.307-1.83
			c0.001,0,0.002,0,0.002,0C3.308-1.824,3.307-1.819,3.305-1.814c0.001,0,0.002,0,0.002,0c0.005-0.011,0.01-0.022,0.015-0.033
			c0.001-0.001,0.002-0.002,0.004-0.002C3.324-1.844,3.323-1.838,3.322-1.833c0.004-0.005,0.009-0.01,0.013-0.015
			C3.336-1.848,3.336-1.848,3.337-1.848 M-0.774-0.162C-0.786-0.156-0.8-0.154-0.818-0.152c-0.003-0.002-0.007-0.003-0.01-0.004
			c0.006-0.012,0.038-0.023,0.053-0.027h0.003C-0.77-0.173-0.772-0.169-0.774-0.162"/>
	</g>
	<g id="g3316" transform="matrix(63.702707,0,0,-63.702707,2314.4804,32.21837)">
		<path id="path3318" inkscape:connector-curvature="0" fill="#FFFFFF" d="M0,0c0.004-0.007-0.001-0.002,0.006-0.006
			c0.001,0,0.002,0,0.002,0C0.009-0.005,0.01-0.004,0.01-0.002C0.007-0.002,0.003-0.001,0,0 M0.113-0.102
			c0.001-0.002,0.003-0.004,0.004-0.006c0.002,0,0.003,0,0.003,0v0.002C0.117-0.105,0.115-0.103,0.113-0.102 M0.042-0.139
			C0.037-0.14,0.032-0.141,0.027-0.144C0.025-0.157,0.025-0.148,0.021-0.156c0.03,0.002,0.057,0.006,0.084,0.008
			C0.084-0.146,0.063-0.142,0.042-0.139 M0.181-0.182c0-0.006-0.002-0.003,0.004-0.009C0.186-0.19,0.188-0.188,0.19-0.186
			c0,0,0,0.001,0,0.002C0.188-0.184,0.185-0.183,0.181-0.182 M-0.267-0.253c-0.001-0.001-0.001-0.003-0.002-0.004
			c0.048-0.031,0.082-0.056,0.146-0.076c0.001,0.001,0.003,0.002,0.004,0.002c0,0.002,0,0.004,0,0.006
			C-0.153-0.295-0.21-0.256-0.267-0.253 M0.274-0.287C0.273-0.289,0.273-0.292,0.272-0.293C0.279-0.29,0.275-0.295,0.278-0.287
			C0.277-0.287,0.276-0.287,0.274-0.287 M2.096-0.704C2.095-0.7,2.093-0.695,2.092-0.691C2.081-0.69,2.071-0.689,2.062-0.688
			C2.066-0.68,2.077-0.666,2.074-0.652C2.069-0.631,2.031-0.589,2.007-0.616C2.005-0.615,2.003-0.614,2.001-0.614
			c-0.014,0.028-0.034,0.06-0.068,0.08C1.919-0.527,1.907-0.522,1.894-0.516C1.86-0.483,1.843-0.457,1.789-0.456
			c0.007,0.004,0.012,0.007,0.018,0.011C1.803-0.442,1.8-0.439,1.796-0.437c0.008,0.018-0.001,0.031,0.002,0.048
			c-0.02,0.018-0.055,0.014-0.081,0.008c0,0.013,0.004,0.008-0.007,0.013c0.003,0.01,0.007,0.015,0.016,0.02
			C1.723-0.343,1.722-0.339,1.721-0.333C1.699-0.328,1.677-0.339,1.656-0.331c-0.005-0.007-0.004-0.008,0-0.015
			c-0.004-0.009-0.002-0.01,0.005-0.018C1.66-0.365,1.657-0.365,1.656-0.366C1.649-0.365,1.652-0.364,1.648-0.371
			c0.004-0.007,0.008-0.013,0.013-0.02v-0.002c-0.01,0.007-0.019,0.013-0.028,0.02C1.629-0.381,1.63-0.377,1.624-0.385
			c0.011-0.012,0.034-0.02,0.046-0.021c0.002-0.003,0.003-0.006,0.004-0.008C1.671-0.416,1.667-0.418,1.664-0.42
			C1.669-0.431,1.672-0.431,1.67-0.444c0.007,0.001,0.014,0.002,0.021,0.003C1.692-0.438,1.694-0.434,1.694-0.43v0.004h0.002
			C1.7-0.449,1.712-0.466,1.718-0.49c0.003,0,0.006,0,0.01,0c0,0.001,0.001,0.003,0.002,0.004c-0.002,0.003-0.003,0.007-0.006,0.01
			c0.006-0.003,0.01-0.005,0.014-0.008c0.001,0,0.002,0,0.002,0C1.738-0.477,1.736-0.47,1.734-0.463
			c0.005-0.004,0.011-0.009,0.017-0.013c0.004-0.009,0.004-0.018,0-0.031c0.006-0.005,0.014-0.01,0.02-0.016h0.002
			C1.772-0.52,1.77-0.517,1.769-0.515v0.002C1.775-0.515,1.781-0.518,1.788-0.52v0.008c0.015-0.006,0.02-0.002,0.03,0.006
			c0.016-0.018,0.009-0.047,0.044-0.041c0.001-0.018,0.005-0.024,0.011-0.035c-0.017-0.013-0.034-0.003-0.052,0
			c0.003-0.014,0.008-0.011,0.016-0.019c-0.003-0.004-0.006-0.007-0.008-0.01c0-0.002,0.001-0.003,0.002-0.004
			c0.005,0.002,0.011,0.004,0.017,0.006C1.853-0.616,1.86-0.624,1.866-0.632c-0.003-0.013-0.015-0.019-0.028-0.02
			C1.836-0.655,1.833-0.657,1.831-0.659c0.007-0.007,0.014-0.013,0.021-0.019c0.024,0.012,0.045-0.003,0.069-0.011
			c0.007,0.003,0.013,0.006,0.018,0.008C1.936-0.688,1.937-0.687,1.937-0.695c-0.015,0-0.029,0-0.043,0
			c0.001-0.02-0.013-0.042-0.029-0.057c0-0.002,0-0.003,0-0.004c0.011-0.001,0.012,0.001,0.023-0.007
			c0.007,0.009,0.003,0.016,0.019,0.02C1.918-0.74,1.931-0.746,1.942-0.749c0.001,0.007-0.002,0.02,0.004,0.025
			c0,0,0.069-0.006,0.071-0.006s0.005,0,0.007,0C2.022-0.727,2.02-0.724,2.019-0.72c0.033-0.002,0.049-0.001,0.075,0.012
			C2.095-0.707,2.095-0.705,2.096-0.704"/>
	</g>
	<g id="g3320" transform="matrix(63.702707,0,0,-63.702707,2340.1552,66.551581)">
		<path id="path3322" inkscape:connector-curvature="0" fill="#FFFFFF" d="M0,0c-0.01,0.003-0.012-0.006-0.03-0.009
			c-0.001,0.003-0.002,0.006-0.002,0.008c0.005,0.009,0.013,0.014,0.024,0.018c0,0.002,0.001,0.004,0.002,0.005
			c-0.001,0.001-0.002,0.001-0.002,0.002c-0.028-0.002-0.033-0.008-0.048-0.019C-0.058,0.008-0.059,0.01-0.061,0.013
			c-0.005,0.001-0.001-0.002-0.006,0.002c0.015,0.014,0.047,0.022,0.053,0.028c0.001,0.001,0.002,0.002,0.004,0.004
			c-0.009,0.009-0.032,0.007-0.049,0.009C-0.053,0.069-0.058,0.06-0.06,0.077c0.012,0.002,0.017,0.004,0.024,0.012
			C-0.05,0.101-0.073,0.114-0.093,0.11c-0.008,0.01-0.001,0.015-0.014,0.02c-0.006-0.002,0-0.004-0.007-0.001
			C-0.115,0.123-0.116,0.125-0.112,0.12c-0.004,0-0.008,0.001-0.013,0.001C-0.137,0.12-0.133,0.12-0.132,0.131
			C-0.142,0.13-0.138,0.132-0.14,0.126C-0.148,0.13-0.152,0.133-0.162,0.133c0.001,0.002,0.003,0.004,0.004,0.006
			c-0.008,0.004-0.002,0.002-0.01,0C-0.17,0.141-0.171,0.142-0.172,0.143c0,0.003,0,0.006,0,0.01c0.008,0,0.016,0,0.026,0.001v0.002
			c-0.014,0.009-0.028,0.009-0.042,0.02c-0.013-0.005-0.025-0.01-0.039-0.015c0.006,0.022,0.045,0.04,0.066,0.045
			c0.002,0.004,0.005,0.007,0.009,0.011C-0.159,0.222-0.159,0.223-0.17,0.224v0.004c0.011-0.003,0.019-0.006,0.031-0.005
			c0.001,0.001,0.002,0.003,0.004,0.004c0,0.002,0.001,0.004,0.002,0.006c-0.011,0.003-0.023,0.006-0.035,0.01
			C-0.18,0.242-0.194,0.242-0.206,0.242C-0.215,0.24-0.238,0.227-0.25,0.221C-0.273,0.209-0.282,0.18-0.313,0.173
			c-0.004-0.008-0.003-0.006,0-0.015V0.156c-0.009,0.002-0.006,0.001-0.011,0.005c-0.014-0.003-0.02-0.013-0.028-0.022
			c0.004-0.004,0.009-0.008,0.013-0.011c-0.018,0.003-0.04-0.007-0.061-0.01c0.001-0.008,0.002-0.015,0.004-0.022
			c0.036-0.009,0.181-0.038,0.193-0.051c-0.003,0-0.006,0.001-0.009,0.001c0.014-0.006,0.029-0.011,0.043-0.017
			c0.004,0.004,0.003,0.003,0.004,0.01c0.01-0.003,0.02-0.007,0.029-0.011c-0.019-0.007-0.037-0.012-0.067-0.009
			C-0.204,0.015-0.205,0.012-0.206,0.01c0.046-0.018,0.082,0.003,0.122,0.016c0.003-0.004,0.006-0.009,0.009-0.012
			c-0.001-0.018-0.011-0.023-0.023-0.031c0.003-0.008,0.002-0.006,0.01-0.011c0.01,0.003,0.019,0.006,0.029,0.009
			c-0.004-0.007-0.006-0.01-0.006-0.024c0.012-0.003,0.021-0.006,0.032-0.009c0.017,0.009,0.021,0.025,0.035,0.034
			C0.001-0.011,0.001-0.006,0,0 M1.216,0.2C1.212,0.201,1.209,0.201,1.205,0.202C1.2,0.197,1.194,0.191,1.188,0.187
			c0.007-0.007,0.01-0.01,0.011-0.017c0.003-0.001,0.005-0.002,0.007-0.004c0.005,0.005,0.009,0.009,0.015,0.013
			C1.219,0.186,1.217,0.193,1.216,0.2"/>
	</g>
	<g id="g3324" transform="matrix(63.702707,0,0,-63.702707,2330.5998,53.428824)">
		<path id="path3326" inkscape:connector-curvature="0" fill="#FFFFFF" d="M0,0v-0.004C0.001-0.003,0.003-0.002,0.004,0
			C0.003,0,0.001,0,0,0 M1.356-0.044C1.353-0.043,1.35-0.041,1.347-0.04C1.345-0.041,1.341-0.043,1.338-0.044
			c0.009-0.009,0.013-0.015,0.018-0.025C1.358-0.07,1.361-0.071,1.363-0.071C1.36-0.063,1.358-0.054,1.356-0.044"/>
	</g>
	<g id="g3328" transform="matrix(63.702707,0,0,-63.702707,2330.4724,53.938445)">
		<path id="path3330" inkscape:connector-curvature="0" fill="#FFFFFF" d="M0,0c0.002-0.002,0.004-0.004,0.006-0.006
			c0.002,0,0.003,0.001,0.004,0.001v0.002C0.007-0.002,0.004-0.001,0,0 M1.898-0.07c0.001-0.002,0.004-0.004,0.005-0.006
			c0.001,0,0.002,0,0.002,0C1.9-0.069,1.906-0.074,1.898-0.07"/>
	</g>
	<g id="g3332" transform="matrix(63.702707,0,0,-63.702707,2419.4625,57.954264)">
		<path id="path3334" inkscape:connector-curvature="0" fill="#FFFFFF" d="M0,0c0.002-0.003,0.004-0.005,0.006-0.008
			c0.001,0.001,0.002,0.003,0.002,0.004C0.006-0.003,0.003-0.001,0,0 M-0.039-0.003c0-0.001,0-0.003,0-0.004
			c0.002,0.001,0.004,0.001,0.006,0.002v0.002C-0.035-0.003-0.037-0.003-0.039-0.003 M0.005-0.019
			C0.004-0.02,0.004-0.02,0.003-0.021v-0.002c0.001-0.001,0.001-0.001,0.002-0.002c0.001,0,0.001,0,0.002,0
			c0.001,0.002,0.002,0.004,0.002,0.006C0.008-0.019,0.006-0.019,0.005-0.019 M-0.004-0.025v-0.006c0.002,0,0.003,0,0.004,0
			C-0.002-0.025,0-0.029-0.004-0.025 M-1.611,0.013c-0.004,0-0.008,0-0.013,0c-0.001,0-0.002-0.001-0.004-0.001
			C-1.629,0.01-1.629,0.008-1.63,0.005c0.01-0.002,0.02-0.003,0.029-0.004C-1.604,0.005-1.608,0.009-1.611,0.013"/>
	</g>
	<g id="g3336" transform="matrix(63.702707,0,0,-63.702707,2334.9927,58.591291)">
		<path id="path3338" inkscape:connector-curvature="0" fill="#FFFFFF" d="M0,0c-0.001-0.003-0.002-0.005-0.002-0.008
			c0.005,0,0.011-0.001,0.016-0.001C0.011,0.001,0.012-0.001,0,0 M1.375-0.033C1.369-0.041,1.368-0.044,1.357-0.047
			C1.361-0.06,1.364-0.056,1.373-0.062C1.379-0.056,1.382-0.041,1.375-0.033"/>
	</g>
	<g id="g3340" transform="matrix(63.702707,0,0,-63.702707,2421.5672,60.818338)">
		<path id="path3342" inkscape:connector-curvature="0" fill="#FFFFFF" d="M0,0c-0.001-0.001-0.001-0.001-0.002-0.002v-0.002
			c0.001-0.001,0.003-0.001,0.004-0.002c0.001,0.001,0.002,0.001,0.002,0.002C0.003-0.003,0.001-0.001,0,0 M-1.956,0.021
			c-0.009,0.004-0.006,0-0.007,0.01c-0.01,0.01-0.005,0.007-0.002,0.02c-0.002,0-0.004,0.001-0.006,0.002
			C-1.979,0.05-1.987,0.047-1.996,0.044c0-0.002-0.001-0.003-0.002-0.004c0.023-0.021,0.044-0.033,0.076-0.046
			c0.007-0.004,0.003,0,0.005-0.006c0.005-0.006,0.008-0.007,0.016-0.011C-1.88-0.019-1.883-0.009-1.854-0.01
			c0,0.001,0.001,0.001,0.002,0.002v0.002C-1.867,0-1.956,0.021-1.956,0.021 M0.047-0.014H0.042c0-0.003,0-0.005,0-0.008
			C0.046-0.021,0.048-0.021,0.051-0.02C0.05-0.018,0.048-0.016,0.047-0.014 M0.06-0.112C0.059-0.111,0.058-0.108,0.058-0.107
			C0.071-0.103,0.07-0.097,0.08-0.092v0.01C0.064-0.067,0.051-0.067,0.037-0.048C0.022-0.039,0.008-0.042-0.004-0.053
			C-0.003-0.048-0.003-0.05,0-0.044c-0.006,0.003-0.012,0.006-0.019,0.008c-0.007-0.006-0.018-0.011-0.032-0.012
			C-0.053-0.062-0.052-0.062-0.06-0.071c0.008-0.008,0.016-0.006,0.026-0.003c-0.004-0.012-0.008-0.009-0.008-0.018
			c-0.02,0-0.039-0.001-0.059-0.001C-0.1-0.105-0.098-0.097-0.093-0.105c-0.002-0.001-0.004-0.002-0.006-0.003
			c0.008-0.008,0.016-0.007,0.028-0.007c-0.007-0.008-0.008-0.009-0.014-0.016c0.016-0.022,0.03-0.008,0.056-0.016
			c-0.015-0.01-0.01-0.01-0.01-0.024c-0.01-0.01-0.009-0.007,0-0.013c-0.006-0.01-0.005-0.004-0.003-0.015
			c-0.005,0-0.011,0.001-0.017,0.001C-0.061-0.202-0.062-0.205-0.064-0.21c0.008,0.002,0.017,0.004,0.025,0.005
			c-0.005-0.003-0.01-0.007-0.016-0.01c0.026-0.063,0.117,0.018,0.157,0.017C0.1-0.17,0.088-0.126,0.06-0.112"/>
	</g>
	<g id="g3344" transform="matrix(63.702707,0,0,-63.702707,2336.7764,61.776426)">
		<path id="path3346" inkscape:connector-curvature="0" fill="#FFFFFF" d="M0,0c-0.001-0.002-0.001-0.004-0.002-0.006
			C0-0.005,0.002-0.005,0.004-0.004C0.003-0.003,0.001-0.001,0,0 M1.954-0.051c0.002-0.003,0.003-0.007,0.004-0.01
			c0.005-0.002,0.01-0.003,0.016-0.005C1.968-0.057,1.964-0.055,1.954-0.051 M-0.84-0.004c-0.002-0.003-0.004-0.005-0.006-0.008
			c0.001-0.001,0.002-0.001,0.004-0.002c0.006,0.004,0.005,0.002,0.008,0.01C-0.836-0.004-0.838-0.004-0.84-0.004"/>
	</g>
	<g id="g3348" transform="matrix(63.702707,0,0,-63.702707,2293.4585,62.602014)">
		<path id="path3350" inkscape:connector-curvature="0" fill="#FFFFFF" d="M0,0c-0.001-0.003-0.001-0.005-0.002-0.008
			C0-0.01,0.002-0.011,0.004-0.012C0.017-0.011,0.03-0.009,0.043-0.008C0.029-0.005,0.014-0.003,0,0 M2.126-0.056
			C2.125-0.06,2.122-0.064,2.121-0.068C2.122-0.07,2.122-0.072,2.124-0.075c0.003,0.002,0.007,0.002,0.011,0.003
			c0,0.002,0.001,0.004,0.002,0.006C2.133-0.063,2.13-0.059,2.126-0.056 M-0.297,0.006c-0.001-0.007-0.002-0.005,0.002-0.01
			C-0.294-0.003-0.292-0.002-0.291,0C-0.293,0.002-0.295,0.004-0.297,0.006"/>
	</g>
	<g id="g3352" transform="matrix(63.702707,0,0,-63.702707,2308.2376,63.621257)">
		<path id="path3354" inkscape:connector-curvature="0" fill="#FFFFFF" d="M0,0c-0.001,0-0.003,0-0.004,0
			c-0.001-0.001-0.002-0.003-0.002-0.004C0-0.003,0.004-0.006,0,0 M-0.516,0.014c0-0.001,0-0.003,0-0.004
			c0.001,0.001,0.003,0.003,0.004,0.004C-0.513,0.014-0.515,0.014-0.516,0.014"/>
	</g>
	<g id="g3356" transform="matrix(63.702707,0,0,-63.702707,2307.8553,64.003473)">
		<path id="path3358" inkscape:connector-curvature="0" fill="#FFFFFF" d="M0,0c-0.003,0-0.007,0-0.012,0
			C-0.016-0.002-0.02-0.005-0.024-0.007c0.008-0.001,0.018-0.001,0.026-0.001c0,0,0,0.001,0,0.002C0.001-0.004,0.001-0.002,0,0
			 M0.277-0.012C0.278-0.015,0.28-0.018,0.281-0.02c0.002,0.001,0.003,0.002,0.004,0.004C0.283-0.015,0.28-0.014,0.277-0.012
			 M0.416-0.02C0.413-0.022,0.41-0.024,0.408-0.026C0.407-0.029,0.406-0.031,0.406-0.033c0.002,0,0.004,0,0.006,0
			C0.415-0.031,0.42-0.029,0.423-0.026v0.006C0.421-0.02,0.419-0.02,0.416-0.02 M-0.36,0.001c0.004-0.002,0.001-0.002,0.004,0
			C-0.357,0.001-0.359,0.001-0.36,0.001"/>
	</g>
	<g id="g3360" transform="matrix(63.702707,0,0,-63.702707,2325.5035,65.471183)">
		<path id="path3362" inkscape:connector-curvature="0" fill="#FFFFFF" d="M0,0c-0.001-0.001-0.002-0.003-0.002-0.004
			C0-0.005,0.002-0.006,0.004-0.006s0.003,0.001,0.004,0.002C0.006-0.003,0.003-0.002,0,0 M0.008-0.007v-0.004
			C0.009-0.01,0.012-0.009,0.013-0.007C0.012-0.007,0.009-0.007,0.008-0.007 M2.17-0.064c0.004-0.002,0.009-0.004,0.013-0.007v0.002
			C2.179-0.065,2.179-0.066,2.17-0.064 M2.018-0.08C2.017-0.081,2.017-0.082,2.016-0.084c0.006,0.002,0.003,0,0.006,0.004
			C2.021-0.08,2.019-0.08,2.018-0.08 M1.994-0.091C1.993-0.092,1.993-0.094,1.992-0.095c0.001-0.001,0.001-0.001,0.002-0.002
			c0.001,0.001,0.003,0.003,0.004,0.004v0.002C1.997-0.091,1.995-0.091,1.994-0.091 M1.991-0.105v-0.006c0.001,0,0.002,0,0.004,0
			C1.992-0.105,1.995-0.109,1.991-0.105 M-0.921-0.039c0-0.001,0-0.003,0-0.004C-0.92-0.042-0.918-0.04-0.917-0.039
			C-0.918-0.039-0.92-0.039-0.921-0.039 M-1-0.047C-1.001-0.05-1.001-0.052-1.002-0.054C-0.999-0.05-0.998-0.053-1-0.047"/>
	</g>
	<g id="g3364" transform="matrix(63.702707,0,0,-63.702707,2264.2215,69.609311)">
		<path id="path3366" inkscape:connector-curvature="0" fill="#FFFFFF" d="M0,0c-0.004-0.001-0.007-0.003-0.011-0.004
			c0-0.001,0-0.003,0-0.004C-0.004-0.009,0.003-0.01,0.01-0.01c0,0,0,0.001,0,0.002C0.006-0.002,0.008-0.003,0,0 M-0.119-0.002
			C-0.12-0.003-0.122-0.003-0.123-0.004c0-0.001,0-0.001,0-0.002c0.003,0.001,0.007,0.003,0.011,0.004"/>
	</g>
	<g id="g3368" transform="matrix(63.702707,0,0,-63.702707,2260.2057,69.802968)">
		<path id="path3370" inkscape:connector-curvature="0" fill="#FFFFFF" d="M0,0c0.004-0.002,0-0.002,0.004,0C0.003,0,0.001,0,0,0
			 M-0.026-0.002c0.001-0.001,0.003-0.003,0.004-0.004h0.002C-0.023-0.002-0.02-0.005-0.026-0.002 M0.091-0.012
			C0.09-0.013,0.09-0.015,0.089-0.016c0.003-0.001,0.007-0.003,0.01-0.004h0.002c0.001,0.001,0.002,0.002,0.003,0.004
			C0.099-0.013,0.099-0.013,0.091-0.012 M-2.307-0.16c-0.009-0.024-0.017-0.041-0.021-0.062c0,0,0.001,0,0.002,0
			C-2.317-0.206-2.293-0.187-2.307-0.16 M-2.342-0.24c0.006,0.005,0.003,0.003,0.004,0.008C-2.339-0.235-2.341-0.237-2.342-0.24
			 M-0.38-0.274c-0.001-0.001-0.001-0.003-0.002-0.004h0.007C-0.376-0.277-0.378-0.275-0.38-0.274 M-2.379-0.411
			c-0.002-0.01-0.005-0.02-0.007-0.031c0.001-0.001,0.001-0.002,0.002-0.004l0.003,0.001c0.003,0.01,0.005,0.021,0.008,0.031
			C-2.375-0.413-2.377-0.412-2.379-0.411 M3.487-0.47c0.002-0.003,0.004-0.006,0.006-0.009v0.006
			C3.491-0.472,3.489-0.471,3.487-0.47"/>
	</g>
	<g id="g3372" transform="matrix(63.702707,0,0,-63.702707,2160.4473,97.256284)">
		<path id="path3374" inkscape:connector-curvature="0" fill="#FFFFFF" d="M0,0c-0.001-0.003-0.003-0.006-0.004-0.008
			C0-0.004,0.002-0.005,0,0 M0.201,0.004C0.194-0.002,0.188-0.003,0.184-0.013c0.014-0.002,0.024,0,0.036,0c0,0,0,0.001,0,0.002
			C0.214-0.006,0.208-0.001,0.201,0.004 M-0.058-0.026C-0.059-0.028-0.062-0.03-0.063-0.032c0.004,0.001,0.006,0.003,0.009,0.004
			C-0.055-0.027-0.057-0.027-0.058-0.026 M5.156-0.176v-0.006c0.001,0,0.003,0,0.004-0.001C5.157-0.176,5.16-0.18,5.156-0.176"/>
	</g>
	<g id="g3376" transform="matrix(63.702707,0,0,-63.702707,2478.1964,107.89718)">
		<path id="path3378" inkscape:connector-curvature="0" fill="#FFFFFF" d="M0,0c0.002-0.005,0.004-0.01,0.006-0.015
			C0.002-0.018-0.002-0.021-0.006-0.023c0-0.027,0.02-0.063,0.037-0.073c0.002-0.001,0.003-0.003,0.005-0.005c0,0,0.001,0,0.002,0
			C0.037-0.069,0.022-0.012,0,0"/>
	</g>
	<g id="g3380" transform="matrix(63.702707,0,0,-63.702707,2480.2349,108.59536)">
		<path id="path3382" inkscape:connector-curvature="0" fill="#FFFFFF" d="M0,0c-0.001-0.001-0.003-0.001-0.004-0.002v-0.006
			c0.003,0,0.007-0.001,0.01-0.001C0.004-0.002,0.005-0.004,0,0 M-5.938-0.127C-5.939-0.129-5.939-0.13-5.94-0.131
			c0.002-0.003,0.004-0.005,0.007-0.008c0.001,0,0.001,0,0.002,0.001C-5.932-0.128-5.931-0.13-5.938-0.127"/>
	</g>
	<g id="g3384" transform="matrix(63.702707,0,0,-63.702707,2484.6941,123.69545)">
		<path id="path3386" inkscape:connector-curvature="0" fill="#FFFFFF" d="M0,0c-0.007,0.049-0.029,0.102-0.053,0.136
			C-0.055,0.137-0.057,0.138-0.06,0.139C-0.062,0.132-0.063,0.126-0.065,0.12c-0.009-0.006-0.006-0.006-0.016-0.001
			c0.002-0.025,0.027-0.048,0.035-0.069c0.007-0.016,0.002-0.036,0.006-0.047c0.009-0.005,0.01-0.012,0.028-0.015
			C-0.013-0.006-0.014,0-0.014,0.005c0.005,0,0.006-0.001,0.012-0.005C-0.001,0-0.001,0,0,0 M0.287,0.088V0.08
			c0.002-0.002,0.004-0.003,0.006-0.006C0.292,0.084,0.292,0.083,0.287,0.088 M0.306,0.071C0.307,0.068,0.309,0.065,0.31,0.062
			c0.001,0,0.001,0,0.002,0C0.309,0.07,0.312,0.066,0.306,0.071"/>
	</g>
	<g id="g3388" transform="matrix(63.702707,0,0,-63.702707,2503.2341,120.57147)">
		<path id="path3390" inkscape:connector-curvature="0" fill="#FFFFFF" d="M0,0c0.001-0.004,0.003-0.007,0.004-0.011
			C0.001-0.008-0.001-0.006-0.004-0.004c0.003-0.004,0.005-0.01,0.008-0.014C0.006-0.016,0.008-0.014,0.01-0.011
			C0.007-0.008,0.004-0.004,0,0 M0.023-0.011v-0.006c0.003-0.002,0.005-0.005,0.008-0.007v0.008
			C0.028-0.014,0.026-0.013,0.023-0.011 M0.043-0.077v-0.006C0.047-0.085,0.05-0.086,0.052-0.088
			C0.05-0.084,0.047-0.081,0.043-0.077 M-1.002-0.043c0.001-0.004,0.001-0.008,0.003-0.012c0,0.005,0.001,0.008,0.001,0.012
			C-0.999-0.043-0.999-0.043-1.002-0.043 M-0.008-0.107c0-0.006,0-0.011,0-0.017c0.002-0.002,0.004-0.004,0.006-0.007
			C0-0.132,0.002-0.133,0.003-0.134C0.005-0.133,0.005-0.131,0.006-0.13C0.001-0.122-0.003-0.114-0.008-0.107"/>
	</g>
	<g id="g3392" transform="matrix(63.702707,0,0,-63.702707,2505.2063,128.15464)">
		<path id="path3394" inkscape:connector-curvature="0" fill="#FFFFFF" d="M0,0c-0.003,0.001-0.006,0.002-0.008,0.003
			c0.006-0.006,0.012-0.012,0.018-0.019c0.001,0.002,0.003,0.002,0.005,0.005C0.009-0.008,0.005-0.004,0,0 M-0.025-0.024
			c0.001-0.003,0.001-0.006,0.002-0.008c0.004-0.003,0.006-0.005,0.009-0.007v0.008C-0.017-0.029-0.022-0.026-0.025-0.024
			 M-5.822-0.027c0-0.006,0-0.011,0-0.018c0.003,0.002,0.005,0.002,0.008,0.002v0.002C-5.816-0.034-5.817-0.031-5.822-0.027
			 M0.055-0.124c0.002-0.004,0.004-0.008,0.006-0.013c0.001,0.002,0.002,0.003,0.002,0.004C0.06-0.13,0.058-0.127,0.055-0.124
			 M-3.036-3.76c-0.001-0.003-0.001-0.007-0.002-0.009c0.003,0.002,0.007,0.006,0.01,0.009"/>
	</g>
	<g id="g3396" transform="matrix(63.702707,0,0,-63.702707,2307.412,367.93163)">
		<path id="path3398" inkscape:connector-curvature="0" fill="#FFFFFF" d="M0,0c-0.003-0.001-0.005-0.003-0.007-0.004
			c0.001-0.002,0.003-0.003,0.004-0.004h0.011v0.002C0.006-0.004,0.003-0.002,0,0 M0.017-0.002c0-0.001,0-0.003,0-0.004
			C0.018-0.005,0.02-0.004,0.021-0.002C0.021-0.002,0.017-0.002,0.017-0.002z M-0.325-0.209c-0.001-0.002-0.001-0.004-0.002-0.006
			c0.004,0.003,0.001,0,0.004,0.006H-0.325z M-0.329-0.22C-0.33-0.222-0.33-0.224-0.332-0.226c0.002,0.001,0.004,0.002,0.005,0.004
			C-0.328-0.221-0.328-0.221-0.329-0.22 M-0.484-0.359c0,0.006,0,0.013,0,0.019c-0.011,0-0.02-0.003-0.03-0.004
			c-0.011-0.025-0.038-0.039-0.06-0.054V-0.4c0.004-0.001,0.007-0.003,0.011-0.005c0.02,0.003,0.034,0.011,0.047,0.02
			c0,0.003,0,0.007,0,0.01C-0.503-0.372-0.493-0.365-0.484-0.359 M-1.662-0.423c0.004-0.003,0.001-0.003,0.004,0H-1.662z
			 M-1.67-0.487C-1.671-0.488-1.671-0.49-1.672-0.491c0.001-0.001,0.003-0.002,0.004-0.002c0.001,0,0.001,0.001,0.002,0.002
			C-1.667-0.49-1.669-0.488-1.67-0.487 M-1.124-0.639c0.002-0.011,0.001-0.013,0.012-0.018v0.002
			C-1.116-0.646-1.113-0.643-1.124-0.639 M-1.596-0.693c0.004-0.007,0-0.002,0.006-0.005c0.001,0,0.002,0.001,0.002,0.003v0.002
			H-1.596z M-1.647-0.739c0.001-0.002,0.004-0.004,0.005-0.006h0.008v0.002C-1.638-0.74-1.638-0.74-1.647-0.739 M-1.631-0.785
			v-0.006h0.006C-1.627-0.789-1.629-0.787-1.631-0.785 M-1.609-0.815C-1.61-0.816-1.61-0.818-1.611-0.819h0.004
			C-1.608-0.818-1.608-0.816-1.609-0.815 M-1.416-1.141c-0.001-0.001-0.001-0.001-0.002-0.002c0.001-0.002,0.003-0.003,0.005-0.004
			c0.002,0,0.004,0.001,0.006,0.002C-1.409-1.144-1.412-1.142-1.416-1.141 M-1.376-1.16C-1.378-1.159-1.38-1.159-1.383-1.158
			c-0.004-0.003-0.008-0.006-0.013-0.008c0.013-0.002,0.019-0.006,0.024,0.006"/>
	</g>
	<g id="g3400" transform="matrix(63.702707,0,0,-63.702707,2222.9422,441.82677)">
		<path id="path3402" inkscape:connector-curvature="0" fill="#FFFFFF" d="M0,0c-0.003,0.001-0.007,0.001-0.01,0.002
			C-0.012,0.001-0.014,0.001-0.017,0c0.002-0.001,0.003-0.001,0.005-0.002c0.002-0.002,0.004-0.004,0.006-0.006
			c0.003,0.001,0.005,0.002,0.009,0.004C0.001-0.003,0.001-0.001,0,0"/>
	</g>
	<g id="g3404" transform="matrix(63.702707,0,0,-63.702707,2224.2162,443.99267)">
		<path id="path3406" inkscape:connector-curvature="0" fill="#FFFFFF" d="M0,0v0.002C-0.018,0.004-0.025,0.003-0.036,0.01
			c-0.002,0.015,0,0.02-0.016,0.024c0.003-0.015,0.008-0.033,0.007-0.042C-0.043-0.009-0.04-0.01-0.038-0.01
			c0.002,0.005,0.004,0.009,0.006,0.014c0.001,0,0.003-0.001,0.004-0.002c0.004-0.01,0.01-0.019,0.02-0.024
			C-0.013-0.017-0.016-0.011-0.02-0.006v0.002C-0.013-0.003-0.006-0.001,0,0 M-0.034-0.032c0.001-0.001,0.001-0.003,0.002-0.004
			c0.001,0.001,0.001,0.003,0.002,0.004H-0.034z M0.101-0.077C0.1-0.085,0.099-0.08,0.107-0.083
			C0.105-0.081,0.103-0.079,0.101-0.077 M0.163-0.079c0.005-0.007,0.015-0.006,0.026-0.009C0.19-0.086,0.19-0.085,0.191-0.083
			C0.181-0.082,0.172-0.08,0.163-0.079 M1.015,7.231c-1.616,0-3.003-0.981-3.598-2.379C-2.034,5.829-0.873,7.002,1.013,7
			c1.703-0.001,2.976-1.026,3.6-2.15C4.019,6.249,2.631,7.231,1.015,7.231"/>
	</g>
	<g id="g3408" transform="matrix(63.702707,0,0,-63.702707,2526.2945,307.85743)">
		<path id="path3410" inkscape:connector-curvature="0" fill="#FFFFFF" d="M0,0c-0.506-1.549-1.931-2.755-3.736-2.755
			c-1.914,0-3.2,1.189-3.718,2.721c0.539-1.427,2.001-2.45,3.722-2.45C-2-2.484-0.527-1.444,0,0 M-10.413,0.131
			c-0.39,0-0.597,0.249-0.599,0.723l-0.005,1.087c0,0.012,0.009,0.022,0.021,0.024l0.339,0.033c0.007,0.001,0.013-0.002,0.018-0.007
			c0.005-0.004,0.007-0.01,0.007-0.016l0.006-1.076c0.001-0.236,0.091-0.356,0.268-0.356c0.013,0,0.028,0,0.042,0.002
			c0.207,0.02,0.313,0.161,0.311,0.419l-0.005,1.075c0,0.012,0.009,0.022,0.021,0.024l0.341,0.033
			c0.007,0.001,0.013-0.002,0.018-0.007c0.005-0.004,0.007-0.01,0.007-0.016l0.005-1.088c0.002-0.292-0.086-0.79-0.695-0.849
			C-10.348,0.133-10.381,0.131-10.413,0.131"/>
	</g>
	<g id="g3412" transform="matrix(63.702707,0,0,-63.702707,1936.8508,289.63846)">
		
			<path id="path3414" inkscape:connector-curvature="0" sodipodi:nodetypes="cccccccccccsccccccccccccccccccccccsccccccccccsccccscccccccccccccccsscccccccccccccccsccccccccccscccscccccccccccccccccccccccscccccccccccccccccccccccccccccccccccccccccccccc" fill="#FFFFFF" d="
			M0,0c-0.006,0-0.011,0.002-0.015,0.006C-0.02,0.01-0.023,0.016-0.023,0.024l-0.009,1.794c0,0.013,0.01,0.023,0.022,0.024
			l0.362,0.025c0.008,0,0.016-0.003,0.021-0.009L1.14,0.845L1.135,1.899c0,0.012,0.009,0.022,0.022,0.023L1.45,1.943
			c0.006,0,0.012-0.002,0.017-0.006c0.005-0.004,0.007-0.01,0.007-0.017l0.009-1.795c0-0.013-0.01-0.023-0.022-0.023l-0.3-0.022
			c-0.008,0-0.016,0.003-0.021,0.01L0.311,1.188l0.006-1.144c0-0.012-0.009-0.022-0.022-0.023L0.003,0C0.002,0,0.002,0,0,0
			 M1.913,0.123c-0.007,0-0.012,0.003-0.017,0.007C1.892,0.134,1.889,0.14,1.889,0.147l-0.01,1.789c0,0.012,0.01,0.022,0.022,0.023
			l0.39,0.02c0.006,0,0.013-0.002,0.017-0.006c0.005-0.004,0.008-0.011,0.008-0.018l0.008-1.788c0-0.014-0.01-0.024-0.022-0.024
			L1.913,0.123L1.913,0.123 M3.348,0.184c-0.009,0-0.017,0.005-0.021,0.015L2.565,1.965C2.561,1.973,2.561,1.981,2.566,1.987
			c0.004,0.006,0.011,0.01,0.019,0.011l0.446,0.013c0.01,0,0.018-0.005,0.022-0.014L3.55,0.843l0.512,1.185
			c0.003,0.009,0.011,0.014,0.021,0.014l0.351,0.01c0.009,0,0.016-0.003,0.02-0.01C4.458,2.035,4.459,2.027,4.456,2.02L3.674,0.207
			C3.67,0.199,3.662,0.194,3.654,0.194l-0.305-0.01H3.348z M4.729,0.218c-0.012,0-0.023,0.01-0.023,0.023L4.695,2.03
			c0,0.006,0.003,0.012,0.008,0.017c0.004,0.005,0.01,0.007,0.016,0.007l1.434,0.002c0.013,0,0.023-0.011,0.023-0.024l0.002-0.349
			c0.001-0.006-0.003-0.011-0.007-0.016c-0.004-0.004-0.01-0.006-0.016-0.006l-1-0.001l0.001-0.311L5.828,1.35
			c0.013,0,0.024-0.01,0.024-0.022l0.001-0.352C5.854,0.97,5.851,0.964,5.846,0.959C5.842,0.955,5.836,0.952,5.83,0.952H5.159
			l0.002-0.336l1.01,0.001c0.013,0,0.023-0.01,0.023-0.023l0.002-0.351c0-0.007-0.002-0.013-0.007-0.017
			C6.185,0.222,6.179,0.22,6.172,0.22L4.729,0.218z M8.185,0.164H8.184L7.72,0.177C7.712,0.178,7.705,0.182,7.701,0.189L7.308,0.865
			L7.054,0.873l0.003-0.652c0-0.006-0.003-0.012-0.007-0.016C7.046,0.201,7.039,0.199,7.033,0.199L6.642,0.21
			c-0.013,0-0.023,0.01-0.023,0.023L6.611,2.028c0,0.006,0.002,0.013,0.007,0.017c0.004,0.004,0.01,0.007,0.016,0.006l0.985-0.029
			c0.327-0.01,0.515-0.218,0.517-0.571c0.002-0.341-0.18-0.483-0.345-0.542l0.414-0.71c0.004-0.008,0.004-0.017,0-0.024
			S8.193,0.164,8.185,0.164 M7.05,1.266l0.318-0.009c0.014,0,0.028-0.001,0.041-0.001c0.118,0,0.186,0.017,0.223,0.055
			c0.03,0.029,0.043,0.076,0.043,0.152C7.674,1.548,7.658,1.624,7.465,1.63L7.048,1.643L7.05,1.266z M9.204,0.059
			c-0.025,0-0.05,0.001-0.076,0.002C8.851,0.076,8.561,0.249,8.479,0.302c-0.007,0.005-0.011,0.012-0.011,0.02L8.466,0.736
			c0,0.008,0.005,0.016,0.013,0.02C8.486,0.76,8.495,0.759,8.502,0.755c0.252-0.168,0.491-0.276,0.627-0.283
			c0.128-0.008,0.213,0.011,0.255,0.054c0.022,0.021,0.032,0.048,0.031,0.082c0,0.041-0.041,0.08-0.13,0.125
			c-0.051,0.025-0.114,0.051-0.18,0.078C8.825,0.926,8.442,1.083,8.44,1.507C8.439,1.648,8.484,1.765,8.572,1.855
			C8.687,1.969,8.87,2.027,9.076,2.017c0.242-0.014,0.53-0.137,0.665-0.218c0.007-0.004,0.011-0.011,0.011-0.02l0.002-0.401
			c0-0.008-0.005-0.016-0.012-0.02C9.735,1.354,9.726,1.354,9.718,1.359C9.635,1.413,9.344,1.592,9.076,1.606
			C8.98,1.611,8.933,1.585,8.912,1.565c-0.02-0.02-0.023-0.04-0.023-0.051C8.89,1.47,8.932,1.427,9.02,1.379
			C9.074,1.35,9.141,1.322,9.213,1.293c0.275-0.117,0.653-0.275,0.654-0.656C9.868,0.466,9.819,0.33,9.721,0.232
			C9.606,0.118,9.433,0.059,9.204,0.059 M11.652-0.054c-0.001,0-0.001,0-0.002,0l-0.386,0.029c-0.009,0-0.017,0.006-0.02,0.015
			l-0.13,0.361l-0.628,0.045l-0.133-0.339C10.35,0.048,10.34,0.041,10.33,0.043l-0.324,0.023C9.999,0.067,9.992,0.071,9.988,0.078
			c-0.004,0.006-0.005,0.013-0.002,0.02l0.694,1.759c0.004,0.009,0.013,0.015,0.023,0.014l0.271-0.019
			c0.009,0,0.016-0.007,0.02-0.016l0.68-1.859c0.003-0.008,0.002-0.016-0.003-0.022C11.667-0.051,11.659-0.054,11.652-0.054
			 M10.639,0.782l0.324-0.024l-0.159,0.44L10.639,0.782z M13.037-0.183h-0.002l-1.113,0.104c-0.012,0.001-0.021,0.01-0.021,0.022
			L11.89,1.76c0,0.006,0.004,0.013,0.009,0.017c0.004,0.004,0.01,0.006,0.017,0.006l0.336-0.031
			c0.013-0.001,0.021-0.011,0.021-0.023L12.28,0.29l0.758-0.069c0.012-0.001,0.021-0.012,0.021-0.024l0.002-0.356
			c0-0.007-0.003-0.013-0.008-0.017C13.049-0.181,13.044-0.183,13.037-0.183"/>
	</g>
	<g id="g3416" transform="matrix(63.702707,0,0,-63.702707,1990.8095,566.42927)">
	</g>
</g>
</svg>
