<?xml version="1.0" encoding="utf-8"?>
<!-- Generator: Adobe Illustrator 22.0.1, SVG Export Plug-In . SVG Version: 6.00 Build 0)  -->
<svg version="1.1" id="Layer_1" xmlns="http://www.w3.org/2000/svg" xmlns:xlink="http://www.w3.org/1999/xlink" x="0px" y="0px"
	 viewBox="0 0 942.6 1000" style="enable-background:new 0 0 942.6 1000;" xml:space="preserve">
<style type="text/css">
	.st0{fill:#FFFFFF;}
</style>
<g>
	<path class="st0" d="M154.5,968.4c-44.6,0-78.1-33.5-78.1-79.9l0,0c0-42.8,31.6-76.2,72.5-76.2c3.7,0,7.4,0,11.2,0
		c22.3,3.7,37.2,11.2,52,26l1.9,1.9l-18.6,20.5l-3.7-3.7c-9.3-9.3-18.6-16.7-35.3-18.6c-1.9,0-3.7,0-5.6,0
		c-24.2,0-42.8,20.4-42.8,48.3l0,0c0,29.7,18.6,52,46.5,52h1.9c11.2,0,22.3-3.7,29.7-9.3l1.9-22.3l-35.3-1.9v-26l61.3,3.7l-3.7,59.5
		l-1.9,1.9C201,957.2,180.5,968.4,154.5,968.4L154.5,968.4z"/>
	<path class="st0" d="M375.7,968.4h-33.5l-1.9-1.9c-5.6-9.3-9.3-13-14.9-22.3c-27.9,0-40.9-1.9-68.8-3.7
		c-5.6,9.3-9.3,14.9-14.9,24.2v1.9h-31.6l3.7-5.6c20.4-35.3,40.9-70.6,63.2-104.1l1.9-1.9h1.9c9.3,1.9,13,1.9,22.3,3.7h1.9l1.9,1.9
		c18.6,31.6,40.9,65.1,65.1,100.4L375.7,968.4L375.7,968.4z M269.7,920.1c16.7,1.9,27.9,1.9,44.6,3.7c-9.3-13-13-22.3-22.3-37.2
		C282.7,897.8,279,905.2,269.7,920.1L269.7,920.1z"/>
	<path class="st0" d="M412.9,968.4h-31.6V868h3.7c9.3,0,16.7,0,27.9,1.9h1.9l1.9,1.9c14.9,14.9,26,24.2,39,35.3l9.3,7.4
		c18.6-18.6,27.9-26,46.5-46.5l1.9-1.9h1.9c11.1,0,16.7-1.9,26-1.9h3.7v106h-31.6v-66.9c-16.7,16.7-39,37.2-46.5,42.8l-1.9,1.9
		l-1.9-1.9c-5.6-5.6-27.9-26-46.5-40.9L412.9,968.4L412.9,968.4z"/>
	<path class="st0" d="M556,968.4V860.6h3.7c39-5.6,78.1-13,117.1-22.3l5.6-1.9v24.2h-3.7c-29.7,5.6-59.5,11.1-89.2,16.7v24.2
		c31.6-3.7,46.5-5.6,76.2-9.3h5.6v24.2h-3.7c-31.6,3.7-46.5,5.6-78.1,7.4V948c29.7,0,59.5-1.9,89.2-3.7h3.7v24.2h-3.7
		c-39,0-78.1,0-117.1,0H556L556,968.4z"/>
	<path class="st0" d="M760.4,968.4L760.4,968.4c-1.9,0-5.6,0-7.4,0c-24.2-1.9-46.5-11.2-63.2-26l-3.7-1.9l18.6-20.4l3.7,1.9
		c14.9,13,29.7,18.6,46.5,18.6c16.7,0,27.9-5.6,27.9-16.7l0,0c0-9.3-5.6-14.9-37.2-20.5c-27.9-5.6-52-13-52-42.7
		c0-24.2,22.3-44.6,53.9-48.3c24.2-1.9,42.8,1.9,63.2,13l3.7,1.9l-20.4,26l-3.7-1.9c-14.9-9.3-29.7-13-44.6-11.2
		c-14.9,1.9-24.2,7.4-24.2,16.7c0,9.3,5.6,13,37.2,18.6c40.9,7.4,59.5,22.3,59.5,46.5l0,0c0,14.9-5.6,26-16.7,33.5
		C792,964.7,777.2,968.4,760.4,968.4L760.4,968.4z"/>
	<polygon class="st0" points="859,325.3 851.5,325.3 845.9,325.3 840.4,325.3 840.4,330.9 840.4,979.5 52.3,979.5 52.3,330.9 
		52.3,325.3 46.7,325.3 41.1,325.3 35.5,325.3 35.5,334.6 35.5,994.4 35.5,1000 41.1,1000 853.4,1000 859,1000 859,994.4 859,332.7 
			"/>
	<path class="st0" d="M885,211.9L816.2,184l-1.9-31.6l-63.2-29.7l-1.9-39c0,0-210-83.6-306.7-83.6c-87.4,0-286.2,78.1-299.3,81.8
		l-1.9,35.3l-61.3,26l-1.9,33.5L0.2,208.2c0,0-24.2,395.9,440.5,600.4C903.6,622.7,885,211.9,885,211.9z M842.2,239.8
		c0,0-3.7,91.1-53.9,198.9c-46.5,102.2-143.1,239.8-343.9,323.4C234.4,661.7,137.8,526,95,429.4C48.5,323.4,50.4,241.6,50.4,239.8
		v-1.9l72.5-26l1.9-39l63.2-22.3l1.9-40.9h1.9c1.9,0,167.3-63.2,250.9-63.2c83.6,0,258.4,68.8,260.2,68.8h1.9l1.9,39l59.5,22.3
		l1.9,33.5l74.3,27.9L842.2,239.8L842.2,239.8z"/>
	<path class="st0" d="M615.5,366.2c16.7-9.3,72.5-46.5,70.6-94.8c-3.7-63.2-74.4-105.9-74.4-105.9c-57.6-35.3-128.3-52-152.4-55.8
		v594.8c79.9-50.2,145-100.4,184-156.1c31.6-42.7,48.3-70.6,37.2-124.5C669.4,377.3,615.5,366.2,615.5,366.2z M507.6,171h1.9
		c5.6,1.9,120.8,35.3,122.7,96.7c0,1.9,5.6,65.1-122.7,87.4h-1.9L507.6,171L507.6,171z M572.7,557.6c-29.7,29.7-59.5,48.3-61.3,48.3
		l0,0h0l-1.9,3.7V448c1.9-1.9,55.8-52,91.1-48.3c33.5,3.7,33.5,50.2,33.5,50.2C634,483.3,613.6,518.6,572.7,557.6z"/>
	<path class="st0" d="M600.6,401.5C600.6,401.5,600.6,401.5,600.6,401.5C600.6,401.5,600.6,401.5,600.6,401.5
		C600.6,401.5,600.6,401.5,600.6,401.5C600.6,401.5,600.6,401.5,600.6,401.5z"/>
	<path class="st0" d="M271.6,572.5c-66.9-57.6-132-237.9-137.5-321.6c13-5.6,39-11.2,52.1-11.2c0,0,18.6,145,89.2,243.5L292,448
		c0,0-52-182.2-39-267.7c16.7-5.6,39-11.2,53.9-13c0,0,9.3,262.1,70.6,360.6V119c14.9-7.4,35.3-11.2,52-13v602.2
		c0,0-63.2-44.6-117.1-191.5L271.6,572.5z"/>
	<path class="st0" d="M870.1,955.4h33.5v5.6h-13v35.3H885V961h-13v-5.6H870.1z"/>
	<path class="st0" d="M938.9,996.3v-24.2c0-1.9,0-5.6,0-9.3l0,0l-11.2,33.5h-5.6L911,962.8l0,0c0,3.7,0,9.3,0,9.3v24.2h-5.6v-40.9
		h7.4l11.2,33.5l0,0l11.2-33.5h7.4v40.9L938.9,996.3L938.9,996.3z"/>
</g>
</svg>
