<svg xmlns="http://www.w3.org/2000/svg" width="1137.097" height="102" viewBox="0 0 1137.097 102">
  <metadata><?xpacket begin="﻿" id="W5M0MpCehiHzreSzNTczkc9d"?>
<x:xmpmeta xmlns:x="adobe:ns:meta/" x:xmptk="Adobe XMP Core 5.6-c142 79.160924, 2017/07/13-01:06:39        ">
   <rdf:RDF xmlns:rdf="http://www.w3.org/1999/02/22-rdf-syntax-ns#">
      <rdf:Description rdf:about=""/>
   </rdf:RDF>
</x:xmpmeta>
                                                                                                    
                                                                                                    
                                                                                                    
                                                                                                    
                                                                                                    
                                                                                                    
                                                                                                    
                                                                                                    
                                                                                                    
                                                                                                    
                                                                                                    
                                                                                                    
                                                                                                    
                                                                                                    
                                                                                                    
                                                                                                    
                                                                                                    
                                                                                                    
                                                                                                    
                                                                                                    
                           
<?xpacket end="w"?></metadata>
<defs>
    <style>
      .cls-1 {
        fill: #fff;
        fill-rule: evenodd;
      }
    </style>
  </defs>
  <path id="Creative_Nebula_copy" data-name="Creative Nebula copy" class="cls-1" d="M332.312,88.542Q332.8,75,335.923,67.569q-4.1-.763-10.624-2.292a98.718,98.718,0,0,0-22.914-3.195q-18.679,0-31.489,6.354a47.016,47.016,0,0,0-19.824,17.918,49.544,49.544,0,0,0-7.013,26.216A50.284,50.284,0,0,0,251,138.858a47.793,47.793,0,0,0,19.893,18.23q12.95,6.6,30.031,6.6a68.333,68.333,0,0,0,16.56-2.048,80.612,80.612,0,0,0,16.352-6.077q1.251-3.264,2.708-6.459l-1.458-1.389a37.718,37.718,0,0,1-13.679,6.667,79.58,79.58,0,0,1-18.4,2.153,43.808,43.808,0,0,1-22.289-6.111,42.334,42.334,0,0,1-16.282-16.6,49.019,49.019,0,0,1-5.729-23.891q0-19.1,11.283-30.487t30.031-11.389a49.307,49.307,0,0,1,14.13,2.014,48.279,48.279,0,0,1,12.95,6.111l0.556,12.362h4.652Zm52.744,22.2a3.179,3.179,0,0,0-.219-1.486,0.919,0.919,0,0,0-.822-0.331,3.007,3.007,0,0,0-1.26.384,38.629,38.629,0,0,1-7.4,2.439,85.4,85.4,0,0,1-9.478,1.561v3.179h4.6q3.78,0,4.493,1.479,1.039,2.3,1.041,15.508,0,10.851-.384,18.741-0.219,4.494-.959,5.316t-3.534,1.041l-5.259.438v3.179q7.12-.384,14.409-0.384,7.506,0,15.889.384v-3.179h-3.287a12.989,12.989,0,0,1-6.137-1.149,2.991,2.991,0,0,1-1.1-2.407,113.977,113.977,0,0,1-.6-12.806q0-11.547.928-15.487a10.645,10.645,0,0,1,3.687-6.129,9.428,9.428,0,0,1,5.981-2.189A7.247,7.247,0,0,1,399.776,120a9.045,9.045,0,0,1,2.976,3.945h2.466a73.986,73.986,0,0,1,.986-12.439l0.055-.548a1.094,1.094,0,0,0-.769-1.041,11.711,11.711,0,0,0-4.614-.713,11.173,11.173,0,0,0-5.548,1.48,20.524,20.524,0,0,0-5.713,5.478,45.668,45.668,0,0,1-4.778,5.478Zm70.24,24.925q10.394,0,16.248-.438a45.171,45.171,0,0,0,6.893-1.151l0.11-3.233q0-10.246-5.671-15.946t-15.368-5.7a27.1,27.1,0,0,0-13.2,3.782q-6.793,3.78-9.314,8.219a31.714,31.714,0,0,0-3.835,15.947q0,12.055,6.821,19.1t17.943,7.042a37.545,37.545,0,0,0,9.917-1.315,39.356,39.356,0,0,0,9.369-3.946l1.753-4.6-0.929-.822a30.755,30.755,0,0,1-7.5,3.781,23.854,23.854,0,0,1-7.6,1.26q-8.535,0-13.785-5.589t-5.525-16.385H455.3Zm-9.786-18.083a12.018,12.018,0,0,1,9.807-4.494,13.419,13.419,0,0,1,6.958,1.781,9.989,9.989,0,0,1,4.219,4.466,22.358,22.358,0,0,1,1.917,9.152v3.068q-3.836.384-7.944,0.384-10.246,0-18.738-.384Q441.839,122.081,445.51,117.588Zm66.809,7.343q1.314-3.59,2.9-7.508a15.323,15.323,0,0,1,4.273-1.931,18.241,18.241,0,0,1,4.931-.644q6.9,0,10.629,4.329,2.959,3.451,3.068,10.412-17.862,3.173-22.764,5.142a15.64,15.64,0,0,0-7.561,6.1,17.446,17.446,0,0,0-2.657,9.655,12.142,12.142,0,0,0,3.725,9.329q3.726,3.472,10.794,3.474a14.322,14.322,0,0,0,4.109-.465,10.2,10.2,0,0,0,3.013-1.616l11.341-8.65q0.054,2.409.055,4.763l-0.055,4.872q5.149-.384,8.219-0.384,2.465,0,8.711.384v-3.617H550.78q-2.192,0-2.739-1.533t-0.657-16.257q-0.165-15.6-.822-19.542A13.353,13.353,0,0,0,541,112.6q-4.63-3.395-12.191-3.395a23.348,23.348,0,0,0-6.492.877,33.888,33.888,0,0,0-7.1,3.179l-5.972,3.4,0.054,3.781-0.054,3.672Zm25.7,10.57,0.109,12.137a26.326,26.326,0,0,1-7.15,6.834,14.839,14.839,0,0,1-7.862,2.3,8.089,8.089,0,0,1-6.081-2.433,8.917,8.917,0,0,1-2.356-6.479q0-6.013,4.109-8.884t19.34-6.151Zm61.44-16.379,10.519-.055,2.246,0.055,0.6-5.644-4.383.219q-4.22.165-10.9,0.164,0.493-15.946.931-20.22l-1.432-1.1a85.781,85.781,0,0,1-9.2,4.329q0.384,9.152.439,16.987-4,1.974-8.712,3.781V120q4.493-.382,8.712-0.384v20.824l-0.219,10.576q0,4.713,1.265,7.041a9.319,9.319,0,0,0,4.073,3.782,14.856,14.856,0,0,0,6.88,1.452,16.348,16.348,0,0,0,3.192-.329,26.581,26.581,0,0,0,3.413-.932l5.338-6.26-1.588-1.905a11.461,11.461,0,0,1-2.986,1.891,7.957,7.957,0,0,1-3.1.63,6.644,6.644,0,0,1-4.246-1.317,6.321,6.321,0,0,1-2.219-3.677q-0.549-2.359-.548-10.756V119.122h1.918ZM645.39,86.544a6.061,6.061,0,0,0-1.809,4.411,6.175,6.175,0,0,0,6.192,6.192,5.906,5.906,0,0,0,4.328-1.808,5.971,5.971,0,0,0,1.808-4.384,6.064,6.064,0,0,0-1.808-4.411,5.863,5.863,0,0,0-4.328-1.836A5.922,5.922,0,0,0,645.39,86.544Zm0.63,25.2q-3.151.813-9.835,1.787v3.178h4.109q2.96,0,3.808.714a3.3,3.3,0,0,1,.959,2.417q0.273,4.615.274,13.131,0,12.253-.274,19.229-0.165,4.506-.8,5.3t-3.369,1.016l-4.712.494v3.179q6.575-.384,13.04-0.384,6.574,0,14.574.384v-3.179l-3.726-.493q-3.123-.382-3.945-1.151a4.352,4.352,0,0,1-1.041-2.739q-0.493-5.042-.493-12.166,0-7.615.384-23.618,0.108-4.932.493-9.042l-1.315-.822A74.587,74.587,0,0,1,646.02,111.746Zm82.82,2.115a10.107,10.107,0,0,1,3.671.822,1.74,1.74,0,0,1,.712,1.535A6.338,6.338,0,0,1,733,117.7a97.566,97.566,0,0,1-4.113,11.4l-9.816,23.673q-12.284-30.3-13.269-33.153a15.1,15.1,0,0,1-.987-3.781,1.787,1.787,0,0,1,.932-1.644,11.083,11.083,0,0,1,4.712-.712h2.41V110.3q-6.849.384-12.6,0.384-5.37,0-13.424-.384v3.179h1.808a5.742,5.742,0,0,1,3.863,1.288,11.125,11.125,0,0,1,2.712,4.848q0.6,1.755,3.4,8,7.568,17.043,14.807,35.073h5.693q5.036-12.546,8.322-19.942t9.472-20.161a73.642,73.642,0,0,1,3.945-7.625,4.122,4.122,0,0,1,1.425-.987,6.445,6.445,0,0,1,2.465-.494h1.7V110.3q-5.871.384-11.028,0.384-4.443,0-10.093-.384v3.179Zm67.132,21.81q10.393,0,16.248-.438a45.192,45.192,0,0,0,6.893-1.151l0.11-3.233q0-10.246-5.671-15.946t-15.368-5.7a27.1,27.1,0,0,0-13.2,3.782q-6.793,3.78-9.314,8.219a31.714,31.714,0,0,0-3.835,15.947q0,12.055,6.821,19.1T796.6,163.29a37.551,37.551,0,0,0,9.917-1.315,39.356,39.356,0,0,0,9.369-3.946l1.753-4.6-0.93-.822a30.755,30.755,0,0,1-7.5,3.781,23.844,23.844,0,0,1-7.6,1.26q-8.535,0-13.786-5.589T782.3,135.671h13.677Zm-9.787-18.083a12.02,12.02,0,0,1,9.808-4.494,13.421,13.421,0,0,1,6.958,1.781,9.981,9.981,0,0,1,4.218,4.466,22.342,22.342,0,0,1,1.918,9.152v3.068q-3.836.384-7.944,0.384-10.246,0-18.738-.384Q782.515,122.081,786.185,117.588ZM962.618,140.83q8.47,10.42,16.178,18.966a8.617,8.617,0,0,0,2.916,2.188q1.527,0.658,10.971,2.118-1.111-17.569-1.111-30.21V102.571q0-27.57.625-30.418,0.972-4.305,7.43-4.306h5.343V63.472q-10.2.487-16.661,0.486-6.181,0-17.359-.486v4.375l5.208,0.486q7.012,0.695,8.019,3.3t1.007,30.592v44.585Q979.49,140.7,966.645,125L942.9,95.834q-6.528-8.055-12.6-16.008T917.346,63.472q-5.973.487-10.971,0.486-4.653,0-13.471-.486v4.375h4.3a9.229,9.229,0,0,1,5.069,1.181,8.942,8.942,0,0,1,2.743,2.674q0.938,1.494,1.076,5.521,0.208,9.516.208,19.237v34.516q0,13.126-.763,20.765-0.35,3.682-1.736,4.931t-5.9,1.25h-5V162.3q15.238-.486,19.484-0.486,6.122,0,13.707.486v-4.375l-4.467-.347q-5.516-.486-6.667-1.563T913.322,150q-0.628-6.461-.628-22.856V79.141Zm97.492-5.159q10.4,0,16.25-.438a45.176,45.176,0,0,0,6.89-1.151l0.11-3.233q0-10.246-5.67-15.946t-15.37-5.7a27.1,27.1,0,0,0-13.2,3.782q-6.8,3.78-9.32,8.219a31.785,31.785,0,0,0-3.83,15.947q0,12.055,6.82,19.1t17.94,7.042a37.584,37.584,0,0,0,9.92-1.315,39.4,39.4,0,0,0,9.37-3.946l1.75-4.6-0.93-.822a30.816,30.816,0,0,1-7.49,3.781,23.872,23.872,0,0,1-7.61,1.26q-8.535,0-13.78-5.589t-5.53-16.385h13.68Zm-9.79-18.083a12.031,12.031,0,0,1,9.81-4.494,13.429,13.429,0,0,1,6.96,1.781,10.014,10.014,0,0,1,4.22,4.466,22.482,22.482,0,0,1,1.91,9.152v3.068q-3.825.384-7.94,0.384-10.245,0-18.74-.384Q1046.645,122.081,1050.32,117.588Zm61.47-30.249q2.505,0,3.21.713c0.48,0.476.78,2.012,0.93,4.61q0.495,8.451.49,16.518v34.849a146.3,146.3,0,0,1-1.04,17.78l1.86,0.714,4.38-4.11a24.536,24.536,0,0,0,6.83,3.781,23.047,23.047,0,0,0,7.36,1.1,18.381,18.381,0,0,0,7.84-1.535,68.451,68.451,0,0,0,7.75-5.178,55.1,55.1,0,0,0,7.32-5.891,27.914,27.914,0,0,0,4.85-8.466,29.983,29.983,0,0,0,1.99-10.768q0-10.083-5.69-16.166a18.964,18.964,0,0,0-14.49-6.083,21.207,21.207,0,0,0-7.42,1.288,15.87,15.87,0,0,0-5.61,3.37l-6.67,6.741V108.969q0-12.237.16-19.316c0.04-1.024.19-2.578,0.44-4.664l0.28-2.744c0-1.39-.39-2.085-1.16-2.085a2.64,2.64,0,0,0-1.04.274,45.7,45.7,0,0,1-7.45,2.247,91.407,91.407,0,0,1-9.86,1.589v3.069h4.74Zm13.89,44.5q0-5.15.55-6.576a14.347,14.347,0,0,1,5.44-6.411,15.006,15.006,0,0,1,8.72-2.74,14.144,14.144,0,0,1,11.4,5.014q4.245,5.015,4.24,14.549a26.994,26.994,0,0,1-4.37,15.563,14.109,14.109,0,0,1-12.36,6.411,15.878,15.878,0,0,1-8.45-2.356q-3.855-2.355-4.73-4.165c-0.3-.584-0.44-2.849-0.44-6.795V131.835Zm115.41,29.975q4.755,0,11.61.384v-3.179h-3.18c-2.66,0-4.4-.566-5.2-1.7q-0.825-1.15-.82-9.152,0-14.247.82-32.988l0.22-5.1a0.875,0.875,0,0,0-.93-1.041,2.223,2.223,0,0,0-.99.274,53.953,53.953,0,0,1-8.33,2.63,96.3,96.3,0,0,1-9.59,1.535v3.014h4.33c2.92,0,4.57.383,4.93,1.15q0.6,1.427.61,17.646,0,9.645-.71,11.562a16.6,16.6,0,0,1-5.55,6.631,14.9,14.9,0,0,1-9.33,3.288,10.869,10.869,0,0,1-6.39-1.836,8.52,8.52,0,0,1-3.45-4.6q-0.825-2.766-.82-12.741T1209.09,116l0.38-5.589q0-1.37-.93-1.37l-4.56,1.7a61.053,61.053,0,0,1-13.79,2.74v3.014h4.87c1.98,0,3.13.347,3.48,1.041s0.52,4.129.52,10.3l-0.16,8.823q-0.165,4.932-.17,8.658,0,7.179,1.62,10.494a12.618,12.618,0,0,0,5.17,5.4,16.473,16.473,0,0,0,8.48,2.083,24.584,24.584,0,0,0,9.65-1.672,22.932,22.932,0,0,0,7.69-5.781l3.23-3.507-0.61,9.864a66.53,66.53,0,0,1,7.13-.384h0Zm55.08-81.65q-6.81,3.234-18.24,4.274v3.288h4.49c1.86,0,3.08.293,3.67,0.877q0.6,0.6.6,3.288l0.17,7.179,0.05,10.521v28q0,17.317-.71,19.454c-0.29.876-1.48,1.406-3.56,1.589l-4.71.383v3.179q9.765-.384,15.81-0.384,5.43,0,11.42.384v-3.179l-4.66-.493c-2.16-.219-3.36-0.712-3.62-1.479q-0.7-2.247-.71-19.015V109.861q0-12.987.93-29.043Zm42.26,44.771q1.32-3.59,2.91-7.508a15.292,15.292,0,0,1,4.27-1.931,18.281,18.281,0,0,1,4.93-.644q6.9,0,10.63,4.329,2.955,3.451,3.07,10.412-17.865,3.173-22.77,5.142a15.724,15.724,0,0,0-7.56,6.1,17.458,17.458,0,0,0-2.65,9.655,12.152,12.152,0,0,0,3.72,9.329c2.49,2.315,6.08,3.474,10.8,3.474a14.234,14.234,0,0,0,4.1-.465,10.149,10.149,0,0,0,3.02-1.616l11.34-8.65c0.04,1.606.05,3.193,0.05,4.763l-0.05,4.872q5.145-.384,8.22-0.384c1.64,0,4.55.128,8.71,0.384v-3.617h-4.27c-1.47,0-2.38-.51-2.74-1.533s-0.59-6.44-.66-16.257q-0.165-15.6-.82-19.542a13.366,13.366,0,0,0-5.56-8.647q-4.635-3.395-12.19-3.395a23.375,23.375,0,0,0-6.5.877,33.977,33.977,0,0,0-7.09,3.179l-5.97,3.4,0.05,3.781-0.05,3.672Zm25.7,10.57,0.11,12.137a26.425,26.425,0,0,1-7.15,6.834,14.827,14.827,0,0,1-7.86,2.3,8.077,8.077,0,0,1-6.08-2.433,8.882,8.882,0,0,1-2.36-6.479q0-6.013,4.11-8.884t19.34-6.151Z" transform="translate(-244.063 -62.094)"/>
</svg>
