<svg id="Group_1_copy" data-name="Group 1 copy" xmlns="http://www.w3.org/2000/svg" xmlns:xlink="http://www.w3.org/1999/xlink" width="512" height="512" viewBox="0 0 512 512">
<defs>
    <style>
      .cls-1 {
        fill: #009cff;
        fill-opacity: 0;
        stroke: #fff;
        stroke-linejoin: round;
        stroke-width: 6px;
      }

      .cls-1, .cls-2 {
        fill-rule: evenodd;
      }

      .cls-2 {
        fill: #fff;
      }
    </style>
  </defs>
  <path id="Rectangle_1_copy" data-name="Rectangle 1 copy" class="cls-1" d="M257,36.013L476.989,256.008,257,476,37.013,256.008Z"/>
  <path class="cls-2" d="M194.392,234.287a18.722,18.722,0,0,0-3.026-8.205l143.742-48.125-7.545-22.663a6.267,6.267,0,0,0-7.931-3.972l-156.36,52.349a6.291,6.291,0,0,0-3.961,7.954l3.7,11.11a18.822,18.822,0,0,0,3.607,30.207v88.772A6.278,6.278,0,0,0,172.887,348H337.732A6.279,6.279,0,0,0,344,341.714V234.287H194.392Zm91.617-64.314,19.03-6.371-4.579,18.561-19.031,6.371Zm-47.018,15.742,19.032-6.372-4.58,18.561-19.03,6.372Zm-63.227,60.392a9.586,9.586,0,1,1,9.559-9.585A9.583,9.583,0,0,1,175.764,246.107Zm16.211-44.651,19.032-6.371-4.58,18.561L187.4,220.018Zm18.695,54.057H190.607l10.205-16.151h20.064Zm39.71-16.151h20.064l-10.206,16.151H240.175Zm59.427,16.151H289.743l10.2-16.151h20.064Z"/>
</svg>
