<?xml version="1.0" standalone="no"?>
<!DOCTYPE svg PUBLIC "-//W3C//DTD SVG 20010904//EN"
 "http://www.w3.org/TR/2001/REC-SVG-20010904/DTD/svg10.dtd">
<svg version="1.0" xmlns="http://www.w3.org/2000/svg"
 width="260.000000pt" height="260.000000pt" viewBox="0 0 260.000000 260.000000"
 preserveAspectRatio="xMidYMid meet">
<metadata>
Created by potrace 1.11, written by Peter Selinger 2001-2013
</metadata>
<g transform="translate(0.000000,260.000000) scale(0.100000,-0.100000)"
fill="#000000" stroke="none">
<path d="M130 1938 l0 -532 -52 -53 -52 -53 52 -53 52 -53 0 -537 0 -537 1165
0 1165 0 0 537 0 537 52 53 52 53 -52 53 -52 53 0 532 0 532 -1165 0 -1165 0
0 -532z m945 72 l0 -35 -79 -7 c-44 -4 -84 -12 -90 -18 -16 -16 -25 -130 -25
-331 l-1 -186 128 -6 c163 -9 449 -9 585 -1 l105 7 -4 196 c-5 232 -11 293
-28 316 -10 14 -32 19 -95 23 l-81 5 0 36 0 36 313 0 312 0 0 -35 0 -35 -83
-6 c-58 -5 -89 -11 -100 -23 -16 -15 -17 -70 -17 -621 0 -555 1 -606 17 -621
12 -12 40 -19 97 -22 l81 -5 0 -28 c0 -16 1 -32 3 -36 1 -4 -139 -7 -311 -7
l-312 -1 0 38 0 37 64 0 c89 0 113 11 125 57 6 21 13 158 17 304 l7 266 -99 6
c-127 9 -446 9 -602 0 l-122 -6 0 -146 c0 -80 3 -211 7 -289 8 -180 10 -183
114 -191 l74 -6 0 -34 0 -34 -305 -1 -305 -1 0 35 0 35 70 6 c93 7 114 15 122
47 10 35 10 1159 0 1194 -8 32 -29 40 -122 47 -64 5 -70 8 -73 29 -7 49 -13
48 309 47 l304 -1 0 -34z m-900 -750 l-41 -40 -39 40 -39 40 39 40 39 40 41
-40 40 -40 -40 -40z m2320 0 l-41 -40 -39 40 -39 40 39 40 39 40 41 -40 40
-40 -40 -40z"/>
</g>
</svg>
