<?xml version="1.0" standalone="no"?>
<!DOCTYPE svg PUBLIC "-//W3C//DTD SVG 20010904//EN"
 "http://www.w3.org/TR/2001/REC-SVG-20010904/DTD/svg10.dtd">
<svg version="1.0" xmlns="http://www.w3.org/2000/svg"
 width="260.000000pt" height="260.000000pt" viewBox="0 0 260.000000 260.000000"
 preserveAspectRatio="xMidYMid meet">
<metadata>
Created by potrace 1.11, written by Peter Selinger 2001-2013
</metadata>
<g transform="translate(0.000000,260.000000) scale(0.100000,-0.100000)"
fill="#000000" stroke="none">
<path d="M110 1295 l0 -1195 1185 0 1185 0 0 1195 0 1195 -1185 0 -1185 0 0
-1195z m923 519 c198 -251 422 -527 617 -758 69 -82 133 -158 143 -170 17 -20
17 1 14 499 -1 286 -6 528 -11 537 -9 20 -52 33 -139 43 l-58 7 3 36 3 37 258
0 257 0 0 -36 0 -37 -76 -4 c-127 -6 -116 64 -112 -720 2 -503 0 -668 -9 -668
-41 0 -169 33 -186 47 -43 39 -211 240 -566 678 -206 253 -378 465 -383 470
-7 7 -8 -164 -5 -490 5 -443 11 -562 30 -582 3 -3 42 -10 87 -15 l81 -11 -3
-35 -3 -35 -250 -1 -250 -1 0 35 0 35 73 6 c46 3 78 11 88 21 27 26 36 229 32
728 -2 353 -6 470 -16 487 -18 32 -48 46 -117 52 -53 5 -60 9 -63 29 -7 48 -5
48 193 47 l187 -1 181 -230z"/>
</g>
</svg>
